<?xml version="1.0" encoding="UTF-8" standalone="no"?>
<!DOCTYPE svg PUBLIC "-//W3C//DTD SVG 1.1//EN" "http://www.w3.org/Graphics/SVG/1.1/DTD/svg11.dtd">
<svg width="100%" height="100%" viewBox="0 0 508 738" version="1.1" xmlns="http://www.w3.org/2000/svg" xmlns:xlink="http://www.w3.org/1999/xlink" xml:space="preserve" xmlns:serif="http://www.serif.com/" style="fill-rule:evenodd;clip-rule:evenodd;stroke-linejoin:round;stroke-miterlimit:2;">
    <path d="M0,483.292C0,410.985 53.348,236.945 53.348,201.341C53.348,90.218 143.566,-0 254.689,-0C365.812,-0 456.03,90.218 456.03,201.341C456.03,237.323 507.891,411.462 507.891,483.292C507.891,623.448 394.102,737.238 253.945,737.238C113.789,737.238 0,623.448 0,483.292Z" style="fill:rgb(227,44,7);"/>
    <clipPath id="_clip1">
        <path d="M0,483.292C0,410.985 53.348,236.945 53.348,201.341C53.348,90.218 143.566,-0 254.689,-0C365.812,-0 456.03,90.218 456.03,201.341C456.03,237.323 507.891,411.462 507.891,483.292C507.891,623.448 394.102,737.238 253.945,737.238C113.789,737.238 0,623.448 0,483.292Z"/>
    </clipPath>
    <g clip-path="url(#_clip1)">
        <path d="M4.453,530.841C141.599,529.554 252.566,457.624 254.637,368.693L254.805,368.693C256.867,457.292 367.016,529.017 503.442,530.824C481.161,648.296 377.858,737.238 253.945,737.238C130.033,737.238 26.73,648.296 4.453,530.841Z" style="fill:white;"/>
        <g>
            <path d="M115.579,150.961C157.316,146.397 196.375,131.255 228.221,87.623C255.107,127.513 325.585,169.655 396.139,144.339C406.338,165.006 412.069,188.267 412.069,212.856C412.069,298.502 342.535,368.036 256.889,368.036C171.243,368.036 101.709,298.502 101.709,212.856C101.709,190.254 106.552,168.774 115.254,149.401L115.579,150.961Z" style="fill:white;"/>
            <clipPath id="_clip2">
                <path d="M115.579,150.961C157.316,146.397 196.375,131.255 228.221,87.623C255.107,127.513 325.585,169.655 396.139,144.339C406.338,165.006 412.069,188.267 412.069,212.856C412.069,298.502 342.535,368.036 256.889,368.036C171.243,368.036 101.709,298.502 101.709,212.856C101.709,190.254 106.552,168.774 115.254,149.401L115.579,150.961Z"/>
            </clipPath>
            <g clip-path="url(#_clip2)">
                <g>
                    <path d="M254.941,305.8C267.04,305.8 289.925,297.44 291.238,301.207C299.576,325.109 259.456,327.608 255.132,327.808L255.126,327.823C255.126,327.823 255.063,327.821 254.941,327.816C254.82,327.821 254.756,327.823 254.756,327.823L254.751,327.808C250.426,327.608 210.307,325.109 218.644,301.207C219.958,297.44 242.842,305.8 254.941,305.8Z"/>
                    <g>
                        <circle cx="166.755" cy="265.778" r="23.631" style="fill:rgb(227,44,7);"/>
                        <circle cx="340.95" cy="265.778" r="23.631" style="fill:rgb(227,44,7);"/>
                    </g>
                    <g>
                        <path d="M133.809,228.604C166.905,208.463 199.206,209.458 230.825,228.604C218.498,179.88 148.525,178.351 133.809,228.604Z"/>
                        <path d="M277.809,228.604C310.905,208.463 343.206,209.458 374.825,228.604C362.498,179.88 292.525,178.351 277.809,228.604Z"/>
                    </g>
                </g>
            </g>
            <path d="M115.254,149.401C139.531,95.352 193.845,57.676 256.889,57.676C317.946,57.676 370.815,93.015 396.139,144.339C325.585,169.655 255.107,127.513 228.221,87.623C196.375,131.255 157.316,146.397 115.579,150.961L115.254,149.401Z" style="fill:rgb(92,92,92);"/>
        </g>
    </g>
</svg>
