<?xml version="1.0" encoding="UTF-8" standalone="no"?>
<!DOCTYPE svg PUBLIC "-//W3C//DTD SVG 1.1//EN" "http://www.w3.org/Graphics/SVG/1.1/DTD/svg11.dtd">
<svg width="100%" height="100%" viewBox="0 0 6558 6558" version="1.1" xmlns="http://www.w3.org/2000/svg" xmlns:xlink="http://www.w3.org/1999/xlink" xml:space="preserve" xmlns:serif="http://www.serif.com/" style="fill-rule:evenodd;clip-rule:evenodd;stroke-linejoin:round;stroke-miterlimit:2;">
    <g transform="matrix(2.69901,0,0,2.69901,-130.443,-71.1544)">
        <path d="M71.447,877.596C71.447,877.596 12.267,834.937 83.283,777.976L248.742,630.025C248.742,630.025 296.086,580.214 346.143,623.613L1873,1779.6L1873,2333.93C1873,2333.93 1872.26,2420.97 1760.55,2411.35L71.447,877.596Z" style="fill:rgb(36,137,202);fill-rule:nonzero;"/>
        <path d="M464.997,1234.9L71.447,1592.69C71.447,1592.69 31.007,1622.78 71.447,1676.53L254.167,1842.73C254.167,1842.73 297.566,1889.33 361.678,1836.32L778.899,1519.95L464.997,1234.9Z" style="fill:rgb(16,112,179);fill-rule:nonzero;"/>
        <path d="M1155.93,1237.86L1877.68,686.739L1873,135.375C1873,135.375 1842.17,15.042 1739.35,77.674L778.899,951.818L1155.93,1237.86Z" style="fill:rgb(8,119,185);fill-rule:nonzero;"/>
        <path d="M1760.55,2412.09C1802.47,2455 1853.27,2440.95 1853.27,2440.95L2415.73,2163.78C2487.73,2114.71 2477.62,2053.81 2477.62,2053.81L2477.62,398.728C2477.62,325.985 2403.16,300.834 2403.16,300.834L1915.66,65.838C1809.13,0 1739.35,77.674 1739.35,77.674C1739.35,77.674 1829.11,13.069 1873,135.375L1873,2323.82C1873,2338.86 1869.79,2353.65 1863.38,2366.97C1850.56,2392.86 1822.69,2417.03 1755.87,2406.92L1760.55,2412.09Z" style="fill:rgb(60,153,212);fill-rule:nonzero;"/>
    </g>
</svg>
