<?xml version="1.0" encoding="UTF-8" standalone="no"?>
<!DOCTYPE svg PUBLIC "-//W3C//DTD SVG 1.1//EN" "http://www.w3.org/Graphics/SVG/1.1/DTD/svg11.dtd">
<svg width="100%" height="100%" viewBox="0 0 6559 6559" version="1.1" xmlns="http://www.w3.org/2000/svg" xmlns:xlink="http://www.w3.org/1999/xlink" xml:space="preserve" xmlns:serif="http://www.serif.com/" style="fill-rule:evenodd;clip-rule:evenodd;stroke-linejoin:round;stroke-miterlimit:2;">
    <circle cx="3279.17" cy="3279.17" r="3279.17" style="fill:rgb(82,102,253);fill-opacity:0;"/>
    <g id="pIgksqbd7" transform="matrix(29.3167,0,0,29.5464,-477.348,-298.261)">
        <path d="M40.5,211.2C27.3,209.8 16.4,208.7 16.3,208.6C15.9,208.3 34.7,29 35.2,28.5C36.3,27.4 93.4,33.9 100.8,36C116.5,40.4 131.3,50 140.5,62L145.1,68L236,68L236,75.8L235.9,83.5L198,133.8C177.1,161.5 160,184.3 160,184.6C160,184.8 178,185 200,185L240,185L240,203L133,203L133,190.6L128.8,194.7C119.5,203.7 105.7,210.3 90.6,212.9C81.7,214.5 67.2,214 40.5,211.2ZM90.5,193.5C109.2,188.6 123.1,173.9 128.9,153C133.7,135.9 135.4,108.1 132.5,94.5C127.9,73.1 113.6,58.2 93,53.6C85.6,51.9 56.9,48.7 56.2,49.5C55.4,50.2 41.1,191.4 41.6,192C42.6,192.9 62.5,194.7 73.5,194.9C80.6,195 86.7,194.5 90.5,193.5ZM179.4,124.5L208,86.5L180.8,86.2C165.9,86.1 153.6,86.1 153.4,86.2C153.3,86.4 153.8,89.2 154.6,92.5C158.3,107.6 156.8,138.1 151.6,156.1C150.3,160.5 149.6,163.8 150.1,163.3C150.5,162.9 163.7,145.4 179.4,124.5Z" style="fill:rgb(255,221,87);fill-rule:nonzero;"/>
    </g>
</svg>
