<?xml version="1.0" encoding="UTF-8" standalone="no"?>
<!DOCTYPE svg PUBLIC "-//W3C//DTD SVG 1.1//EN" "http://www.w3.org/Graphics/SVG/1.1/DTD/svg11.dtd">
<svg width="100%" height="100%" viewBox="0 0 6559 6559" version="1.1" xmlns="http://www.w3.org/2000/svg" xmlns:xlink="http://www.w3.org/1999/xlink" xml:space="preserve" xmlns:serif="http://www.serif.com/" style="fill-rule:evenodd;clip-rule:evenodd;stroke-linecap:round;stroke-miterlimit:10;">
    <circle cx="3279.17" cy="3279.17" r="3279.17" style="fill:rgb(82,102,253);fill-opacity:0;"/>
    <g transform="matrix(17.4329,0,0,17.4329,-812.043,-1381.44)">
        <g>
            <g>
                <path d="M317.7,376.2C323.9,374.5 333.5,376.2 337.2,379.4C342.7,384.2 342.1,400.3 338.3,408.4C337.5,410.1 336.5,411.8 335.1,412.8C333.7,413.8 331.7,414 330.4,412.8C329.1,411.6 328.7,409.5 328.5,407.6C328.3,404.5 328.3,401.4 328.8,398.4C329,397.1 329,395.5 328.6,394.2C328,392 326.1,391.1 324.1,390.7C320.7,389.9 309.8,390 304.6,390C303.8,390 306.1,380.9 306.6,380.3C309.2,377.4 314.1,377.2 317.7,376.2Z" style="fill:rgb(221,203,162);fill-rule:nonzero;stroke:black;stroke-width:2px;"/>
                <path d="M258.9,119.7C255.9,118.8 252.9,117.9 249.9,117C245.3,115.6 240.7,114.2 235.9,114.5C233.1,114.7 229.8,115.8 229,118.5C228.4,120.5 227.4,125.8 227.7,126.4C229.2,129.8 241.6,133.1 246,133.1" style="fill:rgb(113,202,238);fill-rule:nonzero;stroke:black;stroke-width:2px;"/>
                <path d="M392.6,177.9C391.2,179.3 390.4,181.4 390.1,183.4C389.9,184.8 390,186.4 390.6,187.7C391.2,189 392.4,190 393.7,190.7C395,191.3 396.5,191.6 398,191.6C399.1,191.6 400.3,191.5 401.1,190.7C401.7,190 401.9,189.1 402,188.2C402.2,185.9 401.9,183.5 401.1,181.3C400.7,180.2 400.2,179 399.3,178.2C397.6,176.4 394.8,176 392.9,177.7C392.8,177.7 392.7,177.8 392.6,177.9Z" style="fill-rule:nonzero;"/>
                <path d="M358.5,164.2C357.5,163.2 358.5,161.5 359.5,160.5C365.3,155.3 374.6,155.9 381.3,159.9C392.2,166.5 396.9,179.8 398.5,192.4C399.1,197.6 399.4,203 398,208.1C396.6,213.2 393.4,218 388.7,220.2C387.6,220.7 386.4,221.1 385.3,220.7C384.2,220.3 383.4,218.9 384.1,217.9C374.7,204.3 365.1,191.1 363.2,174.7C362.7,170.6 361.4,167.3 358.5,164.2Z" style="fill:white;fill-rule:nonzero;stroke:black;stroke-width:2px;"/>
                <path d="M134.7,328.4C129.6,325.3 124.8,321.8 120.4,317.8C119.1,316.6 117.8,315.3 117.8,313.5C117.8,312.3 118.4,311.3 119,310.3C119.8,308.9 120.7,307.5 121.5,306.2C122.6,304.4 124.4,302.3 126.4,303C127.3,303.3 127.9,304.1 128.4,304.8C130.8,308.1 133.3,311.4 135.7,314.6C137.2,316.6 139.4,318.9 141.8,318.1" style="fill:rgb(113,202,238);fill-rule:nonzero;stroke:black;stroke-width:2px;"/>
                <path d="M209.6,133C242.8,115 287.4,113.4 321.1,124.3C345.4,132.2 364.5,151 374.4,174.3C383.1,194.9 384.9,217.9 382.5,240C378.1,280.2 362.3,317.9 342.2,352.6C331.1,371.6 320.4,388.6 301.7,401.1C264.9,425.7 214.5,423.2 173.3,412.6C153.4,407.5 133.6,395.3 126.1,375.3C121.3,362.5 121.9,347.7 127.6,335.3C139.2,310.5 170.8,296.9 173.2,267.4C173.9,258.7 171.6,250.1 169.6,241.7C164,218.3 160.7,195.9 171,173C179.1,155.3 192.9,142 209.6,133Z" style="fill:rgb(113,202,238);fill-rule:nonzero;stroke:black;stroke-width:2px;"/>
                <g>
                    <path d="M189.8,151.4C184.4,146.2 177.9,142.6 170.8,141.1C168.6,140.6 166.1,140.4 163.9,141.8C162.1,143 160.8,145.1 159.7,147.1C158.1,150.1 156.7,153.3 155.6,156.5C155.2,157.7 155,159 155.6,160C155.9,160.6 156.5,160.9 157.1,161.2C165.2,165.4 173.9,168.3 182.6,171" style="fill:rgb(113,202,238);fill-rule:nonzero;stroke:black;stroke-width:2px;"/>
                    <path d="M183.7,158.7C181.2,156.9 166.9,146.6 165,153.9C164.6,155.5 165.5,157.8 166.5,158.7" style="fill:rgb(113,202,238);fill-rule:nonzero;stroke:black;stroke-width:2px;"/>
                </g>
                <path d="M264.5,174.9C264,175.4 263.6,175.9 263.2,176.5C254.2,188.1 251.2,204.4 253.9,218.6C255.6,227.6 259.8,236.5 267.1,242C286.4,256.6 318.6,255.5 335.5,240.5C359.9,218.8 348.5,172.9 321.5,161.7C303.9,154.5 277.8,160.1 264.5,174.9Z" style="fill:white;fill-rule:nonzero;stroke:black;stroke-width:2px;"/>
                <g>
                    <path d="M382.1,237.1C383.5,237 385,237 386.4,237.2C386.7,237.2 387.1,237.3 387.4,237.6C387.6,237.9 387.8,238.3 387.9,238.7C388.9,242.6 388.4,246.9 388,251.1C387.9,252 387.8,252.9 387.4,253.7C386.4,255.8 384.3,256.4 382.7,256.4C382.6,256.4 382.5,256.4 382.4,256.3C382.1,256.1 382.1,255.6 382.2,255.1C382.5,249.2 382.1,243.2 382.1,237.1C382.1,237.2 382.1,237.2 382.1,237.1Z" style="fill:white;fill-rule:nonzero;stroke:black;stroke-width:2px;"/>
                    <path d="M378.7,236.8C377.3,237.2 376.2,238.8 375.9,241.2C375.4,245.6 375.2,250.1 375.4,254.6C375.4,255.5 375.5,256.5 375.9,257C376.1,257.3 376.4,257.4 376.7,257.4C378.3,257.7 380.8,256.8 382.3,256.4C382.3,256.4 382.3,251.2 382.2,248.4C382.1,245.6 382.1,242.3 382,239.5L382,237.3C382.1,236.6 379.4,236.6 378.7,236.8Z" style="fill:white;fill-rule:nonzero;stroke:black;stroke-width:2px;"/>
                </g>
                <path d="M358.3,231.8C358,234 358.4,236.5 360,239.2C362.6,243.6 367,245.3 371.9,245C380.8,244.4 397.2,239.6 399.4,229.3C400,226.3 399.1,223.2 397.2,220.8C391,213 379.4,215.1 371.6,218.8C365.7,221.5 359.2,225.8 358.3,231.8Z" style="fill:rgb(221,203,162);fill-rule:nonzero;stroke:black;stroke-width:2px;"/>
                <path d="M386.4,208.6C388.6,210 390.1,212.4 390.4,215.6C390.7,219.2 389,223.1 385.4,224.4C382.5,225.5 379.2,225 376.3,224C373.4,223 370.5,221.2 369.5,218.3C368.8,216.3 369.2,214 370.2,212.2C371.3,210.4 373,209 374.9,208.1C378.8,206.3 383.3,206.5 386.4,208.6Z" style="fill:rgb(136,142,147);fill-rule:nonzero;stroke:black;stroke-width:2px;"/>
                <path d="M414.7,262.6C417.1,263.2 419.5,264.7 420.3,267C421.1,269.3 420.4,271.9 418.7,273.7C417,275.5 414.5,276.2 412.1,276.2C411.3,276.2 410.4,276.1 409.7,275.7C407.2,274.6 406.2,271.7 405.5,269.1C403.7,262.3 409.1,261.3 414.7,262.6Z" style="fill:rgb(221,203,162);fill-rule:nonzero;stroke:black;stroke-width:2px;"/>
                <g>
                    <path d="M267.1,284.7C269.4,280.2 408.4,248.5 411.8,253.1C415.2,257.6 427.6,341.3 420.8,343.5C414,345.8 301,380.8 294.2,378.5C287.4,376.2 264.8,289.2 267.1,284.7Z" style="fill:rgb(240,240,240);fill-rule:nonzero;stroke:black;stroke-width:2px;"/>
                    <path d="M294.2,378.5C294.2,378.5 348.5,303.9 354.1,301.6C359.8,299.3 421.4,342.9 421.4,342.9" style="fill:none;fill-rule:nonzero;stroke:black;stroke-width:2px;"/>
                    <path d="M267,287.7C267,287.7 353,326.5 358.6,324.3C364.3,322 411.7,253.1 411.7,253.1" style="fill:rgb(240,240,240);fill-rule:nonzero;stroke:black;stroke-width:2px;"/>
                </g>
                <g>
                    <path d="M132.8,375.6C129.3,379.4 125.5,383.4 119.8,384.8C115.2,386 109.8,385 106.2,382.5C104.8,381.5 103.6,380.3 102.2,379.3C100.7,378.3 98.8,377.6 96.9,378C94.2,378.5 92.8,381.1 93.3,383.3C95.3,392.1 110.3,398.9 120.8,398.8C129.8,398.8 139.8,394.2 142.2,387" style="fill:url(#_Linear1);fill-rule:nonzero;"/>
                    <path d="M132.8,375.6C129.3,379.4 125.5,383.4 119.8,384.8C115.2,386 109.8,385 106.2,382.5C104.8,381.5 103.6,380.3 102.2,379.3C100.7,378.3 98.8,377.6 96.9,378C94.2,378.5 92.8,381.1 93.3,383.3C95.3,392.1 110.3,398.9 120.8,398.8C129.8,398.8 139.8,394.2 142.2,387" style="fill:none;fill-rule:nonzero;stroke:black;stroke-width:2px;"/>
                </g>
                <g>
                    <path d="M261.9,283.5C261.8,287.7 266.2,290.8 270.3,291.1C274.4,291.4 278.5,289.8 282.5,288.5C283.9,288.1 285.4,287.7 286.7,288.3C288.5,289.2 289.4,292.4 288.5,294.2C287.6,296 285.1,297.7 283.2,298.6C276.7,301.6 270.3,302.2 263.3,300.6C258,299.4 252,296.3 250.3,287.1" style="fill:url(#_Linear2);fill-rule:nonzero;"/>
                    <path d="M261.9,283.5C261.8,287.7 266.2,290.8 270.3,291.1C274.4,291.4 278.5,289.8 282.5,288.5C283.9,288.1 285.4,287.7 286.7,288.3C288.5,289.2 289.4,292.4 288.5,294.2C287.6,296 285.1,297.7 283.2,298.6C276.7,301.6 270.3,302.2 263.3,300.6C258,299.4 252,296.3 250.3,287.1" style="fill:none;fill-rule:nonzero;stroke:black;stroke-width:2px;"/>
                </g>
                <path d="M318.4,198.4C316.4,198.1 314.3,198.5 312.5,199.7C309.3,201.8 307.8,205.9 307.8,209.6C307.8,211.5 308.2,213.4 309.2,214.9C310.4,216.6 312.3,217.8 314.4,218.3C317.8,219.1 322.6,219 324.9,215.8C325.9,214.3 326.3,212.5 326.4,210.7C326.9,205 324.6,199.3 318.4,198.4Z" style="fill-rule:nonzero;"/>
                <path d="M320.4,203.3C321.3,203.6 322.1,204.1 322.5,205C322.9,205.8 322.9,206.7 322.8,207.5C322.7,208.5 322.2,209.5 321.3,210.2C320.6,210.7 319.6,210.9 318.7,210.7C317.8,210.5 317,209.9 316.5,209.1C315.4,207.5 315.6,204.7 317.4,203.6C318.3,203.2 319.4,203 320.4,203.3Z" style="fill:white;fill-rule:nonzero;"/>
                <g>
                    <path d="M81.6,222.4C81.6,222.4 138.1,290.8 205.5,264.8L212.1,235.1C150,272.2 82.8,214.3 82.8,214.3L81.6,222.4Z" style="fill:url(#_Linear3);fill-rule:nonzero;"/>
                    <path d="M64.2,234.9C64.2,234.9 127.3,336.4 222,313.8L236.2,275.3C146.7,313.6 67.3,224.3 67.3,224.3L64.2,234.9Z" style="fill:url(#_Linear4);fill-rule:nonzero;"/>
                    <path d="M46.6,251.5C46.6,251.5 107.7,382.4 224.6,369L247.2,324.8C134.2,357.8 51.9,239.1 51.9,239.1L46.6,251.5Z" style="fill:url(#_Linear5);fill-rule:nonzero;"/>
                </g>
            </g>
        </g>
    </g>
    <defs>
        <linearGradient id="_Linear1" x1="0" y1="0" x2="1" y2="0" gradientUnits="userSpaceOnUse" gradientTransform="matrix(-27.8604,23.3776,-23.3776,-27.8604,131.119,373.573)"><stop offset="0" style="stop-color:rgb(113,202,238);stop-opacity:1"/><stop offset="0.04" style="stop-color:rgb(131,202,226);stop-opacity:1"/><stop offset="0.12" style="stop-color:rgb(159,202,206);stop-opacity:1"/><stop offset="0.21" style="stop-color:rgb(182,203,190);stop-opacity:1"/><stop offset="0.31" style="stop-color:rgb(199,203,177);stop-opacity:1"/><stop offset="0.44" style="stop-color:rgb(212,203,168);stop-opacity:1"/><stop offset="0.61" style="stop-color:rgb(219,203,163);stop-opacity:1"/><stop offset="1" style="stop-color:rgb(221,203,162);stop-opacity:1"/></linearGradient>
        <linearGradient id="_Linear2" x1="0" y1="0" x2="1" y2="0" gradientUnits="userSpaceOnUse" gradientTransform="matrix(10.2675,22.0186,-22.0186,10.2675,265.033,280.295)"><stop offset="0" style="stop-color:rgb(113,202,238);stop-opacity:1"/><stop offset="0.04" style="stop-color:rgb(131,202,226);stop-opacity:1"/><stop offset="0.12" style="stop-color:rgb(159,202,206);stop-opacity:1"/><stop offset="0.21" style="stop-color:rgb(182,203,190);stop-opacity:1"/><stop offset="0.31" style="stop-color:rgb(199,203,177);stop-opacity:1"/><stop offset="0.44" style="stop-color:rgb(212,203,168);stop-opacity:1"/><stop offset="0.61" style="stop-color:rgb(219,203,163);stop-opacity:1"/><stop offset="1" style="stop-color:rgb(221,203,162);stop-opacity:1"/></linearGradient>
        <linearGradient id="_Linear3" x1="0" y1="0" x2="1" y2="0" gradientUnits="userSpaceOnUse" gradientTransform="matrix(128.284,-11.8909,11.8909,128.284,83.8681,246.808)"><stop offset="0" style="stop-color:rgb(51,51,51);stop-opacity:0"/><stop offset="0.48" style="stop-color:rgb(87,87,86);stop-opacity:0.2"/><stop offset="1" style="stop-color:rgb(51,51,51);stop-opacity:0"/><stop offset="1" style="stop-color:rgb(51,51,51);stop-opacity:0"/></linearGradient>
        <linearGradient id="_Linear4" x1="0" y1="0" x2="1" y2="0" gradientUnits="userSpaceOnUse" gradientTransform="matrix(173.383,7.22651,-7.22651,173.383,62.8449,267.897)"><stop offset="0" style="stop-color:rgb(51,51,51);stop-opacity:0"/><stop offset="0.48" style="stop-color:rgb(87,87,86);stop-opacity:0.2"/><stop offset="1" style="stop-color:rgb(51,51,51);stop-opacity:0"/><stop offset="1" style="stop-color:rgb(51,51,51);stop-opacity:0"/></linearGradient>
        <linearGradient id="_Linear5" x1="0" y1="0" x2="1" y2="0" gradientUnits="userSpaceOnUse" gradientTransform="matrix(207.03,33.7742,-33.7742,207.03,40.1672,290.87)"><stop offset="0" style="stop-color:rgb(51,51,51);stop-opacity:0"/><stop offset="0.48" style="stop-color:rgb(87,87,86);stop-opacity:0.2"/><stop offset="1" style="stop-color:rgb(51,51,51);stop-opacity:0"/><stop offset="1" style="stop-color:rgb(51,51,51);stop-opacity:0"/></linearGradient>
    </defs>
</svg>
