<?xml version="1.0" encoding="UTF-8" standalone="no"?>
<!DOCTYPE svg PUBLIC "-//W3C//DTD SVG 1.1//EN" "http://www.w3.org/Graphics/SVG/1.1/DTD/svg11.dtd">
<svg width="100%" height="100%" viewBox="0 0 6559 6559" version="1.1" xmlns="http://www.w3.org/2000/svg" xmlns:xlink="http://www.w3.org/1999/xlink" xml:space="preserve" xmlns:serif="http://www.serif.com/" style="fill-rule:evenodd;clip-rule:evenodd;stroke-linejoin:round;stroke-miterlimit:2;">
    <circle cx="3279.17" cy="3279.17" r="3279.17" style="fill:rgb(82,102,253);fill-opacity:0;"/>
    <g id="pO0GB29Rh" transform="matrix(23.6589,0,0,23.6589,251.165,245.003)">
        <path d="M12,253.5C12,252.3 15.1,206.9 19,152.5C22.8,98 26,52.3 26,50.8C26,48.3 27,47.5 35.3,43.4C51.7,35.1 65.4,30 84.7,25L88.9,23.9L89.5,6.5L98.5,4.1C112.1,0.5 135.6,0 150.8,2.9C167.9,6.2 166.9,5.4 167.2,15.6L167.5,24.3L176,26.6C189.5,30.2 201.5,34.7 215.8,41.5C228.1,47.4 229,48.1 229,50.7C229,52.2 232.4,98 236.5,152.5C240.6,207 244,252.4 244,253.5C244,255.4 243.3,255.5 226.1,255.5L208.2,255.5L207.6,244.5C207.3,238.5 206.8,227 206.4,219C205.5,195.4 202.2,163.6 198.9,146C197.2,137 197.2,137 193.4,137L190,137L190,183L187.3,183.6C185.9,184 180.1,185.3 174.6,186.4L164.5,188.6L164.2,193.8C164,196.7 164.3,199 164.8,199C165.7,199 183,195.6 187.8,194.5L190,194L190,224.7L181.3,228.8C167,235.5 154.7,239 139.8,240.5L133,241.2L133,18L137.3,18C142.8,18 153.1,15.3 155,13.5C156.2,12.2 156.2,11.8 155,10.6C152,7.8 146.1,6.7 131.6,6.2C115.1,5.7 104.4,7 100.7,10C98.7,11.7 98.6,12 100.1,13.5C102.1,15.5 111.8,18 117.7,18L122,18L122.2,129.6L122.5,241.2L117,240.5C102.3,238.8 86.2,234.2 72.8,228.1L66,225L66,194.3L77.3,196.6C83.4,197.9 89.1,198.9 89.8,199C90.7,199 91,197.6 90.8,193.8L90.5,188.6L78.5,186L66.5,183.5L66.2,160.2L66,137L58.1,137L57.1,142.3C52.9,163.2 49.3,200.7 48.3,232.7L47.7,254.9L29.8,255.2C12.5,255.5 12,255.4 12,253.5Z" style="fill-rule:nonzero;"/>
        <path d="M61.81,141.227L61.973,160.236C61.973,160.242 61.974,160.248 61.974,160.254L62.274,183.554C62.299,185.536 63.698,187.234 65.638,187.638L77.621,190.134C77.621,190.134 86.465,192.051 86.465,192.051C86.465,192.051 86.58,194.032 86.58,194.032L86.584,194.139C84.322,193.718 81.305,193.132 78.181,192.466C78.168,192.463 78.156,192.461 78.143,192.458L66.843,190.158C65.6,189.905 64.308,190.224 63.326,191.027C62.343,191.829 61.773,193.031 61.773,194.3L61.773,225C61.773,226.656 62.74,228.159 64.247,228.846L71.047,231.946C71.047,231.946 71.048,231.947 71.049,231.947C84.825,238.218 101.376,242.945 116.491,244.696C116.49,244.696 121.966,245.393 121.966,245.393C123.173,245.546 124.387,245.173 125.298,244.368C126.209,243.563 126.73,242.405 126.727,241.189L126.427,129.591C126.427,129.591 126.227,17.992 126.227,17.992C126.223,15.661 124.331,13.773 122,13.773L117.7,13.773C114.514,13.773 110.101,12.94 106.689,11.904L106.676,11.9C107.419,11.714 108.251,11.546 109.165,11.384C114.423,10.446 121.939,10.136 131.463,10.425C138.421,10.665 143.317,11.032 146.833,11.692C147.23,11.766 147.605,11.842 147.959,11.921C144.497,12.933 140.174,13.773 137.3,13.773C137.3,13.773 133,13.773 133,13.773C130.666,13.773 128.773,15.666 128.773,18L128.773,241.2C128.773,242.396 129.28,243.537 130.168,244.338C131.057,245.14 132.243,245.527 133.433,245.405C133.433,245.405 140.034,244.725 140.228,244.705C155.617,243.155 168.324,239.548 183.093,232.627C183.096,232.626 183.099,232.625 183.102,232.623L191.802,228.523C193.282,227.826 194.227,226.336 194.227,224.7L194.227,194C194.227,192.714 193.642,191.499 192.637,190.697C191.632,189.895 190.317,189.593 189.063,189.878L186.863,190.378C186.861,190.379 186.858,190.379 186.856,190.38C183.498,191.15 173.774,193.132 168.414,194.148L168.417,194.091C168.418,194.075 168.419,194.059 168.42,194.043L168.535,192.047C168.535,192.047 174.933,190.653 175.465,190.538C180.936,189.443 186.687,188.15 188.326,187.702C188.326,187.702 190.917,187.126 190.917,187.126C192.851,186.696 194.227,184.981 194.227,183L194.227,144.199C194.394,144.984 194.571,145.855 194.746,146.782C198.018,164.233 201.284,195.762 202.176,219.161C202.177,219.178 202.178,219.194 202.179,219.211C202.579,227.211 203.079,238.711 203.379,244.711C203.379,244.717 203.379,244.724 203.38,244.73L203.98,255.73C204.102,257.972 205.955,259.727 208.2,259.727L226.1,259.727C237.029,259.727 241.665,259.603 243.628,259.138C245.655,258.657 246.603,257.751 247.202,256.931C247.882,256.001 248.227,254.916 248.227,253.5C248.227,252.397 244.828,206.854 240.715,152.183C236.628,97.852 233.227,52.195 233.227,50.7C233.227,49.289 233.005,48.157 232.404,47.021C231.894,46.056 231.066,45.019 229.441,43.878C227.582,42.573 224.116,40.801 217.628,37.689C217.624,37.687 217.619,37.685 217.615,37.683C203.058,30.76 190.839,26.183 177.097,22.518C177.097,22.518 171.617,21.035 171.617,21.035C171.617,21.035 171.425,15.465 171.425,15.465C171.272,10.283 171.017,7.387 169.816,5.448C168.821,3.842 167.302,2.555 164.533,1.585C162.047,0.715 158.058,-0.004 151.601,-1.25C151.598,-1.251 151.595,-1.251 151.592,-1.252C135.847,-4.256 111.506,-3.715 97.418,0.014C97.416,0.015 97.413,0.015 97.411,0.016L88.411,2.416C86.613,2.895 85.34,4.495 85.276,6.354L84.784,20.609C84.784,20.609 83.634,20.91 83.634,20.91C64.012,25.993 50.082,31.183 33.41,39.619C28.851,41.872 26.321,43.266 24.905,44.393C22.252,46.506 21.773,48.224 21.773,50.8C21.773,52.296 18.573,97.861 14.784,152.202C10.872,206.762 7.773,252.296 7.773,253.5C7.773,254.879 8.092,255.937 8.71,256.834C9.305,257.696 10.248,258.65 12.346,259.127C14.261,259.563 18.857,259.617 29.872,259.426C29.872,259.426 47.771,259.126 47.771,259.126C50.033,259.088 51.864,257.276 51.925,255.014L52.525,232.823C53.518,201.074 57.077,163.869 61.244,143.133C61.247,143.116 61.25,143.1 61.253,143.084L61.604,141.227L61.81,141.227ZM12,253.5C12,252.3 15.1,206.9 19,152.5C22.8,98 26,52.3 26,50.8C26,48.3 27,47.5 35.3,43.4C51.7,35.1 65.4,30 84.7,25L88.9,23.9L89.5,6.5L98.5,4.1C112.1,0.5 135.6,0 150.8,2.9C167.9,6.2 166.9,5.4 167.2,15.6L167.5,24.3L176,26.6C189.5,30.2 201.5,34.7 215.8,41.5C228.1,47.4 229,48.1 229,50.7C229,52.2 232.4,98 236.5,152.5C240.6,207 244,252.4 244,253.5C244,255.4 243.3,255.5 226.1,255.5L208.2,255.5L207.6,244.5C207.3,238.5 206.8,227 206.4,219C205.5,195.4 202.2,163.6 198.9,146C197.2,137 197.2,137 193.4,137L190,137L190,183L187.3,183.6C185.9,184 180.1,185.3 174.6,186.4L164.5,188.6L164.2,193.8C164,196.7 164.3,199 164.8,199C165.7,199 183,195.6 187.8,194.5L190,194L190,224.7L181.3,228.8C167,235.5 154.7,239 139.8,240.5L133,241.2L133,18L137.3,18C142.8,18 153.1,15.3 155,13.5C156.2,12.2 156.2,11.8 155,10.6C152,7.8 146.1,6.7 131.6,6.2C115.1,5.7 104.4,7 100.7,10C98.7,11.7 98.6,12 100.1,13.5C102.1,15.5 111.8,18 117.7,18L122,18L122.2,129.6L122.5,241.2L117,240.5C102.3,238.8 86.2,234.2 72.8,228.1L66,225L66,194.3L77.3,196.6C83.4,197.9 89.1,198.9 89.8,199C90.7,199 91,197.6 90.8,193.8L90.5,188.6L78.5,186L66.5,183.5L66.2,160.2L66,137L58.1,137L57.1,142.3C52.9,163.2 49.3,200.7 48.3,232.7L47.7,254.9L29.8,255.2C12.5,255.5 12,255.4 12,253.5Z" style="fill:white;"/>
    </g>
</svg>
