<?xml version="1.0" encoding="UTF-8" standalone="no"?>
<!DOCTYPE svg PUBLIC "-//W3C//DTD SVG 1.1//EN" "http://www.w3.org/Graphics/SVG/1.1/DTD/svg11.dtd">
<svg width="100%" height="100%" viewBox="0 0 6558 6558" version="1.1" xmlns="http://www.w3.org/2000/svg" xmlns:xlink="http://www.w3.org/1999/xlink" xml:space="preserve" xmlns:serif="http://www.serif.com/" style="fill-rule:evenodd;clip-rule:evenodd;stroke-linejoin:round;stroke-miterlimit:1.5;">
    <g transform="matrix(1,0,0,1,-1.16229,3.63798e-12)">
        <g transform="matrix(17.2125,0,0,17.2125,-19354,-21240.7)">
            <circle cx="1314.98" cy="1424.52" r="190.496" style="fill:rgb(88,86,224);"/>
            <clipPath id="_clip1">
                <circle cx="1314.98" cy="1424.52" r="190.496"/>
            </clipPath>
            <g clip-path="url(#_clip1)">
                <g transform="matrix(0.846917,0,0,0.846917,209.882,216.19)">
                    <g transform="matrix(0.707351,0.706862,-0.706862,0.707351,1331.93,-512.804)">
                        <path d="M1244.39,1293.95L1244.39,1493.59C1244.39,1493.59 1243.58,1561.48 1319.29,1562.47C1395.27,1563.46 1394.17,1493.59 1394.17,1493.59L1394.17,1293.95" style="fill:none;stroke:white;stroke-width:31.25px;"/>
                    </g>
                    <g transform="matrix(-0.710067,-0.704134,0.704134,-0.710067,1284.12,3366.41)">
                        <path d="M1244.39,1293.95L1244.39,1493.59C1244.39,1493.59 1243.58,1561.48 1319.29,1562.47C1395.27,1563.46 1394.17,1493.59 1394.17,1493.59L1394.17,1293.95" style="fill:none;stroke:white;stroke-width:31.25px;"/>
                    </g>
                </g>
            </g>
        </g>
    </g>
</svg>
