<?xml version="1.0" encoding="UTF-8" standalone="no"?>
<!DOCTYPE svg PUBLIC "-//W3C//DTD SVG 1.1//EN" "http://www.w3.org/Graphics/SVG/1.1/DTD/svg11.dtd">
<svg width="100%" height="100%" viewBox="0 0 6559 6559" version="1.1" xmlns="http://www.w3.org/2000/svg" xmlns:xlink="http://www.w3.org/1999/xlink" xml:space="preserve" xmlns:serif="http://www.serif.com/" style="fill-rule:evenodd;clip-rule:evenodd;stroke-linejoin:round;stroke-miterlimit:2;">
    <g transform="matrix(30.7689,0,0,30.7689,-50687.2,-34878.8)">
        <g id="l4rEQWgs5d8mE77meKvpUZJ" transform="matrix(0.355698,0,0,0.355698,1661.28,1133.32)">
            <g>
                <path id="piwylpkJs" d="M444.8,430.9L434,424.8L434,399.2L444.6,393.1C450.4,389.7 455.5,387 455.8,387C456.2,387 461.3,389.8 467.2,393.2L478,399.3L478,424.6L467.1,430.8C461.1,434.2 456.1,437 455.9,437C455.7,437 450.7,434.2 444.8,430.9Z" style="fill:rgb(85,34,99);fill-rule:nonzero;"/>
            </g>
        </g>
        <g id="l2QhYCUcwtQN0N1eo3QVKM1" transform="matrix(0.355698,0,0,0.355698,1661.28,1133.32)">
            <g>
                <path id="p4ufXadFA" d="M259.5,599.1L258.9,598L260.3,595.6L261.1,597.6L261.8,599.5L262.2,579.9L262.5,560.3L260.3,560.3L261.3,564.3L260.2,563.6L259,562.9L259,558.3L275,549.1L291,540L297.1,540L312.9,549.1L328.7,558.3L328.7,560.9L327.8,560.4L327,559.9L327,561.7L294.3,580.6C276.4,591 261.3,599.6 260.9,599.8C260.5,600 259.9,599.6 259.5,599.1ZM326,560.6C326,560.4 325.3,559.9 324.4,559.6L322.9,559L323.5,560C324.1,561 326,561.4 326,560.6ZM270,556.4C270,556.2 268.7,556.6 267,557.5C265.4,558.4 264,559.3 264,559.6C264,559.8 265.4,559.4 267,558.5C268.7,557.6 270,556.7 270,556.4ZM322,558.5C322,558.3 320.7,557.4 319,556.5C315.2,554.6 315,555.4 318.8,557.4C321.9,559.1 322,559.2 322,558.5ZM277,552.4C277,552.2 275.7,552.6 274,553.5C272.4,554.4 271,555.3 271,555.6C271,555.8 272.4,555.4 274,554.5C275.7,553.6 277,552.7 277,552.4ZM315,554.5C315,554.3 313.7,553.4 312,552.5C308.2,550.6 308,551.4 311.8,553.4C314.9,555.1 315,555.2 315,554.5ZM284,548.4C284,548.2 282.7,548.6 281,549.5C279.4,550.4 278,551.3 278,551.6C278,551.8 279.4,551.4 281,550.5C282.7,549.6 284,548.7 284,548.4ZM308,550.5C308,550.3 307,549.6 305.8,549L303.5,547.9L305.4,549.4C307.5,551.1 308,551.3 308,550.5ZM291,544.4C291,544.2 289.7,544.6 288,545.5C286.4,546.4 285,547.3 285,547.6C285,547.8 286.4,547.4 288,546.5C289.7,545.6 291,544.7 291,544.4ZM303,547.5C303,547.2 302.8,547 302.5,547C302.2,547 302,547.2 302,547.5C302,547.8 302.2,548 302.5,548C302.8,548 303,547.8 303,547.5ZM301,546.5C301,546.3 300,545.6 298.8,545L296.5,543.9L298.4,545.4C300.5,547.1 301,547.3 301,546.5ZM296,543.6L294,541.6L292,543.6L296,543.6Z" style="fill:rgb(115,32,106);fill-rule:nonzero;"/>
            </g>
        </g>
        <g id="l78lYcwzuERPNNnWkIU9jVG" transform="matrix(0.355698,0,0,0.355698,1661.28,1133.32)">
            <g>
                <path id="p1DI9Q3yCa" d="M180.2,498.3L179,497.8L179.5,496.9L180.1,496L177.1,497.2L168.8,493.2C158.3,488.3 146.7,481.4 136.8,474.2L129,468.7L129,448.4L130.2,446.8C130.9,446 138.1,441.4 146.2,436.6L160.9,428L167.4,428L198.8,446.2L198.8,451L197.9,451.6L197,452.1L197,449.1L194.8,448L192.5,446.9L194.3,448.3L196,449.7L196,486.3L194.3,487.7L192.5,489.1L194.8,488L197,486.9L197,483.9L197.9,484.4L198.8,485L198.8,489.7L190.8,494.4C182.7,499.1 182.4,499.2 180.2,498.3ZM187,492.4C187,492.2 185.7,492.6 184,493.5C182.4,494.4 181,495.3 181,495.6C181,495.8 182.4,495.4 184,494.5C185.7,493.6 187,492.7 187,492.4ZM192,489.4C192,489.2 191.1,489.4 190,490C188.9,490.6 188,491.3 188,491.6C188,491.8 188.9,491.6 190,491C191.1,490.4 192,489.7 192,489.4ZM133.4,449.2L133.9,448.4L130.1,448.4L130.6,449.2C130.9,449.6 131.5,450 132,450C132.5,450 133.1,449.6 133.4,449.2ZM139,445.4C139,445.2 138.1,445.4 137,446C135.9,446.6 135,447.3 135,447.6C135,447.8 135.9,447.6 137,447C138.1,446.4 139,445.7 139,445.4ZM192,446.5C192,446.3 191,445.6 189.8,445L187.5,443.9L189.4,445.4C191.5,447.1 192,447.3 192,446.5ZM144,442.4C144,442.2 143.1,442.4 142,443C140.9,443.6 140,444.3 140,444.6C140,444.8 140.9,444.6 142,444C143.1,443.4 144,442.7 144,442.4ZM187,443.5C187,443.3 185.7,442.4 184,441.5C180.2,439.6 180,440.4 183.8,442.4C186.9,444.1 187,444.2 187,443.5ZM146,441.5C146,441.2 145.8,441 145.5,441C145.2,441 145,441.2 145,441.5C145,441.8 145.2,442 145.5,442C145.8,442 146,441.8 146,441.5ZM151,438.4C151,438.2 150.1,438.4 149,439C147.9,439.6 147,440.3 147,440.6C147,440.8 147.9,440.6 149,440C150.1,439.4 151,438.7 151,438.4ZM180,439.5C180,439.3 179,438.6 177.8,438L175.5,436.9L177.4,438.4C179.5,440.1 180,440.3 180,439.5ZM156,435.4C156,435.2 155.1,435.4 154,436C152.9,436.6 152,437.3 152,437.6C152,437.8 152.9,437.6 154,437C155.1,436.4 156,435.7 156,435.4ZM175,436.5C175,436.2 174.8,436 174.5,436C174.2,436 174,436.2 174,436.5C174,436.8 174.2,437 174.5,437C174.8,437 175,436.8 175,436.5ZM173,435.5C173,435.3 172,434.6 170.8,434L168.5,432.9L170.4,434.4C172.5,436.1 173,436.3 173,435.5ZM161,432.4C161,432.2 160.1,432.4 159,433C157.9,433.6 157,434.3 157,434.6C157,434.8 157.9,434.6 159,434C160.1,433.4 161,432.7 161,432.4ZM168,432.5C168,432.3 167,431.6 165.8,431L163.5,429.9L165.4,431.4C167.5,433.1 168,433.3 168,432.5ZM163,431.5C163,431.2 162.8,431 162.5,431C162.2,431 162,431.2 162,431.5C162,431.8 162.2,432 162.5,432C162.8,432 163,431.8 163,431.5Z" style="fill:rgb(191,32,37);fill-rule:nonzero;"/>
                <path id="pEPPOrq7I" d="M325.5,185.4C307.9,175.3 293.4,166.7 293.3,166.3L293,165.5L308.1,156.7L323.3,148L329,148L345,157.1L361,166.3L361,167.1C361,167.9 359.7,168.3 358,168.2C357.7,168.2 357.6,173.4 357.8,179.8C358,186.2 358,194.3 357.8,197.7L357.5,203.8L325.5,185.4ZM299.6,166.4L301.5,164.9L299,166.1C295.9,167.5 295.4,168 296.6,168C297.2,168 298.5,167.3 299.6,166.4ZM356,167.5C356,167.3 354.7,166.4 353,165.5C349.2,163.6 349,164.4 352.8,166.4C355.9,168.1 356,168.2 356,167.5ZM306,162.4C306,162.2 305.1,162.4 304,163C302.9,163.6 302,164.3 302,164.6C302,164.8 302.9,164.6 304,164C305.1,163.4 306,162.7 306,162.4ZM349,163.5C349,163.3 347.7,162.4 346,161.5C342.2,159.6 342,160.4 345.8,162.4C348.9,164.1 349,164.2 349,163.5ZM308,161.5C308,161.2 307.8,161 307.5,161C307.2,161 307,161.2 307,161.5C307,161.8 307.2,162 307.5,162C307.8,162 308,161.8 308,161.5ZM313,158.4C313,158.2 312.1,158.4 311,159C309.9,159.6 309,160.3 309,160.6C309,160.8 309.9,160.6 311,160C312.1,159.4 313,158.7 313,158.4ZM342,159.5C342,159.3 340.7,158.4 339,157.5C335.2,155.6 335,156.4 338.8,158.4C341.9,160.1 342,160.2 342,159.5ZM320,154.4C320,154.2 318.7,154.6 317,155.5C315.4,156.4 314,157.3 314,157.6C314,157.8 315.4,157.4 317,156.5C318.7,155.6 320,154.7 320,154.4ZM335,155.5C335,155.3 333.7,154.4 332,153.5C328.2,151.6 328,152.4 331.8,154.4C334.9,156.1 335,156.2 335,155.5ZM325,151.4C325,151.2 324.1,151.4 323,152C321.9,152.6 321,153.3 321,153.6C321,153.8 321.9,153.6 323,153C324.1,152.4 325,151.7 325,151.4ZM328,151.6C328,151.3 327.5,150.8 326.8,150.4L325.7,149.7L326.4,150.8C327.1,152 328,152.4 328,151.6Z" style="fill:rgb(191,32,37);fill-rule:nonzero;"/>
                <path id="pL4w1hSZw" d="M359,172.1L359,169L360,169C360.6,169 361,169.4 361,169.9C361,170.5 360.6,171.2 360,171.5L359,172.1Z" style="fill:rgb(191,32,37);fill-rule:nonzero;"/>
            </g>
        </g>
        <g id="l19OlrhC4ZFekVVVTVQSkZ5" transform="matrix(0.355698,0,0,0.355698,1661.28,1133.32)">
            <g>
                <path id="pQG9ONMkw" d="M409.5,501.9L399.5,496L399.1,494.4L398.8,492.7L401,493.3L403.1,493.8L401.1,491.4L408.3,485.7C418.2,477.8 423,473.5 423,472.4L423,471.5L412.9,465.9L402.7,460.2L395.8,465.6C391.9,468.6 388.6,471 388.4,471C388.2,471 388,465.5 388,458.8L388.1,446.5L400.9,439.3L413.8,432L417,432L417,432.9C417,433.4 416,434.5 414.8,435.4L412.5,437.1L417.1,434.9L436.3,446L455.6,457.1L457.3,456.4L459.1,455.8L458.8,471.1L458.5,486.5L454.9,486.5L454.1,487.8C453.6,488.6 453,489.1 452.6,489.1C452.3,489 451.5,489 450.9,489L449.9,489L451.1,491L449.6,490.4L448,489.8L446.8,493L445.9,492.5L445.1,491.9L443,494C441.9,495.1 440.8,496 440.5,496L437.9,496L439.1,498L437.6,497.4L436,496.8L434.8,500L433.9,499.5L433.1,498.9L429.2,502.8L428.6,502.3L428,501.7L428,504.1L427.1,503.5L426.1,503L423.4,505.5C421.9,506.9 420.4,508 420.1,507.9C419.8,507.9 415,505.2 409.5,501.9ZM422,504.5C422,504.3 421,503.6 419.8,503L417.5,501.9L419.4,503.4C421.5,505.1 422,505.3 422,504.5ZM417,501.5C417,501.2 416.8,501 416.5,501C416.2,501 416,501.2 416,501.5C416,501.8 416.2,502 416.5,502C416.8,502 417,501.8 417,501.5ZM415,500.5C415,500.3 414,499.6 412.8,499L410.5,497.9L412.4,499.4C414.5,501.1 415,501.3 415,500.5ZM410,497.5C410,497.3 408.7,496.4 407,495.5C403.2,493.6 403,494.4 406.8,496.4C409.9,498.1 410,498.2 410,497.5ZM391,449.6C391,449.3 390.5,448.8 389.8,448.4L388.7,447.7L389.4,448.8C390.1,450 391,450.4 391,449.6ZM393,448.5C393,448.2 392.8,448 392.5,448C392.2,448 392,448.2 392,448.5C392,448.8 392.2,449 392.5,449C392.8,449 393,448.8 393,448.5ZM398,445.4C398,445.2 397.1,445.4 396,446C394.9,446.6 394,447.3 394,447.6C394,447.8 394.9,447.6 396,447C397.1,446.4 398,445.7 398,445.4ZM400,444.5C400,444.2 399.8,444 399.5,444C399.2,444 399,444.2 399,444.5C399,444.8 399.2,445 399.5,445C399.8,445 400,444.8 400,444.5ZM405,441.4C405,441.2 404.1,441.4 403,442C401.9,442.6 401,443.3 401,443.6C401,443.8 401.9,443.6 403,443C404.1,442.4 405,441.7 405,441.4ZM412,437.4C412,437.2 410.7,437.6 409,438.5C407.4,439.4 406,440.3 406,440.6C406,440.8 407.4,440.4 409,439.5C410.7,438.6 412,437.7 412,437.4Z" style="fill:rgb(108,41,123);fill-rule:nonzero;"/>
                <path id="p9Xy8Ct6c" d="M455,487.5C455,487.2 455.2,487 455.5,487C455.8,487 456,487.2 456,487.5C456,487.8 455.8,488 455.5,488C455.2,488 455,487.8 455,487.5Z" style="fill:rgb(108,41,123);fill-rule:nonzero;"/>
                <path id="pWeXOQU5p" d="M515.5,338.9L495.9,327.5L496.4,325.5C496.6,324.4 497.1,317.2 497.5,309.5L498.1,295.5L497.2,286.2L496.4,276.8L499.2,275.4C500.7,274.6 502,273.7 502,273.4C502,273.2 500.7,273.6 499,274.5L496,276.1L496,272.4L506.2,266.7L516.3,261L520,261L520,339L517.7,338.9L515.5,338.9ZM518,335.5C518,335.2 517.8,335 517.5,335C517.2,335 517,335.2 517,335.5C517,335.8 517.2,336 517.5,336C517.8,336 518,335.8 518,335.5ZM516,334.5C516,334.3 515,333.6 513.8,333L511.5,331.9L513.4,333.4C515.5,335.1 516,335.3 516,334.5ZM511,331.5C511,331.2 510.8,331 510.5,331C510.2,331 510,331.2 510,331.5C510,331.8 510.2,332 510.5,332C510.8,332 511,331.8 511,331.5ZM509,330.5C509,330.3 508,329.6 506.8,329L504.5,327.9L506.4,329.4C508.5,331.1 509,331.3 509,330.5ZM504,327.5C504,327.2 503.8,327 503.5,327C503.2,327 503,327.2 503,327.5C503,327.8 503.2,328 503.5,328C503.8,328 504,327.8 504,327.5ZM502,326.5C502,326.3 501,325.6 499.8,325L497.5,323.9L499.4,325.4C501.5,327.1 502,327.3 502,326.5ZM509,269.4C509,269.2 507.7,269.6 506,270.5C504.4,271.4 503,272.3 503,272.6C503,272.8 504.4,272.4 506,271.5C507.7,270.6 509,269.7 509,269.4ZM511,268.5C511,268.2 510.8,268 510.5,268C510.2,268 510,268.2 510,268.5C510,268.8 510.2,269 510.5,269C510.8,269 511,268.8 511,268.5ZM516,265.4C516,265.2 515.1,265.4 514,266C512.9,266.6 512,267.3 512,267.6C512,267.8 512.9,267.6 514,267C515.1,266.4 516,265.7 516,265.4ZM518,264.5C518,264.2 517.8,264 517.5,264C517.2,264 517,264.2 517,264.5C517,264.8 517.2,265 517.5,265C517.8,265 518,264.8 518,264.5Z" style="fill:rgb(108,41,123);fill-rule:nonzero;"/>
            </g>
        </g>
        <g id="l66cHIPk81fWhAZTpRPZTfQ" transform="matrix(0.355698,0,0,0.355698,1661.28,1133.32)">
            <g>
                <path id="pROVmoEpM" d="M393,227L393,224L393.8,224C394.3,224 395.5,223.3 396.6,222.5L398.5,220.9L395.3,222.5L392,224L375.5,214.4L359,204.7L359,169.7L360.7,168.3L362.5,166.9L360.4,167.9L358.4,168.9L357,168C356.2,167.5 355.8,166.9 356,166.7C356.3,166.4 363.6,162.1 372.2,157.1L387.9,148L393.8,148L426,166.4L426,170.9L424.8,171.6L423.7,172.3L424.3,170.1L424.9,167.8L424.3,168.4L423.7,168.9L419.5,166.9L421.3,168.3L423,169.7L423,206.3L421.3,207.7L419.5,209.1L421.6,208.1L423.6,207.1L425.1,208.1L426.5,209L425,210C420.3,213.1 395.2,227 394.2,227L393,227ZM405,217.4C405,217.2 403.7,217.6 402,218.5C400.4,219.4 399,220.3 399,220.6C399,220.8 400.4,220.4 402,219.5C403.7,218.6 405,217.7 405,217.4ZM412,213.4C412,213.2 410.7,213.6 409,214.5C407.4,215.4 406,216.3 406,216.6C406,216.8 407.4,216.4 409,215.5C410.7,214.6 412,213.7 412,213.4ZM417,210.4C417,210.2 416.1,210.4 415,211C413.9,211.6 413,212.3 413,212.6C413,212.8 413.9,212.6 415,212C416.1,211.4 417,210.7 417,210.4ZM419,209.5C419,209.2 418.8,209 418.5,209C418.2,209 418,209.2 418,209.5C418,209.8 418.2,210 418.5,210C418.8,210 419,209.8 419,209.5ZM369,163.4C369,163.2 367.7,163.6 366,164.5C364.4,165.4 363,166.3 363,166.6C363,166.8 364.4,166.4 366,165.5C367.7,164.6 369,163.7 369,163.4ZM419,166.5C419,166.3 417.7,165.4 416,164.5C412.2,162.6 412,163.4 415.8,165.4C418.9,167.1 419,167.2 419,166.5ZM376,159.4C376,159.2 374.7,159.6 373,160.5C371.4,161.4 370,162.3 370,162.6C370,162.8 371.4,162.4 373,161.5C374.7,160.6 376,159.7 376,159.4ZM412,162.5C412,162.3 410.7,161.4 409,160.5C405.2,158.6 405,159.4 408.8,161.4C411.9,163.1 412,163.2 412,162.5ZM381,156.4C381,156.2 380.1,156.4 379,157C377.9,157.6 377,158.3 377,158.6C377,158.8 377.9,158.6 379,158C380.1,157.4 381,156.7 381,156.4ZM405,158.5C405,158.3 403.7,157.4 402,156.5C398.2,154.6 398,155.4 401.8,157.4C404.9,159.1 405,159.2 405,158.5ZM383,155.5C383,155.2 382.8,155 382.5,155C382.2,155 382,155.2 382,155.5C382,155.8 382.2,156 382.5,156C382.8,156 383,155.8 383,155.5ZM388,152.4C388,152.2 387.1,152.4 386,153C384.9,153.6 384,154.3 384,154.6C384,154.8 384.9,154.6 386,154C387.1,153.4 388,152.7 388,152.4ZM398,154.5C398,154.3 396.7,153.4 395,152.5C391.2,150.6 391,151.4 394.8,153.4C397.9,155.1 398,155.2 398,154.5ZM390.5,151C390.8,150.5 390.9,150 390.6,150C390.3,150 389.8,150.5 389.5,151C389.2,151.6 389.1,152 389.4,152C389.7,152 390.2,151.6 390.5,151Z" style="fill:rgb(176,27,74);fill-rule:nonzero;"/>
                <path id="p17OWXZWay" d="M424,207L424,203.9L425,204.5C425.6,204.8 426,205.5 426,206.1C426,206.6 425.6,207 425,207L424,207Z" style="fill:rgb(176,27,74);fill-rule:nonzero;"/>
            </g>
        </g>
        <g id="l2bH3aqGpbg3yPvYna92Gcn" transform="matrix(0.355698,0,0,0.355698,1661.28,1133.32)">
            <g>
                <path id="pcEPgeEZ1" d="M393,337.4C393,337 393.8,336.1 394.8,335.4L396.5,334L394.8,334.6L393,335.2L393,224.5L423.4,207.1L425.4,208.1L427.5,209.1L425.8,207.7C424.8,206.9 424,205.8 424,205.1L424,204L425.3,204C425.9,204 433.8,208.2 442.7,213.4L458.9,222.7L456.5,225.3L457.8,224.6L459,223.9L459,264.1L457.8,263.4L456.5,262.7L458.9,265.3L442.7,274.6C433.8,279.8 425.9,284 425.3,284L424,284L424,282.9C424,282.2 424.8,281.1 425.8,280.3L427.5,278.9L425.5,279.9L423.4,280.8L421.5,279.9L419.5,278.9L421.3,280.3L423,281.7L423,318.3L421.3,319.7L419.5,321.1L423.7,319.1L424.3,319.6L424.9,320.2L424.3,317.9L423.7,315.7L424.8,316.4L426,317.1L426,321.6L397.2,338L395.1,338C394,338 393,337.7 393,337.4ZM398,333.5C398,333.2 397.8,333 397.5,333C397.2,333 397,333.2 397,333.5C397,333.8 397.2,334 397.5,334C397.8,334 398,333.8 398,333.5ZM405,329.4C405,329.2 403.7,329.6 402,330.5C400.4,331.4 399,332.3 399,332.6C399,332.8 400.4,332.4 402,331.5C403.7,330.6 405,329.7 405,329.4ZM412,325.4C412,325.2 410.7,325.6 409,326.5C407.4,327.4 406,328.3 406,328.6C406,328.8 407.4,328.4 409,327.5C410.7,326.6 412,325.7 412,325.4ZM419,321.4C419,321.2 417.7,321.6 416,322.5C414.4,323.4 413,324.3 413,324.6C413,324.8 414.4,324.4 416,323.5C417.7,322.6 419,321.7 419,321.4ZM419,278.5C419,278.3 417.7,277.4 416,276.5C412.2,274.6 412,275.4 415.8,277.4C418.9,279.1 419,279.2 419,278.5ZM434,275.4C434,275.2 432.7,275.6 431,276.5C429.4,277.4 428,278.3 428,278.6C428,278.8 429.4,278.4 431,277.5C432.7,276.6 434,275.7 434,275.4ZM412,274.5C412,274.3 411,273.6 409.8,273L407.5,271.9L409.4,273.4C411.5,275.1 412,275.3 412,274.5ZM441,271.4C441,271.2 439.7,271.6 438,272.5C436.4,273.4 435,274.3 435,274.6C435,274.8 436.4,274.4 438,273.5C439.7,272.6 441,271.7 441,271.4ZM407,271.5C407,271.2 406.8,271 406.5,271C406.2,271 406,271.2 406,271.5C406,271.8 406.2,272 406.5,272C406.8,272 407,271.8 407,271.5ZM405,270.5C405,270.3 404,269.6 402.8,269L400.5,267.9L402.4,269.4C404.5,271.1 405,271.3 405,270.5ZM448,267.4C448,267.2 446.7,267.6 445,268.5C443.4,269.4 442,270.3 442,270.6C442,270.8 443.4,270.4 445,269.5C446.7,268.6 448,267.7 448,267.4ZM400,267.5C400,267.3 399,266.6 397.8,266L395.5,264.9L397.4,266.4C399.5,268.1 400,268.3 400,267.5ZM455,263.4C455,263.2 453.7,263.6 452,264.5C450.4,265.4 449,266.3 449,266.6C449,266.8 450.4,266.4 452,265.5C453.7,264.6 455,263.7 455,263.4ZM395,264.5C395,264.2 394.8,264 394.5,264C394.2,264 394,264.2 394,264.5C394,264.8 394.2,265 394.5,265C394.8,265 395,264.8 395,264.5ZM455,224.5C455,224.3 453.7,223.4 452,222.5C448.2,220.6 448,221.4 451.8,223.4C454.9,225.1 455,225.2 455,224.5ZM448,220.5C448,220.3 446.7,219.4 445,218.5C441.2,216.6 441,217.4 444.8,219.4C447.9,221.1 448,221.2 448,220.5ZM441,216.5C441,216.3 439.7,215.4 438,214.5C434.2,212.6 434,213.4 437.8,215.4C440.9,217.1 441,217.2 441,216.5ZM434,212.5C434,212.3 432.7,211.4 431,210.5C427.2,208.6 427,209.4 430.8,211.4C433.9,213.1 434,213.2 434,212.5Z" style="fill:rgb(160,22,100);fill-rule:nonzero;"/>
            </g>
        </g>
        <g id="lhhb32Jqy5OdajK0Ac5gY9" transform="matrix(0.355698,0,0,0.355698,1661.28,1133.32)">
            <g>
                <path id="pCzlZSDZY" d="M196.8,450.4L196.5,448.9L180.5,439.6L164.5,430.2L162.8,431.1L161,432.1L161,395.8L164.3,397.7C166,398.8 181.1,407.4 197.8,417C214.4,426.5 228,434.7 228,435C228,436 200.1,452 198.5,452L197.1,452L196.8,450.4ZM202,446.4C202,446.2 201.1,446.4 200,447C198.9,447.6 198,448.3 198,448.6C198,448.8 198.9,448.6 200,448C201.1,447.4 202,446.7 202,446.4ZM204,445.5C204,445.2 203.8,445 203.5,445C203.2,445 203,445.2 203,445.5C203,445.8 203.2,446 203.5,446C203.8,446 204,445.8 204,445.5ZM209,442.4C209,442.2 208.1,442.4 207,443C205.9,443.6 205,444.3 205,444.6C205,444.8 205.9,444.6 207,444C208.1,443.4 209,442.7 209,442.4ZM216,438.4C216,438.2 214.7,438.6 213,439.5C211.4,440.4 210,441.3 210,441.6C210,441.8 211.4,441.4 213,440.5C214.7,439.6 216,438.7 216,438.4ZM221,435.4C221,435.2 220.1,435.4 219,436C217.9,436.6 217,437.3 217,437.6C217,437.8 217.9,437.6 219,437C220.1,436.4 221,435.7 221,435.4ZM223,434.5C223,434.2 222.8,434 222.5,434C222.2,434 222,434.2 222,434.5C222,434.8 222.2,435 222.5,435C222.8,435 223,434.8 223,434.5ZM225,433.5C225,433.2 224.8,433 224.5,433C224.2,433 224,433.2 224,433.5C224,433.8 224.2,434 224.5,434C224.8,434 225,433.8 225,433.5Z" style="fill:rgb(213,32,39);fill-rule:nonzero;"/>
            </g>
        </g>
        <g id="l7A7tra9vaoR3csLmaNVxZA" transform="matrix(0.355698,0,0,0.355698,1661.28,1133.32)">
            <g>
                <path id="prqxEWkgL" d="M421,506C421,505.5 421.5,505 422,505C422.6,505 423,505.5 423,506C423,506.6 422.6,507 422,507C421.5,507 421,506.6 421,506Z" style="fill:rgb(121,42,144);fill-rule:nonzero;"/>
                <path id="pZo1A79x1" d="M424,505.5C424,505.2 424.2,505 424.5,505C424.8,505 425,505.2 425,505.5C425,505.8 424.8,506 424.5,506C424.2,506 424,505.8 424,505.5Z" style="fill:rgb(121,42,144);fill-rule:nonzero;"/>
                <path id="pdrsE05lA" d="M427,503.5C427,503.2 427.2,503 427.5,503C427.8,503 428,503.2 428,503.5C428,503.8 427.8,504 427.5,504C427.2,504 427,503.8 427,503.5Z" style="fill:rgb(121,42,144);fill-rule:nonzero;"/>
                <path id="pt22xG66D" d="M429,502.5C429,502.2 429.2,502 429.5,502C429.8,502 430,502.2 430,502.5C430,502.8 429.8,503 429.5,503C429.2,503 429,502.8 429,502.5Z" style="fill:rgb(121,42,144);fill-rule:nonzero;"/>
                <path id="pyIDeMcOi" d="M431,501.5C431,501.2 431.2,501 431.5,501C431.8,501 432,501.2 432,501.5C432,501.8 431.8,502 431.5,502C431.2,502 431,501.8 431,501.5Z" style="fill:rgb(121,42,144);fill-rule:nonzero;"/>
                <path id="pfdEHvlte" d="M434,499.5C434,499.2 434.2,499 434.5,499C434.8,499 435,499.2 435,499.5C435,499.8 434.8,500 434.5,500C434.2,500 434,499.8 434,499.5Z" style="fill:rgb(121,42,144);fill-rule:nonzero;"/>
                <path id="p1BfnzsdQU" d="M436,498.5C436,498.2 436.2,498 436.5,498C436.8,498 437,498.2 437,498.5C437,498.8 436.8,499 436.5,499C436.2,499 436,498.8 436,498.5Z" style="fill:rgb(121,42,144);fill-rule:nonzero;"/>
                <path id="pmaJapcmN" d="M438,497.5C438,497.2 438.2,497 438.5,497C438.8,497 439,497.2 439,497.5C439,497.8 438.8,498 438.5,498C438.2,498 438,497.8 438,497.5Z" style="fill:rgb(121,42,144);fill-rule:nonzero;"/>
                <path id="pGpJJRQC7" d="M441,495.5C441,495.2 441.2,495 441.5,495C441.8,495 442,495.2 442,495.5C442,495.8 441.8,496 441.5,496C441.2,496 441,495.8 441,495.5Z" style="fill:rgb(121,42,144);fill-rule:nonzero;"/>
                <path id="pIrKN8TCI" d="M443,494.5C443,494.2 443.2,494 443.5,494C443.8,494 444,494.2 444,494.5C444,494.8 443.8,495 443.5,495C443.2,495 443,494.8 443,494.5Z" style="fill:rgb(121,42,144);fill-rule:nonzero;"/>
                <path id="p16iDmnWdW" d="M446,492.5C446,492.2 446.2,492 446.5,492C446.8,492 447,492.2 447,492.5C447,492.8 446.8,493 446.5,493C446.2,493 446,492.8 446,492.5Z" style="fill:rgb(121,42,144);fill-rule:nonzero;"/>
                <path id="pSc3yFWyC" d="M448,491.5C448,491.2 448.2,491 448.5,491C448.8,491 449,491.2 449,491.5C449,491.8 448.8,492 448.5,492C448.2,492 448,491.8 448,491.5Z" style="fill:rgb(121,42,144);fill-rule:nonzero;"/>
                <path id="p1EePGn7HU" d="M450,490.5C450,490.2 450.2,490 450.5,490C450.8,490 451,490.2 451,490.5C451,490.8 450.8,491 450.5,491C450.2,491 450,490.8 450,490.5Z" style="fill:rgb(121,42,144);fill-rule:nonzero;"/>
                <path id="prg8OqxZs" d="M453,488.5C453,488.2 453.2,488 453.5,488C453.8,488 454,488.2 454,488.5C454,488.8 453.8,489 453.5,489C453.2,489 453,488.8 453,488.5Z" style="fill:rgb(121,42,144);fill-rule:nonzero;"/>
                <path id="pyWSDqWjw" d="M455.8,472.5L456.1,457.2L475.5,445.9L495,434.6L495,431.9L496.8,432.2C497.7,432.4 503.3,435.2 509.2,438.5L520,444.5L520,448.2L518.3,447.6L516.5,447L518.4,448.5C519.5,449.3 520.2,450.2 519.9,450.4C519.7,450.6 506.5,458.3 490.5,467.5C474.6,476.7 460.2,485 458.5,486L455.5,487.9L455.8,472.5ZM516,446.5C516,446.3 514.7,445.4 513,444.5C509.2,442.6 509,443.4 512.8,445.4C515.9,447.1 516,447.2 516,446.5ZM509,442.5C509,442.3 507.7,441.4 506,440.5C502.2,438.6 502,439.4 505.8,441.4C508.9,443.1 509,443.2 509,442.5ZM502,438.5C502,438.3 500.7,437.4 499,436.5C495.2,434.6 495,435.4 498.8,437.4C501.9,439.1 502,439.2 502,438.5Z" style="fill:rgb(121,42,144);fill-rule:nonzero;"/>
                <path id="pw0JdXfxQ" d="M506,270.1L506,266L509,266C510.7,266 512,266.3 512,266.6C512,267.6 509.5,269.5 507.8,269.8L506,270.1Z" style="fill:rgb(121,42,144);fill-rule:nonzero;"/>
                <path id="pfnfMzbs6" d="M513,266.1L513,262L516,262C517.7,262 519,262.3 519,262.6C519,263.6 516.5,265.5 514.8,265.8L513,266.1Z" style="fill:rgb(121,42,144);fill-rule:nonzero;"/>
            </g>
        </g>
        <g id="l5ZoavfbgndjPCCK4pqiaNi" transform="matrix(0.355698,0,0,0.355698,1661.28,1133.32)">
            <g>
                <path id="p497LsV3D" d="M301,56L301,53.5L281.8,42.4L262.5,31.3L261.9,2.1L293.6,20.3L325.2,38.4L323.7,39.5C319,42.7 318.8,42.9 322.3,41L326.2,39L327.1,39.5C327.6,39.9 328,40.5 328,41L328,41.8L315.9,48.9C309.2,52.8 303.2,56 302.4,56L301,56ZM306,50.4C306,50.2 305.1,50.4 304,51C302.9,51.6 302,52.3 302,52.6C302,52.8 302.9,52.6 304,52C305.1,51.4 306,50.7 306,50.4ZM313,46.4C313,46.2 311.7,46.6 310,47.5C308.4,48.4 307,49.3 307,49.6C307,49.8 308.4,49.4 310,48.5C311.7,47.6 313,46.7 313,46.4ZM318,43.4C318,43.2 317.1,43.4 316,44C314.9,44.6 314,45.3 314,45.6C314,45.8 314.9,45.6 316,45C317.1,44.4 318,43.7 318,43.4Z" style="fill:rgb(198,71,39);fill-rule:nonzero;"/>
            </g>
        </g>
        <g id="l2wKXCCCfs5pTBSm5bHz7tB" transform="matrix(0.355698,0,0,0.355698,1661.28,1133.32)">
            <g>
                <path id="p19FDVPUe8" d="M165.9,545.5C165.8,545.2 165.7,544.6 165.6,544.1C165.6,543.6 165.1,542.8 164.6,542.3L163.7,541.5L164.4,542.8L165.1,544L164.4,544C164.1,544 149.4,535.8 131.9,525.8L100,507.6L100,506.3C100,505.6 100.4,505 100.8,505C101.3,505 102.5,504.3 103.6,503.5L105.5,501.9L102.4,503.4L99.4,504.9L98,504C96.2,502.9 95.5,503.4 107.9,496.2L118.3,490L119.7,491.1L121,492.3L119.3,493.7L117.5,495.1L119.8,494L122,492.9L131.3,499L140.5,505.1L153.8,511.8L167,518.4L167,532.2C167,539.8 166.8,546 166.5,546C166.2,546 165.9,545.8 165.9,545.5ZM110,499.4C110,499.2 109.1,499.4 108,500C106.9,500.6 106,501.3 106,501.6C106,501.8 106.9,501.6 108,501C109.1,500.4 110,499.7 110,499.4ZM115,496.4C115,496.2 114.1,496.4 113,497C111.9,497.6 111,498.3 111,498.6C111,498.8 111.9,498.6 113,498C114.1,497.4 115,496.7 115,496.4ZM117,495.5C117,495.2 116.8,495 116.5,495C116.2,495 116,495.2 116,495.5C116,495.8 116.2,496 116.5,496C116.8,496 117,495.8 117,495.5Z" style="fill:rgb(238,52,57);fill-rule:nonzero;"/>
                <path id="pvCL5tt20" d="M97.5,506L96.9,505L99,505L99,506C99,506.6 98.8,507 98.6,507C98.3,507 97.8,506.6 97.5,506Z" style="fill:rgb(238,52,57);fill-rule:nonzero;"/>
                <path id="pqArvp9hE" d="M260.2,378.2L259,376.2L260.5,375.6L262,375.1L262,371.6L264.4,374L260.2,378.2Z" style="fill:rgb(238,52,57);fill-rule:nonzero;"/>
                <path id="pWOGUmwip" d="M227.5,358.5L197.5,341L197.2,339.3C197,338.3 196.4,337.1 196,336.6L195.1,335.7L196.3,340.3L195.2,339.6L194,338.9L194,334.5L210.3,325.3C219.3,320.2 227.1,316 227.8,316L229,316L229,317.1C229,317.8 228.2,318.9 227.3,319.7L225.5,321.1L227.6,320.1C228.8,319.5 229.9,319.2 230.1,319.5C230.3,319.7 230.5,310.9 230.5,300C230.5,289.1 230.3,280.2 230,280.2C228.2,280.3 227,279.9 227,279.1L227,278.2L242.9,269.1C251.6,264.1 259.2,260 259.9,260L261,260L261,261.1C261,261.8 260.2,262.9 259.3,263.7L257.5,265.1L259.6,264.1C260.8,263.5 261.9,263.2 262.1,263.5C262.3,263.7 262.3,255 262.2,244.2L261.8,224.5L261.1,226.4L260.3,228.4L258.7,225.8L260.1,224.9L261.5,224.1L264.9,226.1C266.7,227.2 281.5,235.8 297.6,245.1L327,262.2L327,266.7L311.5,275.5L296,284.4L295.9,302C295.8,311.6 295.7,320.1 295.6,320.9L295.5,322.3L280,331.1C271.5,336 263.9,340 263.3,340L262,340L262,338.9C262,338.2 262.8,337.1 263.8,336.3L265.5,334.9L263.5,335.9L261.4,336.8L259.5,335.9L257.5,334.9L259.3,336.3L261,337.7L261,374.8L259.4,375.4C258.5,375.7 257.8,376 257.7,375.9C257.6,375.9 244,368 227.5,358.5ZM202,334.4C202,334.2 201.1,334.4 200,335C198.9,335.6 198,336.3 198,336.6C198,336.8 198.9,336.6 200,336C201.1,335.4 202,334.7 202,334.4ZM257,334.5C257,334.2 256.8,334 256.5,334C256.2,334 256,334.2 256,334.5C256,334.8 256.2,335 256.5,335C256.8,335 257,334.8 257,334.5ZM267,334.5C267,334.2 266.8,334 266.5,334C266.2,334 266,334.2 266,334.5C266,334.8 266.2,335 266.5,335C266.8,335 267,334.8 267,334.5ZM204,333.5C204,333.2 203.8,333 203.5,333C203.2,333 203,333.2 203,333.5C203,333.8 203.2,334 203.5,334C203.8,334 204,333.8 204,333.5ZM255,333.5C255,333.3 254,332.6 252.8,332L250.5,330.9L252.4,332.4C254.5,334.1 255,334.3 255,333.5ZM272,331.4C272,331.2 271.1,331.4 270,332C268.9,332.6 268,333.3 268,333.6C268,333.8 268.9,333.6 270,333C271.1,332.4 272,331.7 272,331.4ZM209,330.4C209,330.2 208.1,330.4 207,331C205.9,331.6 205,332.3 205,332.6C205,332.8 205.9,332.6 207,332C208.1,331.4 209,330.7 209,330.4ZM250,330.5C250,330.3 248.7,329.4 247,328.5C243.2,326.6 243,327.4 246.8,329.4C249.9,331.1 250,331.2 250,330.5ZM274,330.5C274,330.2 273.8,330 273.5,330C273.2,330 273,330.2 273,330.5C273,330.8 273.2,331 273.5,331C273.8,331 274,330.8 274,330.5ZM211,329.5C211,329.2 210.8,329 210.5,329C210.2,329 210,329.2 210,329.5C210,329.8 210.2,330 210.5,330C210.8,330 211,329.8 211,329.5ZM279,327.4C279,327.2 278.1,327.4 277,328C275.9,328.6 275,329.3 275,329.6C275,329.8 275.9,329.6 277,329C278.1,328.4 279,327.7 279,327.4ZM216,326.4C216,326.2 215.1,326.4 214,327C212.9,327.6 212,328.3 212,328.6C212,328.8 212.9,328.6 214,328C215.1,327.4 216,326.7 216,326.4ZM243,326.5C243,326.3 242,325.6 240.8,325L238.5,323.9L240.4,325.4C242.5,327.1 243,327.3 243,326.5ZM281,326.5C281,326.2 280.8,326 280.5,326C280.2,326 280,326.2 280,326.5C280,326.8 280.2,327 280.5,327C280.8,327 281,326.8 281,326.5ZM218,325.5C218,325.2 217.8,325 217.5,325C217.2,325 217,325.2 217,325.5C217,325.8 217.2,326 217.5,326C217.8,326 218,325.8 218,325.5ZM286,323.4C286,323.2 285.1,323.4 284,324C282.9,324.6 282,325.3 282,325.6C282,325.8 282.9,325.6 284,325C285.1,324.4 286,323.7 286,323.4ZM223,322.4C223,322.2 222.1,322.4 221,323C219.9,323.6 219,324.3 219,324.6C219,324.8 219.9,324.6 221,324C222.1,323.4 223,322.7 223,322.4ZM238,323.5C238,323.2 237.8,323 237.5,323C237.2,323 237,323.2 237,323.5C237,323.8 237.2,324 237.5,324C237.8,324 238,323.8 238,323.5ZM236,322.5C236,322.3 235,321.6 233.8,321L231.5,319.9L233.4,321.4C235.5,323.1 236,323.3 236,322.5ZM288,322.5C288,322.2 287.8,322 287.5,322C287.2,322 287,322.2 287,322.5C287,322.8 287.2,323 287.5,323C287.8,323 288,322.8 288,322.5ZM225,321.5C225,321.2 224.8,321 224.5,321C224.2,321 224,321.2 224,321.5C224,321.8 224.2,322 224.5,322C224.8,322 225,321.8 225,321.5ZM293,319.4C293,319.2 292.1,319.4 291,320C289.9,320.6 289,321.3 289,321.6C289,321.8 289.9,321.6 291,321C292.1,320.4 293,319.7 293,319.4ZM293,280.5C293,280.3 291.7,279.4 290,278.5C286.2,276.6 286,277.4 289.8,279.4C292.9,281.1 293,281.2 293,280.5ZM301,277.4C301,277.2 299.7,277.6 298,278.5C296.4,279.4 295,280.3 295,280.6C295,280.8 296.4,280.4 298,279.5C299.7,278.6 301,277.7 301,277.4ZM238,276.4C238,276.2 236.7,276.6 235,277.5C233.4,278.4 232,279.3 232,279.6C232,279.8 233.4,279.4 235,278.5C236.7,277.6 238,276.7 238,276.4ZM286,276.5C286,276.3 284.7,275.4 283,274.5C279.2,272.6 279,273.4 282.8,275.4C285.9,277.1 286,277.2 286,276.5ZM306,274.4C306,274.2 305.1,274.4 304,275C302.9,275.6 302,276.3 302,276.6C302,276.8 302.9,276.6 304,276C305.1,275.4 306,274.7 306,274.4ZM243,273.4C243,273.2 242.1,273.4 241,274C239.9,274.6 239,275.3 239,275.6C239,275.8 239.9,275.6 241,275C242.1,274.4 243,273.7 243,273.4ZM308,273.5C308,273.2 307.8,273 307.5,273C307.2,273 307,273.2 307,273.5C307,273.8 307.2,274 307.5,274C307.8,274 308,273.8 308,273.5ZM245,272.5C245,272.2 244.8,272 244.5,272C244.2,272 244,272.2 244,272.5C244,272.8 244.2,273 244.5,273C244.8,273 245,272.8 245,272.5ZM279,272.5C279,272.2 278.8,272 278.5,272C278.2,272 278,272.2 278,272.5C278,272.8 278.2,273 278.5,273C278.8,273 279,272.8 279,272.5ZM313,270.4C313,270.2 312.1,270.4 311,271C309.9,271.6 309,272.3 309,272.6C309,272.8 309.9,272.6 311,272C312.1,271.4 313,270.7 313,270.4ZM250,269.4C250,269.2 249.1,269.4 248,270C246.9,270.6 246,271.3 246,271.6C246,271.8 246.9,271.6 248,271C249.1,270.4 250,269.7 250,269.4ZM277,271.5C277,271.3 276,270.6 274.8,270L272.5,268.9L274.4,270.4C276.5,272.1 277,272.3 277,271.5ZM315,269.5C315,269.2 314.8,269 314.5,269C314.2,269 314,269.2 314,269.5C314,269.8 314.2,270 314.5,270C314.8,270 315,269.8 315,269.5ZM252,268.5C252,268.2 251.8,268 251.5,268C251.2,268 251,268.2 251,268.5C251,268.8 251.2,269 251.5,269C251.8,269 252,268.8 252,268.5ZM272,268.5C272,268.2 271.8,268 271.5,268C271.2,268 271,268.2 271,268.5C271,268.8 271.2,269 271.5,269C271.8,269 272,268.8 272,268.5ZM320,266.4C320,266.2 319.1,266.4 318,267C316.9,267.6 316,268.3 316,268.6C316,268.8 316.9,268.6 318,268C319.1,267.4 320,266.7 320,266.4ZM257,265.4C257,265.2 256.1,265.4 255,266C253.9,266.6 253,267.3 253,267.6C253,267.8 253.9,267.6 255,267C256.1,266.4 257,265.7 257,265.4ZM270,267.5C270,267.3 269,266.6 267.8,266L265.5,264.9L267.4,266.4C269.5,268.1 270,268.3 270,267.5ZM325.9,263.4C327.3,262.2 324,263.3 322.4,264.6L320.5,266.1L323,264.9C324.4,264.3 325.7,263.6 325.9,263.4ZM265,264.5C265,264.2 264.8,264 264.5,264C264.2,264 264,264.2 264,264.5C264,264.8 264.2,265 264.5,265C264.8,265 265,264.8 265,264.5Z" style="fill:rgb(238,52,57);fill-rule:nonzero;"/>
                <path id="piSaskcBX" d="M227.6,283.1L226.8,281.9L228,280.7L228.6,281.3C228.9,281.6 229,282.4 228.8,283.1L228.4,284.4L227.6,283.1Z" style="fill:rgb(238,52,57);fill-rule:nonzero;"/>
                <path id="p1FfCELFqZ" d="M342.4,159.5L326.3,150.3L324.6,151.2L323,152.1L323,112.4L324.3,110.8C324.9,109.9 328.5,107.5 332.2,105.5L338.9,101.9L340.6,102.8L342.3,103.8L339.2,105.4C337.4,106.3 336,107.3 336,107.6C336,107.9 337.7,107.2 339.8,106L343.6,103.8L353.1,108.3C364.8,114 377.3,121.4 386.2,128.2L393,133.4L393,151.1L391.8,150.8L390.5,150.5L375,159.4C366.5,164.3 359.3,168.4 359,168.5C358.7,168.7 351.2,164.6 342.4,159.5ZM325.7,112.3L325,111.7L324.3,112.3L323.7,113L326.3,113L325.7,112.3ZM333,109.4C333,109.2 331.7,109.6 330,110.5C328.4,111.4 327,112.3 327,112.6C327,112.8 328.4,112.4 330,111.5C331.7,110.6 333,109.7 333,109.4ZM335,108.5C335,108.2 334.8,108 334.5,108C334.2,108 334,108.2 334,108.5C334,108.8 334.2,109 334.5,109C334.8,109 335,108.8 335,108.5Z" style="fill:rgb(238,52,57);fill-rule:nonzero;"/>
                <path id="pjTgOukE5" d="M391.5,103.4L380.5,96.1L369.8,90.5L359,84.9L359,58L362.3,59.7C370.9,64.3 426,96.5 426,97C426,97.5 403.3,111.1 402.8,110.9C402.6,110.9 397.6,107.5 391.5,103.4ZM402,107.5C402,107.2 401.8,107 401.5,107C401.2,107 401,107.2 401,107.5C401,107.8 401.2,108 401.5,108C401.8,108 402,107.8 402,107.5ZM407,104.4C407,104.2 406.1,104.4 405,105C403.9,105.6 403,106.3 403,106.6C403,106.8 403.9,106.6 405,106C406.1,105.4 407,104.7 407,104.4ZM412,101.4C412,101.2 411.1,101.4 410,102C408.9,102.6 408,103.3 408,103.6C408,103.8 408.9,103.6 410,103C411.1,102.4 412,101.7 412,101.4ZM417,98.4C417,98.2 416.1,98.4 415,99C413.9,99.6 413,100.3 413,100.6C413,100.8 413.9,100.6 415,100C416.1,99.4 417,98.7 417,98.4ZM419,97.5C419,97.2 418.8,97 418.5,97C418.2,97 418,97.2 418,97.5C418,97.8 418.2,98 418.5,98C418.8,98 419,97.8 419,97.5ZM422.5,95.2L422,94.6L419.5,97.1L421.3,96.4L423.1,95.8L422.5,95.2Z" style="fill:rgb(238,52,57);fill-rule:nonzero;"/>
            </g>
        </g>
        <g id="l4k1adUN7mWt9kirHuNH1B2" transform="matrix(0.355698,0,0,0.355698,1661.28,1133.32)">
            <g>
                <path id="p1COgpK6ox" d="M325.2,560.4C324.6,559.7 324,558.9 324,558.6C324,557.9 355.6,540 356.8,540L357.9,540L358.3,541.8L358.8,543.5L358.9,541.8L359,540L362,540L362,540.9C362,541.8 359.4,543.2 357.3,543.4C356.6,543.5 355.4,544.4 354.5,545.5C353.6,546.6 353.1,546.9 353.5,546.3L354.1,545L352.6,545.6L351,546.2L351.7,547.3L352.3,548.3L349.7,546.7L347.8,549.1C346.7,550.4 346.1,550.9 346.5,550.3L347.1,549L345.6,549.6L344,550.2L344.7,551.3L345.3,552.3L342.7,550.7L340.8,553.1C339.7,554.4 339.1,554.9 339.5,554.3L340.1,553L338.6,553.6L337,554.2L337.7,555.3L338.3,556.3L335.7,554.7L333.8,557.1C332.7,558.4 332.1,558.9 332.5,558.3L333.1,557L331.6,557.6L330,558.2L330.7,559.3L331.3,560.3L328.7,558.7L326.5,561.7L325.2,560.4Z" style="fill:rgb(133,69,154);fill-rule:nonzero;"/>
                <path id="pVRJRuJ49" d="M328,560.5C328,560.2 328.2,560 328.5,560C328.8,560 329,560.2 329,560.5C329,560.8 328.8,561 328.5,561C328.2,561 328,560.8 328,560.5Z" style="fill:rgb(133,69,154);fill-rule:nonzero;"/>
                <path id="pFmy1Iglb" d="M335,556.5C335,556.2 335.2,556 335.5,556C335.8,556 336,556.2 336,556.5C336,556.8 335.8,557 335.5,557C335.2,557 335,556.8 335,556.5Z" style="fill:rgb(133,69,154);fill-rule:nonzero;"/>
                <path id="pQx6AqWJ1" d="M342,552.5C342,552.2 342.2,552 342.5,552C342.8,552 343,552.2 343,552.5C343,552.8 342.8,553 342.5,553C342.2,553 342,552.8 342,552.5Z" style="fill:rgb(133,69,154);fill-rule:nonzero;"/>
                <path id="pY2eR6dST" d="M349,548.5C349,548.2 349.2,548 349.5,548C349.8,548 350,548.2 350,548.5C350,548.8 349.8,549 349.5,549C349.2,549 349,548.8 349,548.5Z" style="fill:rgb(133,69,154);fill-rule:nonzero;"/>
                <path id="p1HTvI0jdW" d="M356,544.5C356,544.2 356.2,544 356.5,544C356.8,544 357,544.2 357,544.5C357,544.8 356.8,545 356.5,545C356.2,545 356,544.8 356,544.5Z" style="fill:rgb(133,69,154);fill-rule:nonzero;"/>
                <path id="p13aI8HJTT" d="M419,507L419,506L417.1,506C416,506 414.5,505.7 413.6,505.4L412,504.8L412,502L410.1,502C409,502 407.5,501.7 406.6,501.4L405,500.8L405,498L403.1,498C402,498 400.5,497.7 399.6,497.4L398,496.8L398,493L401.1,493L411.8,499.1C424.5,506.4 423.8,505.9 422,507C420,508.3 419,508.2 419,507Z" style="fill:rgb(133,69,154);fill-rule:nonzero;"/>
                <path id="p106ejMZ9h" d="M506.8,441.2L495.1,434.5L495,411.8L495,389.1L493.3,388.1C492.3,387.6 491.7,387 492,386.7C492.3,386.5 497.7,383.3 504.1,379.6L515.7,373L520,373L520,374C520,374.6 519.6,375 519.2,375C518.7,375 517.5,375.7 516.4,376.6L514.5,378.1L516.7,377.1C517.9,376.5 519.1,376 519.4,376L520,376L520,448L519.3,447.9C518.8,447.9 513.2,444.9 506.8,441.2ZM500,386.4C500,386.2 499.1,386.4 498,387C496.9,387.6 496,388.3 496,388.6C496,388.8 496.9,388.6 498,388C499.1,387.4 500,386.7 500,386.4ZM502,385.5C502,385.2 501.8,385 501.5,385C501.2,385 501,385.2 501,385.5C501,385.8 501.2,386 501.5,386C501.8,386 502,385.8 502,385.5ZM507,382.4C507,382.2 506.1,382.4 505,383C503.9,383.6 503,384.3 503,384.6C503,384.8 503.9,384.6 505,384C506.1,383.4 507,382.7 507,382.4ZM514,378.4C514,378.2 512.7,378.6 511,379.5C509.4,380.4 508,381.3 508,381.6C508,381.8 509.4,381.4 511,380.5C512.7,379.6 514,378.7 514,378.4Z" style="fill:rgb(133,69,154);fill-rule:nonzero;"/>
                <path id="p141vJDd0G" d="M515,340L515,336L508,336L508,332L501,332L501,328L496,328L496,326.7C496,325.9 496.3,325.1 496.6,324.8L497.1,324.2L508.6,330.7L520,337.2L520,340L515,340Z" style="fill:rgb(133,69,154);fill-rule:nonzero;"/>
            </g>
        </g>
        <g id="l3II3Dj9jcHiF91dS6gSZf2" transform="matrix(0.355698,0,0,0.355698,1661.28,1133.32)">
            <g>
                <path id="p1AWTcvmDC" d="M3,452L3,448.5L1,451.5L1,377.4L2.3,374.7C2.9,373.2 3.8,372 4.3,372C4.9,372 29.4,385.6 31,386.8C31.3,387 30.7,387.6 29.7,388.1L28,389.1L28,434.9L29.7,435.9C30.7,436.4 31.3,437 31,437.2C28.6,439.2 5.5,452 4.4,452L3,452ZM8,446.4C8,446.2 7.1,446.4 6,447C4.9,447.6 4,448.3 4,448.6C4,448.8 4.9,448.6 6,448C7.1,447.4 8,446.7 8,446.4ZM13,443.4C13,443.2 12.1,443.4 11,444C9.9,444.6 9,445.3 9,445.6C9,445.8 9.9,445.6 11,445C12.1,444.4 13,443.7 13,443.4ZM15,442.5C15,442.2 14.8,442 14.5,442C14.2,442 14,442.2 14,442.5C14,442.8 14.2,443 14.5,443C14.8,443 15,442.8 15,442.5ZM20,439.4C20,439.2 19.1,439.4 18,440C16.9,440.6 16,441.3 16,441.6C16,441.8 16.9,441.6 18,441C19.1,440.4 20,439.7 20,439.4ZM25,436.4C25,436.2 24.1,436.4 23,437C21.9,437.6 21,438.3 21,438.6C21,438.8 21.9,438.6 23,438C24.1,437.4 25,436.7 25,436.4ZM27,435.5C27,435.2 26.8,435 26.5,435C26.2,435 26,435.2 26,435.5C26,435.8 26.2,436 26.5,436C26.8,436 27,435.8 27,435.5ZM27,388.5C27,388.3 26,387.6 24.8,387L22.5,385.9L24.4,387.4C26.5,389.1 27,389.3 27,388.5ZM22,385.5C22,385.2 21.8,385 21.5,385C21.2,385 21,385.2 21,385.5C21,385.8 21.2,386 21.5,386C21.8,386 22,385.8 22,385.5ZM20,384.5C20,384.3 19,383.6 17.8,383L15.5,381.9L17.4,383.4C19.5,385.1 20,385.3 20,384.5ZM15,381.5C15,381.2 14.8,381 14.5,381C14.2,381 14,381.2 14,381.5C14,381.8 14.2,382 14.5,382C14.8,382 15,381.8 15,381.5ZM13,380.6C13,380.3 12.5,379.8 11.8,379.4L10.7,378.7L11.4,379.8C12.1,381 13,381.4 13,380.6ZM8,377.5C8,377.2 7.8,377 7.5,377C7.2,377 7,377.2 7,377.5C7,377.8 7.2,378 7.5,378C7.8,378 8,377.8 8,377.5Z" style="fill:rgb(198,121,40);fill-rule:nonzero;"/>
            </g>
        </g>
        <g id="lfE4NLPqPaYxEy07luoIIq" transform="matrix(0.355698,0,0,0.355698,1661.28,1133.32)">
            <g>
                <path id="p1FhU0K07g" d="M258.8,598.9C257.8,598.4 257,597.5 257,597L257,596L260.8,596L261.8,600L261.2,600C260.8,600 259.7,599.5 258.8,598.9Z" style="fill:rgb(155,56,149);fill-rule:nonzero;"/>
                <path id="p1FA03xdp9" d="M309.9,551.4L293.7,542L292.3,543.1L291,544.2L291,535.5L301.3,533.8C306.9,532.8 317.2,530.5 324.1,528.6L336.7,525.2L346.9,521.1C352.6,518.8 357.4,517 357.6,517C357.8,517 358,522.8 358,529.8L358,542.6L342.1,551.7L326.2,560.7L309.9,551.4Z" style="fill:rgb(155,56,149);fill-rule:nonzero;"/>
                <path id="pH4vthvSL" d="M359,541.4L359,539.9L361,541.1L360.5,542.1C359.6,543.5 359,543.2 359,541.4Z" style="fill:rgb(155,56,149);fill-rule:nonzero;"/>
                <path id="pbMKqO5lo" d="M291,511.7L291,504.4L292.3,502.8C292.9,502 300.2,497.4 308.3,492.6L323.1,484L329.3,484L337.2,488.6L345,493.2L345,497.1L342.8,495.9L340.5,494.7L341.8,496.2L343,497.7L334.3,500.9C323.7,504.6 308.7,508.6 298.5,510.4L291,511.7ZM295.4,505.2L295.9,504.4L292.1,504.4L292.6,505.2C292.9,505.6 293.5,506 294,506C294.5,506 295.1,505.6 295.4,505.2ZM301,501.4C301,501.2 300.1,501.4 299,502C297.9,502.6 297,503.3 297,503.6C297,503.8 297.9,503.6 299,503C300.1,502.4 301,501.7 301,501.4ZM308,497.4C308,497.2 306.7,497.6 305,498.5C303.4,499.4 302,500.3 302,500.6C302,500.8 303.4,500.4 305,499.5C306.7,498.6 308,497.7 308,497.4ZM313,494.4C313,494.2 312.1,494.4 311,495C309.9,495.6 309,496.3 309,496.6C309,496.8 309.9,496.6 311,496C312.1,495.4 313,494.7 313,494.4ZM340,494.5C340,494.3 339,493.6 337.8,493L335.5,491.9L337.4,493.4C339.5,495.1 340,495.3 340,494.5ZM318,491.4C318,491.2 317.1,491.4 316,492C314.9,492.6 314,493.3 314,493.6C314,493.8 314.9,493.6 316,493C317.1,492.4 318,491.7 318,491.4ZM335,491.5C335,491.3 334,490.6 332.8,490L330.5,488.9L332.4,490.4C334.5,492.1 335,492.3 335,491.5ZM325,487.4C325,487.2 323.7,487.6 322,488.5C320.4,489.4 319,490.3 319,490.6C319,490.8 320.4,490.4 322,489.5C323.7,488.6 325,487.7 325,487.4ZM330,488.5C330,488.2 329.8,488 329.5,488C329.2,488 329,488.2 329,488.5C329,488.8 329.2,489 329.5,489C329.8,489 330,488.8 330,488.5ZM328,487.6C328,487.3 327.5,486.8 326.8,486.4L325.7,485.7L326.4,486.8C327.1,488 328,488.4 328,487.6Z" style="fill:rgb(155,56,149);fill-rule:nonzero;"/>
                <path id="pGxTR7een" d="M372.5,443C364.3,438.1 357.1,433.9 356.5,433.6L355.5,433.1L357.3,432L359,430.9L359,396.5L376,386.6L393,376.8L393,336.5L407.8,328.1C415.9,323.5 423,319.7 423.5,319.7L424.5,319.7L424.2,300.6L423.9,281.4L455.3,263.6L455.8,261.8L456.2,260L457.5,260C458.2,260 461.8,261.7 465.4,263.8L472,267.5L471.9,269.5C471.8,270.6 472.1,272.4 472.6,273.5L473.5,275.5L473.5,326.2L471.8,327.3C470.9,328 469.3,329.1 468.3,329.8L466.5,331L468.7,330C469.9,329.5 471.2,329 471.5,329L472.1,329L471.8,330.7L471.5,332.3L459.5,339.7L459.2,353.9L458.9,368.2L457.4,367.6L455.8,367L436.4,378.1L417,389.1L415.8,388.4L414.5,387.6L415.8,389.2L417,390.8L416.8,412.5L416.5,434.2L404,441.6L391.5,448.9L388.5,447.9L389.8,449.1C390.4,449.8 391,450.8 391,451.2L391,452L389.3,452L387.5,451.9L372.5,443ZM388,447.5C388,447.3 387,446.6 385.8,446L383.5,444.9L385.4,446.4C387.5,448.1 388,448.3 388,447.5ZM383,444.5C383,444.2 382.8,444 382.5,444C382.2,444 382,444.2 382,444.5C382,444.8 382.2,445 382.5,445C382.8,445 383,444.8 383,444.5ZM381,443.5C381,443.3 380,442.6 378.8,442L376.5,440.9L378.4,442.4C380.5,444.1 381,444.3 381,443.5ZM376,440.5C376,440.3 375,439.6 373.8,439L371.5,437.9L373.4,439.4C375.5,441.1 376,441.3 376,440.5ZM371,437.5C371,437.3 370,436.6 368.8,436L366.5,434.9L368.4,436.4C370.5,438.1 371,438.3 371,437.5ZM366,434.5C366,434.2 365.8,434 365.5,434C365.2,434 365,434.2 365,434.5C365,434.8 365.2,435 365.5,435C365.8,435 366,434.8 366,434.5ZM364,433.5C364,433.3 363,432.6 361.8,432L359.5,430.9L361.4,432.4C363.5,434.1 364,434.3 364,433.5ZM414,387.5C414,387.3 412.7,386.4 411,385.5C407.2,383.6 407,384.4 410.8,386.4C413.9,388.1 414,388.2 414,387.5ZM407,383.5C407,383.3 405.7,382.4 404,381.5C400.2,379.6 400,380.4 403.8,382.4C406.9,384.1 407,384.2 407,383.5ZM400,379.5C400,379.3 398.7,378.4 397,377.5C393.2,375.6 393,376.4 396.8,378.4C399.9,380.1 400,380.2 400,379.5ZM455,336.5C455,336.2 454.8,336 454.5,336C454.2,336 454,336.2 454,336.5C454,336.8 454.2,337 454.5,337C454.8,337 455,336.8 455,336.5ZM461,334.4C461,334.2 460.1,334.4 459,335C457.9,335.6 457,336.3 457,336.6C457,336.8 457.9,336.6 459,336C460.1,335.4 461,334.7 461,334.4ZM453,335.5C453,335.3 452,334.6 450.8,334L448.5,332.9L450.4,334.4C452.5,336.1 453,336.3 453,335.5ZM466,331.4C466,331.2 465.1,331.4 464,332C462.9,332.6 462,333.3 462,333.6C462,333.8 462.9,333.6 464,333C465.1,332.4 466,331.7 466,331.4ZM448,332.5C448,332.2 447.8,332 447.5,332C447.2,332 447,332.2 447,332.5C447,332.8 447.2,333 447.5,333C447.8,333 448,332.8 448,332.5ZM446,331.5C446,331.3 445,330.6 443.8,330L441.5,328.9L443.4,330.4C445.5,332.1 446,332.3 446,331.5ZM441,328.5C441,328.2 440.8,328 440.5,328C440.2,328 440,328.2 440,328.5C440,328.8 440.2,329 440.5,329C440.8,329 441,328.8 441,328.5ZM439,327.5C439,327.3 438,326.6 436.8,326L434.5,324.9L436.4,326.4C438.5,328.1 439,328.3 439,327.5ZM434,324.5C434,324.2 433.8,324 433.5,324C433.2,324 433,324.2 433,324.5C433,324.8 433.2,325 433.5,325C433.8,325 434,324.8 434,324.5ZM432,323.5C432,323.3 430.7,322.4 429,321.5C425.2,319.6 425,320.4 428.8,322.4C431.9,324.1 432,324.2 432,323.5ZM470,270.5C470,270.2 469.8,270 469.5,270C469.2,270 469,270.2 469,270.5C469,270.8 469.2,271 469.5,271C469.8,271 470,270.8 470,270.5ZM468,269.5C468,269.3 467,268.6 465.8,268L463.5,266.9L465.4,268.4C467.5,270.1 468,270.3 468,269.5ZM463,266.5C463,266.2 462.8,266 462.5,266C462.2,266 462,266.2 462,266.5C462,266.8 462.2,267 462.5,267C462.8,267 463,266.8 463,266.5ZM461,265.5C461,265.3 460,264.6 458.8,264L456.5,262.9L458.4,264.4C460.5,266.1 461,266.3 461,265.5Z" style="fill:rgb(155,56,149);fill-rule:nonzero;"/>
                <path id="pOMbwh9Iq" d="M356,430.1C356,429.5 356.5,428.8 357,428.5L358,427.9L358,431L357,431C356.5,431 356,430.6 356,430.1Z" style="fill:rgb(155,56,149);fill-rule:nonzero;"/>
                <path id="pQ6Xz3y0f" d="M500.3,218.1L485,209.4L486.3,208L487.5,206.7L486.3,207.4L485,208.1L485,168.4L486.3,166.8C486.9,165.9 493.9,161.5 501.8,157.1L516.1,148.9L519.9,150.1L520,188.6L520,227L517.7,226.9L515.5,226.8L500.3,218.1ZM518,223.5C518,223.3 516.7,222.4 515,221.5C511.2,219.6 511,220.4 514.8,222.4C517.9,224.1 518,224.2 518,223.5ZM511,219.5C511,219.3 509.7,218.4 508,217.5C504.2,215.6 504,216.4 507.8,218.4C510.9,220.1 511,220.2 511,219.5ZM504,215.5C504,215.2 503.8,215 503.5,215C503.2,215 503,215.2 503,215.5C503,215.8 503.2,216 503.5,216C503.8,216 504,215.8 504,215.5ZM502,214.5C502,214.3 501,213.6 499.8,213L497.5,211.9L499.4,213.4C501.5,215.1 502,215.3 502,214.5ZM497,211.5C497,211.2 496.8,211 496.5,211C496.2,211 496,211.2 496,211.5C496,211.8 496.2,212 496.5,212C496.8,212 497,211.8 497,211.5ZM495,210.5C495,210.3 494,209.6 492.8,209L490.5,207.9L492.4,209.4C494.5,211.1 495,211.3 495,210.5ZM490,207.5C490,207.2 489.8,207 489.5,207C489.2,207 489,207.2 489,207.5C489,207.8 489.2,208 489.5,208C489.8,208 490,207.8 490,207.5ZM487.7,168.3L487,167.7L486.3,168.3L485.7,169L488.3,169L487.7,168.3ZM495,165.4C495,165.2 493.7,165.6 492,166.5C490.4,167.4 489,168.3 489,168.6C489,168.8 490.4,168.4 492,167.5C493.7,166.6 495,165.7 495,165.4ZM502,161.4C502,161.2 500.7,161.6 499,162.5C497.4,163.4 496,164.3 496,164.6C496,164.8 497.4,164.4 499,163.5C500.7,162.6 502,161.7 502,161.4ZM509,157.4C509,157.2 507.7,157.6 506,158.5C504.4,159.4 503,160.3 503,160.6C503,160.8 504.4,160.4 506,159.5C507.7,158.6 509,157.7 509,157.4ZM511,156.5C511,156.2 510.8,156 510.5,156C510.2,156 510,156.2 510,156.5C510,156.8 510.2,157 510.5,157C510.8,157 511,156.8 511,156.5ZM516,153.4C516,153.2 515.1,153.4 514,154C512.9,154.6 512,155.3 512,155.6C512,155.8 512.9,155.6 514,155C515.1,154.4 516,153.7 516,153.4ZM518,152.5C518,152.2 517.8,152 517.5,152C517.2,152 517,152.2 517,152.5C517,152.8 517.2,153 517.5,153C517.8,153 518,152.8 518,152.5Z" style="fill:rgb(155,56,149);fill-rule:nonzero;"/>
            </g>
        </g>
        <g id="l27eMSkvh1LMboQPdGnXqQ8" transform="matrix(0.355698,0,0,0.355698,1661.28,1133.32)">
            <g>
                <path id="pF0iFLDgm" d="M290.6,322L293,319.6L293,281.2L297,280.2L297,320.1L295.8,319.4L294.5,318.6L295.9,320.3L297.2,322L290.6,322Z" style="fill:rgb(236,49,75);fill-rule:nonzero;"/>
                <path id="p1BYFotM5Q" d="M391.8,150.9L390,149.9L390,132L390.9,132C391.4,132 392.3,132.6 392.9,133.4L394.1,134.8L393.8,143.3L393.5,151.9L391.8,150.9Z" style="fill:rgb(236,49,75);fill-rule:nonzero;"/>
            </g>
        </g>
        <g id="lVQ1W8LaA7zfCgebKJ1oqk" transform="matrix(0.355698,0,0,0.355698,1661.28,1133.32)">
            <g>
                <path id="p79W8ycQ3" d="M197,564.1L197,561L198,561C198.6,561 199,561.4 199,561.9C199,562.5 198.6,563.2 198,563.5L197,564.1Z" style="fill:rgb(229,31,117);fill-rule:nonzero;"/>
                <path id="pOaH7qXp7" d="M180.5,553.7C172.2,548.9 164.8,544.5 164,543.9L162.5,542.8L164.5,543.5L166.5,544.1L165.2,542.9C164.6,542.2 164,541.2 164,540.8L164,540L167.3,540L183.1,549.1C191.9,554.1 199,558.3 199,558.6C199,558.8 198.2,559.8 197.2,560.8L195.5,562.5L180.5,553.7ZM196,560.5C196,560.3 194.7,559.4 193,558.5C189.2,556.6 189,557.4 192.8,559.4C195.9,561.1 196,561.2 196,560.5ZM189,556.5C189,556.3 187.7,555.4 186,554.5C182.2,552.6 182,553.4 185.8,555.4C188.9,557.1 189,557.2 189,556.5ZM182,552.5C182,552.3 180.7,551.4 179,550.5C175.2,548.6 175,549.4 178.8,551.4C181.9,553.1 182,553.2 182,552.5ZM175,548.5C175,548.2 174.8,548 174.5,548C174.2,548 174,548.2 174,548.5C174,548.8 174.2,549 174.5,549C174.8,549 175,548.8 175,548.5ZM173,547.5C173,547.3 172,546.6 170.8,546L168.5,544.9L170.4,546.4C172.5,548.1 173,548.3 173,547.5ZM168,544.5C168,544.2 167.8,544 167.5,544C167.2,544 167,544.2 167,544.5C167,544.8 167.2,545 167.5,545C167.8,545 168,544.8 168,544.5Z" style="fill:rgb(229,31,117);fill-rule:nonzero;"/>
                <path id="pDbCw2OnZ" d="M211,499.3L196.6,490.8L195.8,493L189,493L189,492.2C189,491.7 190.8,490.4 193,489.1L197,486.9L197,449.5L206.3,444.2C211.3,441.4 217.8,437.7 220.6,436L225.7,433L243.3,443.1L261,453.1L261,487L260.2,487C259.7,487 258.5,487.7 257.4,488.5L255.5,490.1L258.6,488.6L261.6,487.1L263,488C263.8,488.5 264.2,489.1 264,489.3C262.3,490.8 232.2,508 231.2,508L230,508L230,506.9C230,506.2 230.8,505.1 231.8,504.3L233.5,502.9L231.3,504L229,505.1L229,508L227.3,507.9L225.5,507.8L211,499.3ZM228,504.5C228,504.3 226.7,503.4 225,502.5C221.2,500.6 221,501.4 224.8,503.4C227.9,505.1 228,505.2 228,504.5ZM238,500.4C238,500.2 237.1,500.4 236,501C234.9,501.6 234,502.3 234,502.6C234,502.8 234.9,502.6 236,502C237.1,501.4 238,500.7 238,500.4ZM221,500.5C221,500.3 220,499.6 218.8,499L216.5,497.9L218.4,499.4C220.5,501.1 221,501.3 221,500.5ZM245,496.4C245,496.2 243.7,496.6 242,497.5C240.4,498.4 239,499.3 239,499.6C239,499.8 240.4,499.4 242,498.5C243.7,497.6 245,496.7 245,496.4ZM216,497.5C216,497.3 214.7,496.4 213,495.5C209.2,493.6 209,494.4 212.8,496.4C215.9,498.1 216,498.2 216,497.5ZM250,493.4C250,493.2 249.1,493.4 248,494C246.9,494.6 246,495.3 246,495.6C246,495.8 246.9,495.6 248,495C249.1,494.4 250,493.7 250,493.4ZM209,493.5C209,493.3 208,492.6 206.8,492L204.5,490.9L206.4,492.4C208.5,494.1 209,494.3 209,493.5ZM255,490.4C255,490.2 254.1,490.4 253,491C251.9,491.6 251,492.3 251,492.6C251,492.8 251.9,492.6 253,492C254.1,491.4 255,490.7 255,490.4ZM204,490.5C204,490.2 203.8,490 203.5,490C203.2,490 203,490.2 203,490.5C203,490.8 203.2,491 203.5,491C203.8,491 204,490.8 204,490.5ZM202,489.5C202,489.3 201,488.6 199.8,488L197.5,486.9L199.4,488.4C201.5,490.1 202,490.3 202,489.5Z" style="fill:rgb(229,31,117);fill-rule:nonzero;"/>
                <path id="p9jOAF6pq" d="M183.5,499.9L178.7,497.3L180.9,496C183.6,494.6 184.3,495.1 183.8,497.8L183.5,499.9Z" style="fill:rgb(229,31,117);fill-rule:nonzero;"/>
                <path id="pOAWFEr6w" d="M262,487L262,483.9L263,484.5C263.6,484.8 264,485.5 264,486.1C264,486.6 263.6,487 263,487L262,487Z" style="fill:rgb(229,31,117);fill-rule:nonzero;"/>
                <path id="pUgiB29EI" d="M259.6,377.2L259,376.2L260.5,375.6L262,375.1L262,372L266,372L266,375L264.8,375C264.2,375 262.9,375.7 261.9,376.6L260.2,378.1L259.6,377.2Z" style="fill:rgb(229,31,117);fill-rule:nonzero;"/>
                <path id="pXzgUEkrI" d="M306.8,330.7L291.2,321.5L294,318.3L294,299.9L294.1,281.5L309.8,272.6C318.4,267.6 325.8,263.1 326.3,262.6L327,261.5L326.8,300.5L326.5,339.5L322.5,339.9L306.8,330.7ZM325,336.5C325,336.3 324,335.6 322.8,335L320.5,333.9L322.4,335.4C324.5,337.1 325,337.3 325,336.5ZM320,333.5C320,333.2 319.8,333 319.5,333C319.2,333 319,333.2 319,333.5C319,333.8 319.2,334 319.5,334C319.8,334 320,333.8 320,333.5ZM318,332.5C318,332.3 317,331.6 315.8,331L313.5,329.9L315.4,331.4C317.5,333.1 318,333.3 318,332.5ZM313,329.5C313,329.3 311.7,328.4 310,327.5C306.2,325.6 306,326.4 309.8,328.4C312.9,330.1 313,330.2 313,329.5ZM306,325.5C306,325.3 304.7,324.4 303,323.5C299.2,321.6 299,322.4 302.8,324.4C305.9,326.1 306,326.2 306,325.5ZM299,321.5C299,321.3 298,320.6 296.8,320L294.5,318.9L296.4,320.4C298.5,322.1 299,322.3 299,321.5Z" style="fill:rgb(229,31,117);fill-rule:nonzero;"/>
                <path id="pPuw59Fmd" d="M424.3,170L424.8,168.1L424,168.3C423.5,168.4 415.9,164.5 407.1,159.5L391.1,150.5L391,141.2L391,131.8L395.3,135.1C397.6,136.9 405.5,144.3 412.8,151.6L426,164.8L426,166.1C426,166.7 426.8,167.9 427.8,168.6L429.5,170L428,171C427.2,171.5 425.9,172 425.1,172L423.8,172L424.3,170Z" style="fill:rgb(229,31,117);fill-rule:nonzero;"/>
                <path id="pcpcCeeO9" d="M448.2,156C443.3,148.2 424.3,128.8 409.8,116.8L400,108.7L411.7,101.9C418.1,98.2 423.6,95.2 423.9,95.4C424.2,95.6 432.3,100.1 441.8,105.5L459,115.2L459,152.1L457.8,151.4L456.5,150.6L458.9,153.6L454.4,155.8C452,157 449.8,158 449.7,158C449.6,158 448.9,157.1 448.2,156ZM450.5,154L451.1,153L449.6,153.6C447.8,154.3 447.5,155 448.9,155C449.5,155 450.2,154.6 450.5,154ZM453,152.5C453,152.2 452.8,152 452.5,152C452.2,152 452,152.2 452,152.5C452,152.8 452.2,153 452.5,153C452.8,153 453,152.8 453,152.5ZM455,151.5C455,151.2 454.8,151 454.5,151C454.2,151 454,151.2 454,151.5C454,151.8 454.2,152 454.5,152C454.8,152 455,151.8 455,151.5Z" style="fill:rgb(229,31,117);fill-rule:nonzero;"/>
            </g>
        </g>
        <g id="l6UFfcxo6B0f725vueQnNxr" transform="matrix(0.355698,0,0,0.355698,1661.28,1133.32)">
            <g>
                <path id="pV6t4L3qD" d="M82.7,497.7C74.1,492.7 67,488.2 67,487.7L67,486.9L69.3,488L71.5,489.1L69.7,487.7L67.9,486.2L68.5,456.6L77.5,451.4L82.4,456.9C90,465.5 101.6,476.4 111.8,484.7L121.1,492.3L119.3,493.5C118.3,494.1 113.7,496.8 109,499.5C104.3,502.1 100,504.9 99.5,505.5L98.5,506.8L82.7,497.7ZM98.9,504.6C98.7,504.4 97.4,503.7 96,503.1L93.5,501.9L95.4,503.4C97,504.7 100.3,505.8 98.9,504.6ZM93,501.5C93,501.3 92,500.6 90.8,500L88.5,498.9L90.4,500.4C92.5,502.1 93,502.3 93,501.5ZM88,498.5C88,498.3 87,497.6 85.8,497L83.5,495.9L85.4,497.4C87.5,499.1 88,499.3 88,498.5ZM83,495.5C83,495.2 82.8,495 82.5,495C82.2,495 82,495.2 82,495.5C82,495.8 82.2,496 82.5,496C82.8,496 83,495.8 83,495.5ZM81,494.5C81,494.3 80,493.6 78.8,493L76.5,491.9L78.4,493.4C80.5,495.1 81,495.3 81,494.5ZM76,491.5C76,491.3 75,490.6 73.8,490L71.5,488.9L73.4,490.4C75.5,492.1 76,492.3 76,491.5Z" style="fill:rgb(241,88,51);fill-rule:nonzero;"/>
                <path id="pVgUSQ1l8" d="M64,487L64,484L67,484L67,487L64,487Z" style="fill:rgb(241,88,51);fill-rule:nonzero;"/>
                <path id="p1DD13Zwcy" d="M125.5,465.8C122.8,463.5 115.7,456.9 109.8,451.1L99,440.5L99,438.4L102.6,436.7L106.1,435L107.3,435.6L108.5,436.3L107.3,434.9L106,433.6L106,390.4L108.2,388.2L106.5,388.3L104.7,388.5L104.3,387.4L103.9,386.2L114.8,380.1C120.8,376.8 126.2,374 126.8,374L128,374L128,377L127.2,377C126.7,377 125.5,377.7 124.4,378.5L122.5,380.1L125.6,378.6L128.6,377.2L146.3,387.3L164,397.5L163.9,414L163.9,430.5L132.7,448.5L131.3,448.3L129.8,448.2L132,450.4L132,470L131.3,470C130.8,470 128.3,468.1 125.5,465.8ZM129,447.5C129,447.3 127.7,446.4 126,445.5C122.2,443.6 122,444.4 125.8,446.4C128.9,448.1 129,448.2 129,447.5ZM122,443.5C122,443.3 121,442.6 119.8,442L117.5,440.9L119.4,442.4C121.5,444.1 122,444.3 122,443.5ZM117,440.5C117,440.2 116.8,440 116.5,440C116.2,440 116,440.2 116,440.5C116,440.8 116.2,441 116.5,441C116.8,441 117,440.8 117,440.5ZM115,439.5C115,439.3 114,438.6 112.8,438L110.5,436.9L112.4,438.4C114.5,440.1 115,440.3 115,439.5ZM110,436.5C110,436.2 109.8,436 109.5,436C109.2,436 109,436.2 109,436.5C109,436.8 109.2,437 109.5,437C109.8,437 110,436.8 110,436.5ZM115,384.4C115,384.2 113.7,384.6 112,385.5C110.4,386.4 109,387.3 109,387.6C109,387.8 110.4,387.4 112,386.5C113.7,385.6 115,384.7 115,384.4ZM122,380.4C122,380.2 120.7,380.6 119,381.5C117.4,382.4 116,383.3 116,383.6C116,383.8 117.4,383.4 119,382.5C120.7,381.6 122,380.7 122,380.4Z" style="fill:rgb(241,88,51);fill-rule:nonzero;"/>
                <path id="pXliMUicx" d="M194.7,339.3L194,338.7L194,262.1L195.2,261.4L196.3,260.7L195.6,262.6L194.9,264.4L195.6,263.8L196.3,263.1L202.5,266.1L200.6,264.5C199.5,263.7 198.3,263 197.8,263C197.4,263 197,262.4 197,261.7L197,260.4L227.8,242.9C244.7,233.2 259.2,225 260,224.8L261.5,224.3L260.9,262.7L245.2,271.7L229.5,280.8L226.5,279.3L223.5,277.9L225.4,279.5C226.5,280.3 227.7,281 228.2,281L229,281L229,318.6L213.3,327.6C204.6,332.5 197,336.4 196.4,336.4L195.3,336.3L195.7,338.1C196.2,340.1 195.8,340.5 194.7,339.3ZM223,277.5C223,277.3 221.7,276.4 220,275.5C216.2,273.6 216,274.4 219.8,276.4C222.9,278.1 223,278.2 223,277.5ZM216,273.5C216,273.3 214.7,272.4 213,271.5C209.2,269.6 209,270.4 212.8,272.4C215.9,274.1 216,274.2 216,273.5ZM209,269.5C209,269.3 207.7,268.4 206,267.5C202.2,265.6 202,266.4 205.8,268.4C208.9,270.1 209,270.2 209,269.5Z" style="fill:rgb(241,88,51);fill-rule:nonzero;"/>
                <path id="pFRdawgyT" d="M278.3,158.3L262,148.8L262,134.7L262.1,120.5L281.1,109.8L300.2,99.1L303.4,100.6L306.5,102.1L304.6,100.5C303.5,99.7 302.3,99 301.8,99L301,99L301,53.5L313.6,46.2L326.2,39L342.1,48.1L358,57.1L358,84.2L356.3,83.7C355.3,83.4 349.1,81.1 342.5,78.6C335.9,76.1 329.9,74.1 329.2,74L327.9,74L328.5,98.2L335.3,100.8L342.1,103.3L341.3,104C340.9,104.4 337.3,106.6 333.4,108.8L326.3,112.7L322.5,110.9L324.3,112.3L326,113.7L326,150.5L310.7,159.3C302.3,164.1 295.2,168 295,167.9C294.7,167.9 287.2,163.5 278.3,158.3ZM322,110.5C322,110.2 321.8,110 321.5,110C321.2,110 321,110.2 321,110.5C321,110.8 321.2,111 321.5,111C321.8,111 322,110.8 322,110.5ZM320,109.5C320,109.3 319,108.6 317.8,108L315.5,106.9L317.4,108.4C319.5,110.1 320,110.3 320,109.5ZM315,106.5C315,106.2 314.8,106 314.5,106C314.2,106 314,106.2 314,106.5C314,106.8 314.2,107 314.5,107C314.8,107 315,106.8 315,106.5ZM313,105.5C313,105.3 311.7,104.4 310,103.5C306.2,101.6 306,102.4 309.8,104.4C312.9,106.1 313,106.2 313,105.5Z" style="fill:rgb(241,88,51);fill-rule:nonzero;"/>
            </g>
        </g>
        <g id="l2ar7CtJmspPij72d7WXctJ" transform="matrix(0.355698,0,0,0.355698,1661.28,1133.32)">
            <g>
                <path id="pyh3nFwOH" d="M359,543.2L359,516L368.8,511.1C376.9,507 384.2,502.7 398.1,493.7L399.7,492.7L410.9,498.9C417,502.4 422.2,505.5 422.4,505.8L422.8,506.5L395.7,522.2C380.7,530.8 366.4,539.1 363.8,540.5L359,543.2Z" style="fill:rgb(144,79,160);fill-rule:nonzero;"/>
                <path id="ptNr7Yh1K" d="M387,472L387,448L387.8,448C388.2,448 389.1,448.5 389.8,449.2L391,450.4L391,469.5L389,470.8L387,472Z" style="fill:rgb(144,79,160);fill-rule:nonzero;"/>
                <path id="pn6jdXKES" d="M488.7,385.7L483,382.5L483.6,381C487.3,372.5 494.4,343.2 495.6,331.3L496.3,325L497.3,325C497.8,325 503.1,327.8 509.1,331.2L520,337.4L520,374.5L507.8,381.5C501.1,385.4 495.4,388.6 495.1,388.7C494.8,388.8 491.9,387.5 488.7,385.7Z" style="fill:rgb(144,79,160);fill-rule:nonzero;"/>
                <path id="p14sNTK8J4" d="M459.2,368.9L456,366.8L456,337.5L463.4,333.2C467.4,330.9 471,329 471.5,329L472.2,329L471.5,334.8C470.9,340.2 465.1,363.9 463.3,368.7L462.5,370.9L459.2,368.9Z" style="fill:rgb(144,79,160);fill-rule:nonzero;"/>
            </g>
        </g>
        <g id="l3LuSgDkBsUOwSf5opgqUfM" transform="matrix(0.355698,0,0,0.355698,1661.28,1133.32)">
            <g>
                <path id="p116kPkaMp" d="M227.8,581.2L197,563.5L197,562.6C197,562.1 197.8,561.1 198.7,560.3L200.5,558.9L198.4,559.9L196.2,561L195.1,559.7L194.1,558.4L210.2,549.2C219,544.1 226.9,540 227.6,540L229,540L229,542.9L231.3,544L233.5,545.1L231.8,543.7L230,542.3L230,536.4L256.8,536.5L283.5,536.5L294.1,534.9L293.8,538.7L293.5,542.4L277.5,551.6C268.7,556.6 261.3,560.6 261,560.5C260.7,560.3 260.6,568.9 260.8,579.6L261.1,599L259.8,599C259.1,599 244.7,591 227.8,581.2ZM259,559.5C259,559.3 257.7,558.4 256,557.5C252.2,555.6 252,556.4 255.8,558.4C258.9,560.1 259,560.2 259,559.5ZM207,555.4C207,555.2 205.7,555.6 204,556.5C202.4,557.4 201,558.3 201,558.6C201,558.8 202.4,558.4 204,557.5C205.7,556.6 207,555.7 207,555.4ZM252,555.5C252,555.3 251,554.6 249.8,554L247.5,552.9L249.4,554.4C251.5,556.1 252,556.3 252,555.5ZM214,551.4C214,551.2 212.7,551.6 211,552.5C209.4,553.4 208,554.3 208,554.6C208,554.8 209.4,554.4 211,553.5C212.7,552.6 214,551.7 214,551.4ZM247,552.5C247,552.2 246.8,552 246.5,552C246.2,552 246,552.2 246,552.5C246,552.8 246.2,553 246.5,553C246.8,553 247,552.8 247,552.5ZM245,551.5C245,551.3 244,550.6 242.8,550L240.5,548.9L242.4,550.4C244.5,552.1 245,552.3 245,551.5ZM221,547.4C221,547.2 219.7,547.6 218,548.5C216.4,549.4 215,550.3 215,550.6C215,550.8 216.4,550.4 218,549.5C219.7,548.6 221,547.7 221,547.4ZM240,548.5C240,548.2 239.8,548 239.5,548C239.2,548 239,548.2 239,548.5C239,548.8 239.2,549 239.5,549C239.8,549 240,548.8 240,548.5ZM238,547.5C238,547.3 237,546.6 235.8,546L233.5,544.9L235.4,546.4C237.5,548.1 238,548.3 238,547.5ZM223,546.5C223,546.2 222.8,546 222.5,546C222.2,546 222,546.2 222,546.5C222,546.8 222.2,547 222.5,547C222.8,547 223,546.8 223,546.5ZM228,543.4C228,543.2 227.1,543.4 226,544C224.9,544.6 224,545.3 224,545.6C224,545.8 224.9,545.6 226,545C227.1,544.4 228,543.7 228,543.4Z" style="fill:rgb(205,45,146);fill-rule:nonzero;"/>
                <path id="pkdrVVoqy" d="M246,513.3C244.1,513.2 239.7,512.7 236.3,512.4L230,511.8L230,505.4L245.7,496.3L261.3,487.1L265.5,489.1L263.8,487.7L262,486.3L262,452.3L296.4,432.3L300,434.3L303.5,436.2L301.6,434.6C300.6,433.8 299.2,432.9 298.6,432.6L297.5,432.2L299,431.1L300.5,430.1L306.1,433.3C309.1,435.1 315.5,438.8 320.3,441.5L329,446.5L329,488.2L327.7,487.1L326.3,486L310.1,495.6L293.9,505.1L291.5,503.7L292.8,505.1L294,506.4L294,510.9L292.3,511.4C291.3,511.7 285.3,512.4 279,513L267.5,514L258.5,513.8C253.6,513.7 247.9,513.5 246,513.3ZM291,503.5C291,503.3 289.7,502.4 288,501.5C284.2,499.6 284,500.4 287.8,502.4C290.9,504.1 291,504.2 291,503.5ZM284,499.5C284,499.3 283,498.6 281.8,498L279.5,496.9L281.4,498.4C283.5,500.1 284,500.3 284,499.5ZM279,496.5C279,496.3 277.7,495.4 276,494.5C272.2,492.6 272,493.4 275.8,495.4C278.9,497.1 279,497.2 279,496.5ZM272,492.5C272,492.3 271,491.6 269.8,491L267.5,489.9L269.4,491.4C271.5,493.1 272,493.3 272,492.5ZM267,489.5C267,489.2 266.8,489 266.5,489C266.2,489 266,489.2 266,489.5C266,489.8 266.2,490 266.5,490C266.8,490 267,489.8 267,489.5ZM327.5,449C327.8,448.5 327.9,448 327.6,448C327.3,448 326.8,448.5 326.5,449C326.2,449.6 326.1,450 326.4,450C326.7,450 327.2,449.6 327.5,449ZM325,448.5C325,448.3 324,447.6 322.8,447L320.5,445.9L322.4,447.4C324.5,449.1 325,449.3 325,448.5ZM320,445.5C320,445.2 319.8,445 319.5,445C319.2,445 319,445.2 319,445.5C319,445.8 319.2,446 319.5,446C319.8,446 320,445.8 320,445.5ZM318,444.5C318,444.3 317,443.6 315.8,443L313.5,441.9L315.4,443.4C317.5,445.1 318,445.3 318,444.5ZM313,441.5C313,441.3 312,440.6 310.8,440L308.5,438.9L310.4,440.4C312.5,442.1 313,442.3 313,441.5ZM308,438.5C308,438.3 307,437.6 305.8,437L303.5,435.9L305.4,437.4C307.5,439.1 308,439.3 308,438.5Z" style="fill:rgb(205,45,146);fill-rule:nonzero;"/>
                <path id="p13PQ5x9ac" d="M227.6,507.1L226.8,505.9L228,504.7L228.6,505.3C228.9,505.6 229,506.4 228.8,507.1L228.4,508.4L227.6,507.1Z" style="fill:rgb(205,45,146);fill-rule:nonzero;"/>
                <path id="p11Mb6i6cK" d="M323,341.1L323,335.9L325,337C326.1,337.6 327,338.3 327,338.5C327,338.7 326.1,339.4 325,340L323,341.1Z" style="fill:rgb(205,45,146);fill-rule:nonzero;"/>
                <path id="piocks3EV" d="M455.8,226.2L455.3,224.4L439.6,215.5L424,206.6L424,168.9L425.7,168.3L427.3,167.7L429.7,170.6C431,172.2 435.3,178.2 439.2,184L446.2,194.4L452.8,207.9L459.3,221.3L458.1,223.2L456.9,225.2L458,224.5L459.2,223.7L460,225.1L460.9,226.4L460.4,227.2C460.1,227.6 459.1,228 458.1,228L456.2,228L455.8,226.2Z" style="fill:rgb(205,45,146);fill-rule:nonzero;"/>
                <path id="pkcIB9P5x" d="M477.6,205.3C472.5,193.5 461.9,174.9 454.3,164.2L448,155.5L452,153.1L456,150.8L456,148L457.4,148C458.2,148 466,152.2 474.9,157.2L490.9,166.5L489.8,167.7L488.8,168.9L485.6,167.4L482.5,165.9L484.4,167.5C485.5,168.3 486.7,169 487.2,169L488,169L488,206.9L489.7,207.9C490.7,208.4 491.3,209 491,209.2C489.7,210.3 482.8,214 482.2,214C481.8,214 479.7,210.1 477.6,205.3ZM487,207.4C487,207.2 485.7,207.6 484,208.5C482.4,209.4 481,210.3 481,210.6C481,210.8 482.4,210.4 484,209.5C485.7,208.6 487,207.7 487,207.4ZM482,165.5C482,165.3 481,164.6 479.8,164L477.5,162.9L479.4,164.4C481.5,166.1 482,166.3 482,165.5ZM477,162.5C477,162.2 476.8,162 476.5,162C476.2,162 476,162.2 476,162.5C476,162.8 476.2,163 476.5,163C476.8,163 477,162.8 477,162.5ZM475,161.5C475,161.3 474,160.6 472.8,160L470.5,158.9L472.4,160.4C474.5,162.1 475,162.3 475,161.5ZM470,158.5C470,158.3 468.7,157.4 467,156.5C463.2,154.6 463,155.4 466.8,157.4C469.9,159.1 470,159.2 470,158.5ZM463,154.5C463,154.3 461.7,153.4 460,152.5C456.2,150.6 456,151.4 459.8,153.4C462.9,155.1 463,155.2 463,154.5Z" style="fill:rgb(205,45,146);fill-rule:nonzero;"/>
                <path id="p8WcJPlnm" d="M508,154.5L508,152L514.9,152L515.2,150.1L515.5,148.1L517.9,149.4L520.2,150.7L514.6,153.8C511.5,155.6 508.8,157 508.5,157C508.2,157 508,155.9 508,154.5Z" style="fill:rgb(205,45,146);fill-rule:nonzero;"/>
            </g>
        </g>
        <g id="l3O3k0OT8fuP6NI8cwrB1Zn" transform="matrix(0.355698,0,0,0.355698,1661.28,1133.32)">
            <g>
                <path id="pvQSBkA9K" d="M22,386.6L22,384.7L21.4,385.3L20.8,385.8L16.9,381.9L16,382.5L15,383.1L15,380.9L14.1,381.4L13.2,382L12.6,380.4L12,378.9L11.1,379.4L10.2,380L8.4,378.3C7.4,377.3 6.4,376.6 6.1,376.6C5.8,376.7 4.9,376.5 4.3,376.3L3,375.8L3,372L4.6,372C6.2,372 12.9,375.7 14,377.1C14.3,377.4 15.5,378 16.8,378.4L19,379.1L19,382L20.9,382C22,382 23.5,382.3 24.4,382.6L26,383.2L26,386.9L24,386.7L22,386.6Z" style="fill:rgb(219,139,38);fill-rule:nonzero;"/>
                <path id="p13UPIWxxE" d="M1,375.3L1.2,371.5L2.2,374.1L1,375.3Z" style="fill:rgb(219,139,38);fill-rule:nonzero;"/>
                <path id="p1ATsRLg3p" d="M145.3,162.7L129.1,153.5L129,143.1L129,132.7L130.8,131.3C131.7,130.6 137,126.9 142.5,123.2L152.5,116.4L163.5,110.8C169.6,107.8 176.8,104.5 179.5,103.5L184.5,101.8L191.8,106L199,110.2L199,111.1C199,111.9 197.8,112.3 196,112.2C195.7,112.2 195.5,121.1 195.5,132L195.5,151.8L196.3,151.3C196.7,151.1 197,150.2 197,149.4L197,147.9L197.9,148.4L198.8,149L198.8,153.9L182.9,162.9L167,172L161.5,172L145.3,162.7ZM164,168.6C164,168.4 163.3,167.9 162.4,167.6L160.9,167L161.5,168C162.1,169 164,169.4 164,168.6ZM166,168.5C166,168.2 165.8,168 165.5,168C165.2,168 165,168.2 165,168.5C165,168.8 165.2,169 165.5,169C165.8,169 166,168.8 166,168.5ZM171,165.4C171,165.2 170.1,165.4 169,166C167.9,166.6 167,167.3 167,167.6C167,167.8 167.9,167.6 169,167C170.1,166.4 171,165.7 171,165.4ZM160,166.5C160,166.2 159.8,166 159.5,166C159.2,166 159,166.2 159,166.5C159,166.8 159.2,167 159.5,167C159.8,167 160,166.8 160,166.5ZM158,165.5C158,165.3 157,164.6 155.8,164L153.5,162.9L155.4,164.4C157.5,166.1 158,166.3 158,165.5ZM173,164.5C173,164.2 172.8,164 172.5,164C172.2,164 172,164.2 172,164.5C172,164.8 172.2,165 172.5,165C172.8,165 173,164.8 173,164.5ZM178,161.4C178,161.2 177.1,161.4 176,162C174.9,162.6 174,163.3 174,163.6C174,163.8 174.9,163.6 176,163C177.1,162.4 178,161.7 178,161.4ZM153,162.5C153,162.2 152.8,162 152.5,162C152.2,162 152,162.2 152,162.5C152,162.8 152.2,163 152.5,163C152.8,163 153,162.8 153,162.5ZM151,161.5C151,161.3 150,160.6 148.8,160L146.5,158.9L148.4,160.4C150.5,162.1 151,162.3 151,161.5ZM180,160.5C180,160.2 179.8,160 179.5,160C179.2,160 179,160.2 179,160.5C179,160.8 179.2,161 179.5,161C179.8,161 180,160.8 180,160.5ZM185,157.4C185,157.2 184.1,157.4 183,158C181.9,158.6 181,159.3 181,159.6C181,159.8 181.9,159.6 183,159C184.1,158.4 185,157.7 185,157.4ZM146,158.5C146,158.3 144.7,157.4 143,156.5C139.2,154.6 139,155.4 142.8,157.4C145.9,159.1 146,159.2 146,158.5ZM187,156.5C187,156.2 186.8,156 186.5,156C186.2,156 186,156.2 186,156.5C186,156.8 186.2,157 186.5,157C186.8,157 187,156.8 187,156.5ZM192,153.4C192,153.2 191.1,153.4 190,154C188.9,154.6 188,155.3 188,155.6C188,155.8 188.9,155.6 190,155C191.1,154.4 192,153.7 192,153.4ZM139,154.5C139,154.3 138,153.6 136.8,153L134.5,151.9L136.4,153.4C138.5,155.1 139,155.3 139,154.5ZM194,152.5C194,152.2 193.8,152 193.5,152C193.2,152 193,152.2 193,152.5C193,152.8 193.2,153 193.5,153C193.8,153 194,152.8 194,152.5ZM131,151.5C131,151.2 130.8,151 130.5,151C130.2,151 130,151.2 130,151.5C130,151.8 130.2,152 130.5,152C130.8,152 131,151.8 131,151.5ZM134,151.5C134,151.2 133.8,151 133.5,151C133.2,151 133,151.2 133,151.5C133,151.8 133.2,152 133.5,152C133.8,152 134,151.8 134,151.5ZM194,111.5C194,111.3 193,110.6 191.8,110L189.5,108.9L191.4,110.4C193.5,112.1 194,112.3 194,111.5ZM189,108.5C189,108.2 188.8,108 188.5,108C188.2,108 188,108.2 188,108.5C188,108.8 188.2,109 188.5,109C188.8,109 189,108.8 189,108.5ZM187,107.5C187,107.3 186,106.6 184.8,106L182.5,104.9L184.4,106.4C186.5,108.1 187,108.3 187,107.5ZM182,104.5C182,104.2 181.8,104 181.5,104C181.2,104 181,104.2 181,104.5C181,104.8 181.2,105 181.5,105C181.8,105 182,104.8 182,104.5Z" style="fill:rgb(219,139,38);fill-rule:nonzero;"/>
                <path id="pL5vMDA7r" d="M197,116.1L197,113L198,113C198.6,113 199,113.4 199,113.9C199,114.5 198.6,115.2 198,115.5L197,116.1Z" style="fill:rgb(219,139,38);fill-rule:nonzero;"/>
            </g>
        </g>
        <g id="l1LH0hWG0cjyH1eI04XgN64" transform="matrix(0.355698,0,0,0.355698,1661.28,1133.32)">
            <g>
                <path id="pHXJwlQgP" d="M33.3,469.2L3,451.5L3,449.5L15.6,442.2L28.2,434.8L47.4,445.8L66.5,456.9L66.8,471.9L67.1,487L63.5,486.8L33.3,469.2Z" style="fill:rgb(243,112,50);fill-rule:nonzero;"/>
                <path id="pwFshIe6t" d="M55.8,430.7L45,424.5L45,399.5L55.8,393.3C61.8,389.8 67,387 67.4,387C67.7,387 72.8,389.7 78.5,393.1L89,399.2L89,424.7L78.4,430.9C72.6,434.2 67.5,437 67.2,436.9C66.8,436.9 61.7,434.1 55.8,430.7Z" style="fill:rgb(243,112,50);fill-rule:nonzero;"/>
                <path id="pHr1IodQ4" d="M86.7,378.2L68,367.5L68.2,351.8C68.4,343.2 68.3,336.2 68,336.2C66.3,336.3 65,335.9 65,335.1L65,334.3L80.9,325.1C89.7,320.1 97.4,316 98,316L99.2,316L98.8,317.8L98.3,319.7L100.7,319.7L100.2,317.8L99.8,316L101,316C101.7,316 108,319.3 115,323.3L127.8,330.5L128,376.5L117,382.8C111,386.2 105.9,389 105.8,389C105.6,389 97.1,384.1 86.7,378.2ZM71,335.5C71,335.2 70.8,335 70.5,335C70.2,335 70,335.2 70,335.5C70,335.8 70.2,336 70.5,336C70.8,336 71,335.8 71,335.5ZM76,332.4C76,332.2 75.1,332.4 74,333C72.9,333.6 72,334.3 72,334.6C72,334.8 72.9,334.6 74,334C75.1,333.4 76,332.7 76,332.4ZM126,333.5C126,333.2 125.8,333 125.5,333C125.2,333 125,333.2 125,333.5C125,333.8 125.2,334 125.5,334C125.8,334 126,333.8 126,333.5ZM124,332.5C124,332.3 122.7,331.4 121,330.5C117.2,328.6 117,329.4 120.8,331.4C123.9,333.1 124,333.2 124,332.5ZM83,328.4C83,328.2 81.7,328.6 80,329.5C78.4,330.4 77,331.3 77,331.6C77,331.8 78.4,331.4 80,330.5C81.7,329.6 83,328.7 83,328.4ZM117,328.5C117,328.3 115.7,327.4 114,326.5C110.2,324.6 110,325.4 113.8,327.4C116.9,329.1 117,329.2 117,328.5ZM90,324.4C90,324.2 88.7,324.6 87,325.5C85.4,326.4 84,327.3 84,327.6C84,327.8 85.4,327.4 87,326.5C88.7,325.6 90,324.7 90,324.4ZM110,324.5C110,324.2 109.8,324 109.5,324C109.2,324 109,324.2 109,324.5C109,324.8 109.2,325 109.5,325C109.8,325 110,324.8 110,324.5ZM95,321.4C95,321.2 94.1,321.4 93,322C91.9,322.6 91,323.3 91,323.6C91,323.8 91.9,323.6 93,323C94.1,322.4 95,321.7 95,321.4ZM108,323.5C108,323.3 107,322.6 105.8,322L103.5,320.9L105.4,322.4C107.5,324.1 108,324.3 108,323.5ZM97,320.5C97,320.2 96.8,320 96.5,320C96.2,320 96,320.2 96,320.5C96,320.8 96.2,321 96.5,321C96.8,321 97,320.8 97,320.5ZM103,320.5C103,320.2 102.8,320 102.5,320C102.2,320 102,320.2 102,320.5C102,320.8 102.2,321 102.5,321C102.8,321 103,320.8 103,320.5Z" style="fill:rgb(243,112,50);fill-rule:nonzero;"/>
                <path id="p1q638Ebj" d="M65.6,339.1L64.8,337.9L66,336.7L66.6,337.3C66.9,337.6 67,338.4 66.8,339.1L66.4,340.4L65.6,339.1Z" style="fill:rgb(243,112,50);fill-rule:nonzero;"/>
                <path id="pBvfNmR6P" d="M194,263.1C194,262.6 194.5,261.8 195,261.5L196,260.9L196,261.9C196,262.4 195.6,263.2 195,263.5L194,264.1L194,263.1Z" style="fill:rgb(243,112,50);fill-rule:nonzero;"/>
                <path id="psNFVREm9" d="M261,224.5C261,224.2 261.2,224 261.5,224C261.8,224 262,224.2 262,224.5C262,224.8 261.8,225 261.5,225C261.2,225 261,224.8 261,224.5Z" style="fill:rgb(243,112,50);fill-rule:nonzero;"/>
                <path id="p14dpwkdWN" d="M161,205.1L161,168.2L162.9,168.7L164.9,169.2L180.9,160L197,150.9L197,113.7L198.8,112.3L200.5,110.9L198.4,111.9L196.4,112.9L194.9,111.9L193.5,111L195,110C195.8,109.5 201.7,106.1 208.1,102.5L219.7,96L223,96L223,96.9C223,97.4 222,98.5 220.8,99.4L218.5,101.1L220.8,100L223,98.9L241.8,109.8L260.5,120.6L260.5,148.3L245.5,156.7C237.3,161.4 215.9,173.7 198,184C180.1,194.3 164.5,203.2 163.3,203.9L161,205.1ZM225,166.5C225,166.2 224.8,166 224.5,166C224.2,166 224,166.2 224,166.5C224,166.8 224.2,167 224.5,167C224.8,167 225,166.8 225,166.5ZM223,165.5C223,165.3 222,164.6 220.8,164L218.5,162.9L220.4,164.4C222.5,166.1 223,166.3 223,165.5ZM218,162.5C218,162.2 217.8,162 217.5,162C217.2,162 217,162.2 217,162.5C217,162.8 217.2,163 217.5,163C217.8,163 218,162.8 218,162.5ZM216,161.5C216,161.3 215,160.6 213.8,160L211.5,158.9L213.4,160.4C215.5,162.1 216,162.3 216,161.5ZM211,158.5C211,158.2 210.8,158 210.5,158C210.2,158 210,158.2 210,158.5C210,158.8 210.2,159 210.5,159C210.8,159 211,158.8 211,158.5ZM209,157.5C209,157.3 208,156.6 206.8,156L204.5,154.9L206.4,156.4C208.5,158.1 209,158.3 209,157.5ZM204,154.5C204,154.2 203.8,154 203.5,154C203.2,154 203,154.2 203,154.5C203,154.8 203.2,155 203.5,155C203.8,155 204,154.8 204,154.5ZM202,153.5C202,153.3 201,152.6 199.8,152L197.5,150.9L199.4,152.4C201.5,154.1 202,154.3 202,153.5ZM202,110.5C202,110.2 201.8,110 201.5,110C201.2,110 201,110.2 201,110.5C201,110.8 201.2,111 201.5,111C201.8,111 202,110.8 202,110.5ZM209,106.4C209,106.2 207.7,106.6 206,107.5C204.4,108.4 203,109.3 203,109.6C203,109.8 204.4,109.4 206,108.5C207.7,107.6 209,106.7 209,106.4ZM211,105.5C211,105.2 210.8,105 210.5,105C210.2,105 210,105.2 210,105.5C210,105.8 210.2,106 210.5,106C210.8,106 211,105.8 211,105.5ZM216,102.4C216,102.2 215.1,102.4 214,103C212.9,103.6 212,104.3 212,104.6C212,104.8 212.9,104.6 214,104C215.1,103.4 216,102.7 216,102.4ZM218,101.5C218,101.2 217.8,101 217.5,101C217.2,101 217,101.2 217,101.5C217,101.8 217.2,102 217.5,102C217.8,102 218,101.8 218,101.5Z" style="fill:rgb(243,112,50);fill-rule:nonzero;"/>
                <path id="pB9CvJxwZ" d="M250.5,95.1L240.5,89.2L240.2,76.2L239.9,63.3L250.4,57.1C256.2,53.8 261.1,51 261.4,51C261.6,51 266.6,53.7 272.4,57.1L283,63.2L283,88.8L272.6,94.9C266.8,98.3 261.8,101 261.3,101C260.9,100.9 256,98.3 250.5,95.1Z" style="fill:rgb(243,112,50);fill-rule:nonzero;"/>
            </g>
        </g>
        <g id="l3YTwgQspDIkgY47wzookJN" transform="matrix(0.355698,0,0,0.355698,1661.28,1133.32)">
            <g>
                <path id="p1DZ7zt6FQ" d="M180.5,551.6L164.5,542.4L163.9,516.8L164.7,517.2C165.1,517.3 170.3,519.4 176.2,521.8L187,526.1L200.2,529.4C207.5,531.3 217,533.4 221.3,534.1L229,535.4L229,542.5L218.8,548.2C213.1,551.4 205.8,555.5 202.5,557.3L196.5,560.7L180.5,551.6Z" style="fill:rgb(238,59,138);fill-rule:nonzero;"/>
                <path id="pkRgy3FhD" d="M212.5,508.5C202.4,506.2 185.4,500.8 181.2,498.6L179,497.4L196.8,487L212.9,496.3L228.9,505.5L229,508.3L229,511L225.8,510.9C224,510.9 218,509.8 212.5,508.5Z" style="fill:rgb(238,59,138);fill-rule:nonzero;"/>
                <path id="pn8I6MMWn" d="M262,375.1L262,337.4L278,328.3L293.9,319.2L310,328.3L326,337.5L326,339.6L295.8,357C279.3,366.6 264.9,374.6 263.8,374.8L262,375.1Z" style="fill:rgb(238,59,138);fill-rule:nonzero;"/>
            </g>
        </g>
        <g id="l6E9lba9us5Armh47m4NTg" transform="matrix(0.355698,0,0,0.355698,1661.28,1133.32)">
            <g>
                <path id="p1165VhaQY" d="M326,451.2C326,450.8 326.5,449.9 327.1,449.3L328.2,448.2L326.8,448.3L325.4,448.5L311.7,440.5C304.2,436.1 298,432.3 298,432C298,431.7 311.4,423.8 327.8,414.4L357.5,397.3L357.8,413.8L358,430.2L356.3,431.7L354.5,433.1L356.9,432L359.2,430.8L360.3,431.9C360.9,432.5 361.2,433.2 360.9,433.4C360.7,433.6 353.5,437.9 344.9,442.9L329.3,452L326,452L326,451.2ZM330,447.5C330,447.2 329.8,447 329.5,447C329.2,447 329,447.2 329,447.5C329,447.8 329.2,448 329.5,448C329.8,448 330,447.8 330,447.5ZM335,444.4C335,444.2 334.1,444.4 333,445C331.9,445.6 331,446.3 331,446.6C331,446.8 331.9,446.6 333,446C334.1,445.4 335,444.7 335,444.4ZM340,441.4C340,441.2 339.1,441.4 338,442C336.9,442.6 336,443.3 336,443.6C336,443.8 336.9,443.6 338,443C339.1,442.4 340,441.7 340,441.4ZM342,440.5C342,440.2 341.8,440 341.5,440C341.2,440 341,440.2 341,440.5C341,440.8 341.2,441 341.5,441C341.8,441 342,440.8 342,440.5ZM347,437.4C347,437.2 346.1,437.4 345,438C343.9,438.6 343,439.3 343,439.6C343,439.8 343.9,439.6 345,439C346.1,438.4 347,437.7 347,437.4ZM354,433.4C354,433.2 352.7,433.6 351,434.5C349.4,435.4 348,436.3 348,436.6C348,436.8 349.4,436.4 351,435.5C352.7,434.6 354,433.7 354,433.4Z" style="fill:rgb(209,73,154);fill-rule:nonzero;"/>
                <path id="pjpw4Kest" d="M472.1,159.6L456.1,150.5L456,132.3C456,122.2 456.2,114 456.4,114C456.5,114 470.2,121.8 486.6,131.3C503,140.8 517.3,149.1 518.2,149.6L520,150.6L504.1,159.7L488.1,168.8L472.1,159.6Z" style="fill:rgb(209,73,154);fill-rule:nonzero;"/>
            </g>
        </g>
        <g id="l5malgpGicmjFHQujszRcdi" transform="matrix(0.355698,0,0,0.355698,1661.28,1133.32)">
            <g>
                <path id="pJErdkIq9" d="M3.7,375.4C3.3,375 3,374 3,373.1L3,371.6L5.2,373.8L4.8,375L4.5,376.1L3.7,375.4Z" style="fill:rgb(223,177,43);fill-rule:nonzero;"/>
                <path id="p3y3YeBth" d="M1.3,354.3L1.1,334L5,334L5,334.9C5,335.4 4.3,336 3.5,336.4L2,336.9L1.4,374.5L1.3,354.3Z" style="fill:rgb(223,177,43);fill-rule:nonzero;"/>
                <path id="pC8Jxfk0f" d="M3,340.1L3,337L4,337C4.6,337 5,337.4 5,337.9C5,338.5 4.6,339.2 4,339.5L3,340.1Z" style="fill:rgb(223,177,43);fill-rule:nonzero;"/>
            </g>
        </g>
        <g id="l4X4RDTL52XC9aMQABPhhvJ" transform="matrix(0.355698,0,0,0.355698,1661.28,1133.32)">
            <g>
                <path id="ptF8TKv8t" d="M335.4,491.6L326.5,486.4L326.5,449.6L342.6,440.3L358.8,430.9L374.4,440.1L390,449.2L390,469.8L386.3,472.8C376.8,480.1 358.2,491.1 347.9,495.4L344.4,496.9L335.4,491.6Z" style="fill:rgb(178,99,167);fill-rule:nonzero;"/>
                <path id="poBQHcXjM" d="M494.6,264.3L492.9,252.7L490,241.6C488.4,235.5 485.6,226.2 483.7,220.9L480.3,211.4L484.2,209.2L488.2,207.1L520,225.3L520,262.8L508.8,269.1C502.6,272.5 497.2,275.4 496.9,275.6L496.4,275.9L494.6,264.3Z" style="fill:rgb(178,99,167);fill-rule:nonzero;"/>
                <path id="p19l9xUKm0" d="M463.3,266.7L456,262.5L456,225.2L457.7,224.6L459.3,223.9L460.2,225.2C462.7,229 472,263.9 472,269.4L472,271L471.3,270.9C470.8,270.9 467.2,269 463.3,266.7Z" style="fill:rgb(178,99,167);fill-rule:nonzero;"/>
            </g>
        </g>
        <g id="l55fP8TLMm0BrzYd56wphyR" transform="matrix(0.355698,0,0,0.355698,1661.28,1133.32)">
            <g>
                <path id="p18hvga100" d="M1,451.3L1,448.7L1.7,449.3L2.3,450L1.7,450.7L1,451.3Z" style="fill:rgb(250,164,48);fill-rule:nonzero;"/>
                <path id="p1BEoCoNLU" d="M23,386.1C20.5,384.6 15.1,381.5 11,379.3L3.5,375.2L3.2,356.1L3,337L3.8,337C4.2,337 5.5,336.3 6.6,335.5L8.5,333.9L5.3,335.4L2.1,337L1.4,335.9L0.8,334.8L1.6,334C2.1,333.5 6.9,330.6 12.2,327.6L21.9,322L25,322L25,322.8C25,323.2 24.4,324.2 23.8,324.9L22.5,326.3L23.6,325.7L24.8,325L25.4,330.8C26.2,337.2 27.7,345.7 29.1,351.2L30,354.9L40.6,348.8L51.2,342.6L50.5,339.6C50.2,337.9 49.3,331.1 48.5,324.5L47,312.5L47.1,300C47.1,293.1 47.4,284.4 47.9,280.6L48.6,273.6L49.7,273.3C50.2,273.1 51.6,272.2 52.6,271.4L54.5,269.9L52.2,271L49.8,272.2L49.3,271.6L48.8,271.1L49.3,269.7L49.9,268.2L57.3,264.1C61.4,261.8 65.3,260 65.9,260L67,260L67,261.1C67,261.8 66.2,262.9 65.3,263.7L63.5,265.1L65.6,264.1C66.8,263.5 67.9,263.2 68.1,263.5C68.3,263.7 68.5,254.9 68.5,244C68.5,233.1 68.3,224.2 68,224.2C66.2,224.3 65,223.9 65,223.1L65,222.2L80.9,213.1C89.6,208.1 97.2,204 97.9,204L99,204L99,205.1C99,205.8 98.2,206.9 97.3,207.7L95.5,209.1L97.5,208.1L99.6,207.2L101.5,208.1L103.5,209.1L101.7,207.7L99.9,206.2L100.2,187.2C100.4,176.7 100.3,168.2 100,168.2C98.3,168.3 97,167.9 97,167.1L97,166.3L113,157.1C121.8,152.1 129.6,148 130.4,148L131.8,148L132.2,149.7L132.7,151.5L148.3,160.5L164,169.4L164,203.6L146.9,213.4L129.9,223.3L127.2,222.1L124.5,221L126.3,222.4L128,223.7L127.8,246.6L127.5,269.4L115,276.7C108.1,280.7 101.9,284 101.3,284L100,284L100,282.9C100,282.2 100.8,281.1 101.8,280.3L103.5,278.9L101.5,279.9L99.4,280.8L97.5,279.9L95.5,278.9L97.3,280.3L99,281.7L99,318.7L83.3,327.8L67.5,336.8L64.5,335.4L61.5,333.9L63.4,335.5C64.5,336.3 65.8,337 66.2,337L67.1,337L66.5,367.4L47.5,378.2C37.1,384.1 28.3,388.9 28,388.9C27.7,388.9 25.5,387.6 23,386.1ZM15,330.4C15,330.2 13.7,330.6 12,331.5C10.4,332.4 9,333.3 9,333.6C9,333.8 10.4,333.4 12,332.5C13.7,331.6 15,330.7 15,330.4ZM61,333.5C61,333.3 60,332.6 58.8,332L56.5,330.9L58.4,332.4C60.5,334.1 61,334.3 61,333.5ZM56,330.5C56,330.3 54.7,329.4 53,328.5C49.2,326.6 49,327.4 52.8,329.4C55.9,331.1 56,331.2 56,330.5ZM22,326.4C22,326.2 20.7,326.6 19,327.5C17.4,328.4 16,329.3 16,329.6C16,329.8 17.4,329.4 19,328.5C20.7,327.6 22,326.7 22,326.4ZM95,278.5C95,278.3 93.7,277.4 92,276.5C88.2,274.6 88,275.4 91.8,277.4C94.9,279.1 95,279.2 95,278.5ZM108,276.4C108,276.2 107.1,276.4 106,277C104.9,277.6 104,278.3 104,278.6C104,278.8 104.9,278.6 106,278C107.1,277.4 108,276.7 108,276.4ZM110,275.5C110,275.2 109.8,275 109.5,275C109.2,275 109,275.2 109,275.5C109,275.8 109.2,276 109.5,276C109.8,276 110,275.8 110,275.5ZM88,274.5C88,274.3 87,273.6 85.8,273L83.5,271.9L85.4,273.4C87.5,275.1 88,275.3 88,274.5ZM115,272.4C115,272.2 114.1,272.4 113,273C111.9,273.6 111,274.3 111,274.6C111,274.8 111.9,274.6 113,274C114.1,273.4 115,272.7 115,272.4ZM83,271.5C83,271.2 82.8,271 82.5,271C82.2,271 82,271.2 82,271.5C82,271.8 82.2,272 82.5,272C82.8,272 83,271.8 83,271.5ZM122,268.4C122,268.2 120.7,268.6 119,269.5C117.4,270.4 116,271.3 116,271.6C116,271.8 117.4,271.4 119,270.5C120.7,269.6 122,268.7 122,268.4ZM81,270.5C81,270.3 80,269.6 78.8,269L76.5,267.9L78.4,269.4C80.5,271.1 81,271.3 81,270.5ZM61,266.4C61,266.2 59.7,266.6 58,267.5C56.4,268.4 55,269.3 55,269.6C55,269.8 56.4,269.4 58,268.5C59.7,267.6 61,266.7 61,266.4ZM76,267.5C76,267.3 74.7,266.4 73,265.5C69.2,263.6 69,264.4 72.8,266.4C75.9,268.1 76,268.2 76,267.5ZM127,265.4C127,265.2 126.1,265.4 125,266C123.9,266.6 123,267.3 123,267.6C123,267.8 123.9,267.6 125,267C126.1,266.4 127,265.7 127,265.4ZM63,265.5C63,265.2 62.8,265 62.5,265C62.2,265 62,265.2 62,265.5C62,265.8 62.2,266 62.5,266C62.8,266 63,265.8 63,265.5ZM76,220.4C76,220.2 74.7,220.6 73,221.5C71.4,222.4 70,223.3 70,223.6C70,223.8 71.4,223.4 73,222.5C74.7,221.6 76,220.7 76,220.4ZM124,220.5C124,220.3 122.7,219.4 121,218.5C117.2,216.6 117,217.4 120.8,219.4C123.9,221.1 124,221.2 124,220.5ZM81,217.4C81,217.2 80.1,217.4 79,218C77.9,218.6 77,219.3 77,219.6C77,219.8 77.9,219.6 79,219C80.1,218.4 81,217.7 81,217.4ZM83,216.5C83,216.2 82.8,216 82.5,216C82.2,216 82,216.2 82,216.5C82,216.8 82.2,217 82.5,217C82.8,217 83,216.8 83,216.5ZM117,216.5C117,216.3 115.7,215.4 114,214.5C110.2,212.6 110,213.4 113.8,215.4C116.9,217.1 117,217.2 117,216.5ZM88,213.4C88,213.2 87.1,213.4 86,214C84.9,214.6 84,215.3 84,215.6C84,215.8 84.9,215.6 86,215C87.1,214.4 88,213.7 88,213.4ZM95,209.4C95,209.2 93.7,209.6 92,210.5C90.4,211.4 89,212.3 89,212.6C89,212.8 90.4,212.4 92,211.5C93.7,210.6 95,209.7 95,209.4ZM110,212.5C110,212.3 108.7,211.4 107,210.5C103.2,208.6 103,209.4 106.8,211.4C109.9,213.1 110,213.2 110,212.5ZM103,167.5C103,167.2 102.8,167 102.5,167C102.2,167 102,167.2 102,167.5C102,167.8 102.2,168 102.5,168C102.8,168 103,167.8 103,167.5ZM108,164.4C108,164.2 107.1,164.4 106,165C104.9,165.6 104,166.3 104,166.6C104,166.8 104.9,166.6 106,166C107.1,165.4 108,164.7 108,164.4ZM110,163.5C110,163.2 109.8,163 109.5,163C109.2,163 109,163.2 109,163.5C109,163.8 109.2,164 109.5,164C109.8,164 110,163.8 110,163.5ZM115,160.4C115,160.2 114.1,160.4 113,161C111.9,161.6 111,162.3 111,162.6C111,162.8 111.9,162.6 113,162C114.1,161.4 115,160.7 115,160.4ZM117,159.5C117,159.2 116.8,159 116.5,159C116.2,159 116,159.2 116,159.5C116,159.8 116.2,160 116.5,160C116.8,160 117,159.8 117,159.5ZM122,156.4C122,156.2 121.1,156.4 120,157C118.9,157.6 118,158.3 118,158.6C118,158.8 118.9,158.6 120,158C121.1,157.4 122,156.7 122,156.4ZM124,155.5C124,155.2 123.8,155 123.5,155C123.2,155 123,155.2 123,155.5C123,155.8 123.2,156 123.5,156C123.8,156 124,155.8 124,155.5ZM129,152.4C129,152.2 128.1,152.4 127,153C125.9,153.6 125,154.3 125,154.6C125,154.8 125.9,154.6 127,154C128.1,153.4 129,152.7 129,152.4ZM131,151.5C131,151.2 130.8,151 130.5,151C130.2,151 130,151.2 130,151.5C130,151.8 130.2,152 130.5,152C130.8,152 131,151.8 131,151.5Z" style="fill:rgb(250,164,48);fill-rule:nonzero;"/>
                <path id="p14sbTFN1p" d="M100.7,319.4C100.3,319 100,318 100,317.1L100,315.6L102.2,317.8L101.8,319L101.5,320.1L100.7,319.4Z" style="fill:rgb(250,164,48);fill-rule:nonzero;"/>
                <path id="p03yZItx5" d="M65.6,227.1L64.8,225.9L66,224.7L66.6,225.3C66.9,225.6 67,226.4 66.8,227.1L66.4,228.4L65.6,227.1Z" style="fill:rgb(250,164,48);fill-rule:nonzero;"/>
                <path id="pa7MgWKzr" d="M97.6,171.1L96.8,169.9L98,168.7L98.6,169.3C98.9,169.6 99,170.4 98.8,171.1L98.4,172.4L97.6,171.1Z" style="fill:rgb(250,164,48);fill-rule:nonzero;"/>
                <path id="p2kB6M9lz" d="M196.5,112.8L179.9,103.2L186.9,100.5C195.9,97.1 212.3,92.4 218.3,91.5L223,90.8L223,97.9L216.3,101.8C212.5,104 206.6,107.3 203,109.3L196.5,112.8Z" style="fill:rgb(250,164,48);fill-rule:nonzero;"/>
                <path id="pXSh3SQAF" d="M161,71.8L161.1,58.5L168.2,55C172.2,53.1 176.2,50.8 177.2,49.8C178.2,48.8 179,48.2 179,48.5C179,48.8 180.4,48.4 182,47.5L185,45.9L185,43.7L185.6,44.3L186.3,44.9L189.1,43.4L192,41.9L192,39.9L193,40.5L193.9,41.1L195.7,39.3C196.7,38.3 210.8,29.8 227,20.5C243.2,11.2 257.5,3 258.8,2.2L261.1,0.7L260.8,16L260.5,31.2L241.8,42.1L223,53.1L220.8,52L218.5,50.9L220.8,52.6L223,54.2L223,66.8L216.3,68C212.5,68.7 204,70.8 197.4,72.6L185.2,75.9L173.7,80.4C167.4,82.9 161.9,85 161.6,85L161,85L161,71.8ZM218,50.5C218,50.2 217.8,50 217.5,50C217.2,50 217,50.2 217,50.5C217,50.8 217.2,51 217.5,51C217.8,51 218,50.8 218,50.5ZM216,49.5C216,49.3 215,48.6 213.8,48L211.5,46.9L213.4,48.4C215.5,50.1 216,50.3 216,49.5ZM211,46.5C211,46.2 210.8,46 210.5,46C210.2,46 210,46.2 210,46.5C210,46.8 210.2,47 210.5,47C210.8,47 211,46.8 211,46.5ZM209,45.5C209,45.3 208,44.6 206.8,44L204.5,42.9L206.4,44.4C208.5,46.1 209,46.3 209,45.5ZM204,42.5C204,42.3 202.7,41.4 201,40.5C197.2,38.6 197,39.4 200.8,41.4C203.9,43.1 204,43.2 204,42.5Z" style="fill:rgb(250,164,48);fill-rule:nonzero;"/>
            </g>
        </g>
        <g id="l1D6nJlnIRITcPV9WMz4rgS" transform="matrix(0.355698,0,0,0.355698,1661.28,1133.32)">
            <g>
                <path id="pgtbEPyic" d="M113.3,326.3L100,318.8L100,281.4L128,265.2L128,334L127.3,333.9C126.8,333.9 120.5,330.5 113.3,326.3Z" style="fill:rgb(247,151,94);fill-rule:nonzero;"/>
            </g>
        </g>
        <g id="l1qVLXUDAe2gbJjQbOTztGk" transform="matrix(0.355698,0,0,0.355698,1661.28,1133.32)">
            <g>
                <path id="pZxzNdW1a" d="M5,335L5,330L12,330L12,326L19,326L19,322L25.2,322L24.8,323.2L24.3,324.5L15.4,329.7C10.5,332.6 6.2,334.9 5.8,335L5,335Z" style="fill:rgb(255,207,40);fill-rule:nonzero;"/>
                <path id="pMKfRbdXz" d="M21.5,278L1.5,266.4L1.3,263L1.1,259.5L2,261.6L2.8,263.7L4.7,264.4L6.5,265L4.8,263.6L3,262.3L3,225.7L4.7,224.4L6.5,223L4.7,223.6L2.8,224.3L2,226.4L1.1,228.5L1.3,225L1.5,221.6L16.5,212.8L31.5,204.1L34.3,204L37.1,204L39.9,205.5L42.8,206.9L39.3,215.6C37.4,220.4 34.3,230 32.4,236.9L28.9,249.5L24.7,274.9L22.5,273.7L23.8,275.1C24.4,275.8 25,276.8 25,277.2L25,278L21.5,278ZM22,273.5C22,273.2 21.8,273 21.5,273C21.2,273 21,273.2 21,273.5C21,273.8 21.2,274 21.5,274C21.8,274 22,273.8 22,273.5ZM20,272.5C20,272.3 19,271.6 17.8,271L15.5,269.9L17.4,271.4C19.5,273.1 20,273.3 20,272.5ZM15,269.5C15,269.2 14.8,269 14.5,269C14.2,269 14,269.2 14,269.5C14,269.8 14.2,270 14.5,270C14.8,270 15,269.8 15,269.5ZM13,268.5C13,268.3 11.7,267.4 10,266.5C6.2,264.6 6,265.4 9.8,267.4C12.9,269.1 13,269.2 13,268.5ZM13,219.4C13,219.2 11.7,219.6 10,220.5C8.4,221.4 7,222.3 7,222.6C7,222.8 8.4,222.4 10,221.5C11.7,220.6 13,219.7 13,219.4ZM18,216.4C18,216.2 17.1,216.4 16,217C14.9,217.6 14,218.3 14,218.6C14,218.8 14.9,218.6 16,218C17.1,217.4 18,216.7 18,216.4ZM20,215.5C20,215.2 19.8,215 19.5,215C19.2,215 19,215.2 19,215.5C19,215.8 19.2,216 19.5,216C19.8,216 20,215.8 20,215.5ZM25,212.4C25,212.2 24.1,212.4 23,213C21.9,213.6 21,214.3 21,214.6C21,214.8 21.9,214.6 23,214C24.1,213.4 25,212.7 25,212.4ZM27,211.5C27,211.2 26.8,211 26.5,211C26.2,211 26,211.2 26,211.5C26,211.8 26.2,212 26.5,212C26.8,212 27,211.8 27,211.5ZM32,208.4C32,208.2 31.1,208.4 30,209C28.9,209.6 28,210.3 28,210.6C28,210.8 28.9,210.6 30,210C31.1,209.4 32,208.7 32,208.4ZM40,209.5C40,209.3 38.7,208.4 37.1,207.5L34.1,206L33.4,207.2L32.7,208.3L33.6,207.7L34.5,207.2L37,208.6C39.9,210.1 40,210.2 40,209.5Z" style="fill:rgb(255,207,40);fill-rule:nonzero;"/>
                <path id="p80YCk7BL" d="M49.4,267.3C50.9,256.9 59.5,225.4 61.5,223.2C61.6,223.1 62.9,223.5 64.4,224.1L67,225.3L67,262.6L58.6,267.3C53.9,269.9 49.8,272 49.5,272L48.8,272L49.4,267.3Z" style="fill:rgb(255,207,40);fill-rule:nonzero;"/>
                <path id="pCcYWWRCb" d="M67.5,224.9L61.9,221.9L62.5,221L63.1,220L73,220L73,216L80,216L80,212L87,212L87,212.8C87,213.2 83.5,215.6 79.3,218C75,220.4 70.6,222.9 69.5,223.6L67.5,224.9Z" style="fill:rgb(255,207,40);fill-rule:nonzero;"/>
                <path id="pQr1xu1C3" d="M94.3,170.7L92,169.4L96.7,164C107,151.8 124.6,135.1 130.8,131.6L132,130.9L132,140.7L131.9,150.5L115.7,159.7L99.5,168.8L97.5,167.9L95.5,166.9L97.3,168.3C98.2,169.1 99,170.2 99,170.9L99,172L97.8,172C97.1,171.9 95.5,171.4 94.3,170.7Z" style="fill:rgb(255,207,40);fill-rule:nonzero;"/>
                <path id="p1H4dGwmCk" d="M67.8,155.4L65,153.9L65,152L66.3,151.9C66.9,151.8 67.7,151.8 68,151.8C68.3,151.8 68.4,143.7 68.2,133.7L67.9,115.5L69.1,110.9L70.9,112.1L73,110C74.1,108.9 75,108.2 75,108.5C75,108.8 76.4,108.4 78,107.5L81,105.9L81,103.9L82,104.5L82.9,105.1L86.8,101.2L87.4,101.7L88,102.3L88,99.9L89,100.5L89.9,101.1L93.8,97.2L94.4,97.7L95,98.3L95,95.9L96.6,96.9L99.4,95.1L101.4,96.1L103.5,97.1L101.6,95.6C100.5,94.7 99.8,93.9 100.1,93.6C100.3,93.4 114.5,85.3 131.5,75.5C148.6,65.8 162.8,57.6 163.3,57.3L164,56.9L163.8,84.5L153.1,89.7C147.3,92.6 138.2,97.8 133,101.1L123.5,107.2L117.5,105L122.1,108.6L115.3,113.5L108.5,118.5L96,130.7C89.1,137.4 81.5,145.3 79,148.4L74.5,153.9L73.4,153.5L72.2,153.2L72.4,154.7L72.5,156.3L71.5,156.6C71,156.8 69.3,156.2 67.8,155.4ZM71,152.5C71,152.2 70.8,152 70.5,152C70.2,152 70,152.2 70,152.5C70,152.8 70.2,153 70.5,153C70.8,153 71,152.8 71,152.5ZM117,104.5C117,104.3 116,103.6 114.8,103L112.5,101.9L114.4,103.4C116.5,105.1 117,105.3 117,104.5ZM112,101.5C112,101.2 111.8,101 111.5,101C111.2,101 111,101.2 111,101.5C111,101.8 111.2,102 111.5,102C111.8,102 112,101.8 112,101.5ZM110,100.5C110,100.3 109,99.6 107.8,99L105.5,97.9L107.4,99.4C109.5,101.1 110,101.3 110,100.5ZM105,97.5C105,97.2 104.8,97 104.5,97C104.2,97 104,97.2 104,97.5C104,97.8 104.2,98 104.5,98C104.8,98 105,97.8 105,97.5Z" style="fill:rgb(255,207,40);fill-rule:nonzero;"/>
                <path id="pAa14Vjpv" d="M65,150.1C65,149.5 65.5,148.8 66,148.5L67,147.9L67,151L66,151C65.5,151 65,150.6 65,150.1Z" style="fill:rgb(255,207,40);fill-rule:nonzero;"/>
                <path id="pNYDJw9OH" d="M65.6,115.1L65,114.2L66.4,113.1L67.8,111.9L67.3,113.9C66.7,116.2 66.4,116.4 65.6,115.1Z" style="fill:rgb(255,207,40);fill-rule:nonzero;"/>
                <path id="pQNgdBMAt" d="M178,48.5C178,48.2 178.2,48 178.5,48C178.8,48 179,48.2 179,48.5C179,48.8 178.8,49 178.5,49C178.2,49 178,48.8 178,48.5Z" style="fill:rgb(255,207,40);fill-rule:nonzero;"/>
                <path id="pgNFultHs" d="M185,44.5C185,44.2 185.2,44 185.5,44C185.8,44 186,44.2 186,44.5C186,44.8 185.8,45 185.5,45C185.2,45 185,44.8 185,44.5Z" style="fill:rgb(255,207,40);fill-rule:nonzero;"/>
                <path id="pQjyjoVhK" d="M192,40.5C192,40.2 192.2,40 192.5,40C192.8,40 193,40.2 193,40.5C193,40.8 192.8,41 192.5,41C192.2,41 192,40.8 192,40.5Z" style="fill:rgb(255,207,40);fill-rule:nonzero;"/>
            </g>
        </g>
        <g id="l65oPgeMUO8CmuplJTJUkXK" transform="matrix(0.355698,0,0,0.355698,1661.28,1133.32)">
            <g>
                <path id="p1DACKVjZA" d="M1,209.2L1,152.4L1.6,151.7L2.3,151.1L6.5,153.1L2.5,149.9L4,149L5.4,148.1L7.4,149.2C15.6,153.4 35.7,165.5 36.8,166.8L38,168.4L38,208.1L34.8,206.3L18.4,215.7L2,225.2L2,263.1L3.5,263.6C4.3,264 5,264.6 5,265.1L5,266L1.1,266L1,209.2ZM34,168.5C34,168.2 33.8,168 33.5,168C33.2,168 33,168.2 33,168.5C33,168.8 33.2,169 33.5,169C33.8,169 34,168.8 34,168.5ZM36.7,168.3L36,167.7L35.3,168.3L34.7,169L37.3,169L36.7,168.3ZM32,167.5C32,167.3 31,166.6 29.8,166L27.5,164.9L29.4,166.4C31.5,168.1 32,168.3 32,167.5ZM27,164.5C27,164.3 25.7,163.4 24,162.5C20.2,160.6 20,161.4 23.8,163.4C26.9,165.1 27,165.2 27,164.5ZM20,160.5C20,160.3 19,159.6 17.8,159L15.5,157.9L17.4,159.4C19.5,161.1 20,161.3 20,160.5ZM15,157.5C15,157.2 14.8,157 14.5,157C14.2,157 14,157.2 14,157.5C14,157.8 14.2,158 14.5,158C14.8,158 15,157.8 15,157.5ZM13,156.5C13,156.3 12,155.6 10.8,155L8.5,153.9L10.4,155.4C12.5,157.1 13,157.3 13,156.5ZM8,153.5C8,153.2 7.8,153 7.5,153C7.2,153 7,153.2 7,153.5C7,153.8 7.2,154 7.5,154C7.8,154 8,153.8 8,153.5Z" style="fill:rgb(213,224,66);fill-rule:nonzero;"/>
                <path id="p3y6ZsO7A" d="M64,115.2C64,114.8 64.9,113.9 65.9,113.3L67.8,112.1L67.3,114.1L66.8,116L65.4,116C64.6,116 64,115.7 64,115.2Z" style="fill:rgb(213,224,66);fill-rule:nonzero;"/>
                <path id="pRF4oRWZT" d="M69,111.5C69,111.2 69.2,111 69.5,111C69.8,111 70,111.2 70,111.5C70,111.8 69.8,112 69.5,112C69.2,112 69,111.8 69,111.5Z" style="fill:rgb(213,224,66);fill-rule:nonzero;"/>
                <path id="p1E4uQFxK4" d="M74,108.5C74,108.2 74.2,108 74.5,108C74.8,108 75,108.2 75,108.5C75,108.8 74.8,109 74.5,109C74.2,109 74,108.8 74,108.5Z" style="fill:rgb(213,224,66);fill-rule:nonzero;"/>
                <path id="pTr4pEuc9" d="M81,104.5C81,104.2 81.2,104 81.5,104C81.8,104 82,104.2 82,104.5C82,104.8 81.8,105 81.5,105C81.2,105 81,104.8 81,104.5Z" style="fill:rgb(213,224,66);fill-rule:nonzero;"/>
                <path id="pnjKOJqHd" d="M86,101.5C86,101.2 86.2,101 86.5,101C86.8,101 87,101.2 87,101.5C87,101.8 86.8,102 86.5,102C86.2,102 86,101.8 86,101.5Z" style="fill:rgb(213,224,66);fill-rule:nonzero;"/>
                <path id="pTKGflO7X" d="M88,100.5C88,100.2 88.2,100 88.5,100C88.8,100 89,100.2 89,100.5C89,100.8 88.8,101 88.5,101C88.2,101 88,100.8 88,100.5Z" style="fill:rgb(213,224,66);fill-rule:nonzero;"/>
                <path id="pdCAw09ef" d="M93,97.5C93,97.2 93.2,97 93.5,97C93.8,97 94,97.2 94,97.5C94,97.8 93.8,98 93.5,98C93.2,98 93,97.8 93,97.5Z" style="fill:rgb(213,224,66);fill-rule:nonzero;"/>
                <path id="pJ9ewrtXk" d="M95,96.5C95,96.2 95.2,96 95.5,96C95.8,96 96,96.2 96,96.5C96,96.8 95.8,97 95.5,97C95.2,97 95,96.8 95,96.5Z" style="fill:rgb(213,224,66);fill-rule:nonzero;"/>
            </g>
        </g>
        <g id="l3EyuFEwnUHPCbSz7B1K8nb" transform="matrix(0.355698,0,0,0.355698,1661.28,1133.32)">
            <g>
                <path id="pDC54s6oV" d="M1.7,336.3L1,335.7L1,264.1L1.8,263.6L2.5,263.2L24.5,275.6L24.3,278.5C24.2,280.2 24,290.1 23.9,300.5L23.7,319.5L25.1,323.9L17.8,328.1C13.8,330.4 8.7,333.4 6.4,334.6L2.3,337L1.7,336.3Z" style="fill:rgb(248,237,58);fill-rule:nonzero;"/>
                <path id="p16x5WdvsW" d="M64.7,223.3L62.1,222L62.9,219.7C65.7,212.6 70.7,202.6 76.2,193.3C82.6,182.3 93.4,167 94.7,167C95.2,167 96.3,167.7 97.3,168.4L99,169.7L99,206.6L83.1,215.6L67.3,224.7L64.7,223.3Z" style="fill:rgb(248,237,58);fill-rule:nonzero;"/>
                <path id="p1AcO1k1To" d="M37.8,208.2L35,206.5L35,170.1L33.3,168.5L31.7,166.8L33.1,165.9C38.1,162.7 64.9,148 65.8,148L67,148L67,151L66.2,151C65.7,151 64.5,151.7 63.4,152.5L61.5,154.1L64.5,152.6L67.5,151.2L70.3,152.6C71.8,153.4 73,154.3 73,154.6C73,154.9 69.7,159.9 65.6,165.8C57.5,177.5 48.9,192.7 44.4,203.3C42.9,207 41.3,210 41,209.9C40.7,209.9 39.3,209.1 37.8,208.2ZM37.5,168L38.1,167L36.6,167.6C34.8,168.3 34.5,169 35.9,169C36.5,169 37.2,168.6 37.5,168ZM40,166.5C40,166.2 39.8,166 39.5,166C39.2,166 39,166.2 39,166.5C39,166.8 39.2,167 39.5,167C39.8,167 40,166.8 40,166.5ZM45,163.4C45,163.2 44.1,163.4 43,164C41.9,164.6 41,165.3 41,165.6C41,165.8 41.9,165.6 43,165C44.1,164.4 45,163.7 45,163.4ZM47,162.5C47,162.2 46.8,162 46.5,162C46.2,162 46,162.2 46,162.5C46,162.8 46.2,163 46.5,163C46.8,163 47,162.8 47,162.5ZM52,159.4C52,159.2 51.1,159.4 50,160C48.9,160.6 48,161.3 48,161.6C48,161.8 48.9,161.6 50,161C51.1,160.4 52,159.7 52,159.4ZM54,158.5C54,158.2 53.8,158 53.5,158C53.2,158 53,158.2 53,158.5C53,158.8 53.2,159 53.5,159C53.8,159 54,158.8 54,158.5ZM61,154.4C61,154.2 59.7,154.6 58,155.5C56.4,156.4 55,157.3 55,157.6C55,157.8 56.4,157.4 58,156.5C59.7,155.6 61,154.7 61,154.4Z" style="fill:rgb(248,237,58);fill-rule:nonzero;"/>
            </g>
        </g>
        <g id="l6RX04TOhsiB3D9clfPRlYw" transform="matrix(0.355698,0,0,0.355698,1661.28,1133.32)">
            <g>
                <path id="p13nC0NNoU" d="M34,170.5L34,168.3L18.5,159.5C10,154.6 3,150.3 3,150C3.1,149.6 30.8,133.4 61.2,116.2L67,112.9L67,150.5L51.2,159.4C42.6,164.3 35.2,168.8 34.8,169.4L34,170.5Z" style="fill:rgb(239,236,89);fill-rule:nonzero;"/>
            </g>
        </g>
    </g>
</svg>
