<?xml version="1.0" encoding="UTF-8" standalone="no"?><!DOCTYPE svg PUBLIC "-//W3C//DTD SVG 1.1//EN" "http://www.w3.org/Graphics/SVG/1.1/DTD/svg11.dtd"><svg width="100%" height="100%" viewBox="0 0 339 339" version="1.1" xmlns="http://www.w3.org/2000/svg" xmlns:xlink="http://www.w3.org/1999/xlink" xml:space="preserve" xmlns:serif="http://www.serif.com/" style="fill-rule:evenodd;clip-rule:evenodd;stroke-linejoin:round;stroke-miterlimit:2;"><circle cx="169.365" cy="169.365" r="169.365" style="fill:#4ee0fe;"/><clipPath id="_clip1"><circle cx="169.365" cy="169.365" r="169.365"/></clipPath><g clip-path="url(#_clip1)"><g><g><path d="M103.765,237.255c5.209,-31.627 49.015,-27.412 55.883,-13.721c13.106,-7.623 54.084,-5.332 47.471,37.423c25.478,46.23 -31.619,63.368 -45.601,44.528c-18.678,17.239 -36.919,21.135 -54.2,-4.328c-49.338,11.972 -55.112,-67.233 -3.553,-63.902Z" style="fill:#fff;"/><path d="M74.953,174.587l79.115,0c7.237,10.962 8.327,24.872 3.267,41.731c-19,-13.601 -48.037,-9.143 -57.175,16.038l-12.772,1.322c-19.122,-15.448 -24.327,-34.844 -12.435,-59.091Z" style="fill:#fff;"/></g><g><path d="M99.068,118.805l-24.115,-0l0,24.114l24.115,0l-0,-24.114Zm-17.095,3.437l-3.361,0l-0,17.811l3.361,0l-0,-17.811Zm7,0l-3.361,0l-0,17.811l3.361,0l-0,-17.811Zm7,0l-3.361,0l-0,17.811l3.361,0l-0,-17.811Z" style="fill:#fff;"/><path d="M126.068,118.805l-24.115,-0l0,24.114l24.115,0l-0,-24.114Zm-17.095,3.437l-3.361,0l-0,17.811l3.361,0l-0,-17.811Zm7,0l-3.361,0l-0,17.811l3.361,0l-0,-17.811Zm7,0l-3.361,0l-0,17.811l3.361,0l-0,-17.811Z" style="fill:#fff;"/><path d="M99.068,145.805l-24.115,-0l0,24.114l24.115,0l-0,-24.114Zm-17.095,3.437l-3.361,0l-0,17.811l3.361,0l-0,-17.811Zm7,0l-3.361,0l-0,17.811l3.361,0l-0,-17.811Zm7,0l-3.361,0l-0,17.811l3.361,0l-0,-17.811Z" style="fill:#fff;"/><path d="M126.068,145.805l-24.115,-0l0,24.114l24.115,0l-0,-24.114Zm-17.095,3.437l-3.361,0l-0,17.811l3.361,0l-0,-17.811Zm7,0l-3.361,0l-0,17.811l3.361,0l-0,-17.811Zm7,0l-3.361,0l-0,17.811l3.361,0l-0,-17.811Z" style="fill:#fff;"/><path d="M154.068,145.805l-24.115,-0l0,24.114l24.115,0l-0,-24.114Zm-17.095,3.437l-3.361,0l-0,17.811l3.361,0l-0,-17.811Zm7,0l-3.361,0l-0,17.811l3.361,0l-0,-17.811Zm7,0l-3.361,0l-0,17.811l3.361,0l-0,-17.811Z" style="fill:#fff;"/><path d="M154.068,129.919l-0,-45.865l-4.776,0l0,21.751l-15.68,-0l-0,-21.751l-3.659,0l0,45.865l24.115,0Zm-17.095,-20.677l-3.361,0l-0,17.811l3.361,0l-0,-17.811Zm7,0l-3.361,0l-0,17.811l3.361,0l-0,-17.811Zm7,0l-3.361,0l-0,17.811l3.361,0l-0,-17.811Z" style="fill:#fff;"/></g><path d="M184.852,30.559l0,-11.867l-7.854,0l-0,12.449l-76.092,45.059l-38.173,-0l-0,7.854l114.265,0l-0,131.594l7.854,0l0,-131.594l8.146,0l-0,133.106c3.374,1.918 5.942,4.056 7.854,6.374l0,-139.48l75.146,0l-0,-7.854l-14.072,-0l-77.074,-45.641Zm0,9.129l0,36.512l61.658,-0l-61.658,-36.512Zm-68.53,36.512l60.676,-0l-0,-35.93l-60.676,35.93Z" style="fill:#fff;"/></g></g></svg>