<?xml version="1.0" encoding="UTF-8" standalone="no"?>
<!DOCTYPE svg PUBLIC "-//W3C//DTD SVG 1.1//EN" "http://www.w3.org/Graphics/SVG/1.1/DTD/svg11.dtd">
<svg width="100%" height="100%" viewBox="0 0 6559 6559" version="1.1" xmlns="http://www.w3.org/2000/svg" xmlns:xlink="http://www.w3.org/1999/xlink" xml:space="preserve" xmlns:serif="http://www.serif.com/" style="fill-rule:evenodd;clip-rule:evenodd;stroke-linejoin:round;stroke-miterlimit:2;">
    <g transform="matrix(1,0,0,1,-6.13186e-05,1.47184e-05)">
        <g transform="matrix(34.9778,0,0,-34.9778,4902.26,12896.6)">
            <g id="ink_ext_XXXXXX">
                <g id="g2248">
                    <g id="path2188" transform="matrix(1,0,0,-1,0,0)">
                        <circle cx="-46.403" cy="-274.958" r="90" style="fill:rgb(255,230,213);"/>
                    </g>
                    <path id="path568" d="M-108.102,258.507L-91.925,277.508L29.558,277.911L13.791,258.507L-108.102,258.507" style="fill:rgb(131,51,27);fill-rule:nonzero;"/>
                    <g id="path570" transform="matrix(0.75,0,0,-0.75,0,500)">
                        <path d="M-144.135,321.99L-144.135,390.074C-131.902,390.619 -122.463,395.329 -122.449,400.895L3.322,400.895C2.328,399.467 1.815,397.928 1.814,396.371C1.817,390.521 9.063,385.583 18.389,385.078L18.389,321.99L-144.135,321.99Z" style="fill:rgb(248,163,123);fill-rule:nonzero;"/>
                    </g>
                    <path id="path572" d="M-38.324,249.896C-36.362,250.956 -33.333,254.14 -35.202,257.324C-35.548,257.913 -35.886,258.292 -36.21,258.507L-28.065,258.507C-29.125,256.174 -32.955,253.352 -32.955,253.352C-32.955,253.352 -33.268,252.746 -34.966,251.411C-35.927,250.657 -37.307,250.174 -38.324,249.896M-62.365,250.027C-63.366,250.492 -64.82,251.289 -65.843,252.375C-67.551,254.188 -67.895,256.566 -67.895,256.566L-69.103,258.507L-64.25,258.507C-64.574,258.292 -64.911,257.913 -65.257,257.324C-67.054,254.262 -64.322,251.2 -62.365,250.027M-40.078,250.988C-41.143,251.092 -43.118,251.36 -45.093,252.018C-48.004,252.988 -49.702,255.171 -49.702,255.171C-49.702,255.171 -52.977,253.17 -57.343,252.375C-58.801,252.11 -59.751,252.021 -60.371,252.021L-60.4,252.021C-60.487,253.485 -60.787,255.05 -60.787,255.05C-60.787,255.05 -61.614,257.703 -62.855,258.507L-37.604,258.507C-38.845,257.703 -39.673,255.05 -39.673,255.05C-39.673,255.05 -40.137,252.625 -40.078,250.988" style="fill:rgb(218,132,93);fill-rule:nonzero;"/>
                    <path id="path574" d="M-60.787,255.05C-60.787,255.05 -59.864,250.229 -60.787,249.592C-61.709,248.955 -67.713,253.14 -65.257,257.324C-62.801,261.508 -60.787,255.05 -60.787,255.05" style="fill:rgb(222,230,227);fill-rule:nonzero;"/>
                    <path id="path576" d="M-39.673,255.05C-39.673,255.05 -40.595,250.229 -39.673,249.592C-38.75,248.955 -32.746,253.14 -35.202,257.324C-37.658,261.508 -39.673,255.05 -39.673,255.05" style="fill:rgb(222,230,227);fill-rule:nonzero;"/>
                    <path id="path578" d="M-75.274,295.46C-74.157,290.125 -77.576,284.894 -82.911,283.777C-88.246,282.66 -93.476,286.079 -94.593,291.414C-95.71,296.749 -92.291,301.98 -86.956,303.097C-81.621,304.214 -76.391,300.795 -75.274,295.46" style="fill:rgb(212,84,30);fill-rule:nonzero;"/>
                    <path id="path580" d="M-79.137,301.411C-81.313,302.992 -84.116,303.692 -86.956,303.097C-92.291,301.98 -95.71,296.749 -94.593,291.414C-94.35,290.253 -93.903,289.19 -93.311,288.237C-88.962,289.716 -82.378,293.244 -79.137,301.411" style="fill:rgb(133,46,27);fill-rule:nonzero;"/>
                    <path id="path582" d="M-79.556,294.563C-78.935,291.593 -80.838,288.682 -83.808,288.06C-86.777,287.438 -89.689,289.341 -90.311,292.311C-90.933,295.281 -89.029,298.192 -86.06,298.814C-83.09,299.436 -80.178,297.533 -79.556,294.563" style="fill:white;fill-rule:nonzero;"/>
                    <path id="path584" d="M-11.971,297.295C-14.263,297.295 -16.398,298.751 -17.156,301.047C-18.097,303.901 -16.554,306.979 -13.707,307.934C-12.129,308.479 -4.449,311.534 -6.747,318.699C-8.407,323.879 -11.547,324.633 -20.827,325.618C-22.529,325.798 -24.288,325.986 -26.116,326.247C-32.683,327.185 -37.512,329.901 -40.467,334.319C-44.779,340.764 -43.089,348.07 -42.882,348.881C-42.138,351.803 -39.165,353.564 -36.242,352.824C-33.32,352.079 -31.555,349.106 -32.3,346.184C-32.298,346.184 -33.04,342.793 -31.354,340.339C-30.186,338.638 -27.904,337.535 -24.571,337.058C-22.939,336.825 -21.279,336.649 -19.674,336.478C-11.051,335.563 -0.319,334.422 3.653,322.035C7.881,308.848 -2.351,300.18 -10.259,297.571C-10.827,297.384 -11.404,297.295 -11.971,297.295" style="fill:rgb(226,89,30);fill-rule:nonzero;"/>
                    <path id="path588" d="M-31.354,340.339L-31.516,340.601C-35.116,338.301 -39.662,337.81 -42.207,337.733C-41.781,336.595 -41.22,335.444 -40.467,334.319C-39.501,332.874 -38.314,331.631 -36.951,330.553C-32.167,331.346 -28.315,334.933 -26.194,337.368C-28.649,337.941 -30.388,338.932 -31.354,340.339" style="fill:rgb(133,46,27);fill-rule:nonzero;"/>
                    <path id="path590" d="M-19.759,325.501C-15.846,325.068 -13.104,324.639 -11.137,323.813C-9.788,326.053 -7.905,329.77 -7.207,333.96C-10.104,335.127 -13.223,335.699 -16.237,336.086C-15.974,333.37 -16.159,328.688 -19.759,325.501" style="fill:rgb(133,46,27);fill-rule:nonzero;"/>
                    <path id="path592" d="M4.156,311.991C4.769,314.479 4.829,317.247 4.131,320.269C3.056,319.4 1.674,318.612 -0.071,318.159C-3.025,317.391 -5.137,317.438 -6.479,317.65C-5.898,314.703 -7.056,312.522 -8.629,310.976C-3.777,308.857 0.964,310.323 4.156,311.991" style="fill:rgb(133,46,27);fill-rule:nonzero;"/>
                    <path id="path594" d="M-6.447,314.857C-6.45,314.858 -6.453,314.86 -6.456,314.861C-6.444,314.925 -6.432,314.989 -6.422,315.054L-6.421,315.056L-6.393,315.294C-6.362,315.545 -6.341,315.8 -6.337,316.064L-6.336,316.224C-6.34,316.562 -6.363,316.909 -6.417,317.271L-6.416,317.27C-6.482,317.72 -6.583,318.186 -6.738,318.674C-6.627,318.322 -6.539,317.981 -6.473,317.649C-6.475,317.649 -6.477,317.649 -6.479,317.65C-6.278,316.629 -6.285,315.7 -6.447,314.857M-6.739,318.677C-6.742,318.684 -6.744,318.692 -6.747,318.699C-7.603,321.37 -8.852,322.864 -11.133,323.82C-8.852,322.864 -7.603,321.37 -6.747,318.699C-6.744,318.692 -6.742,318.684 -6.739,318.677M-19.757,325.502C-20.104,325.541 -20.461,325.579 -20.827,325.618C-22.529,325.798 -24.288,325.986 -26.117,326.247C-26.165,326.254 -26.214,326.261 -26.263,326.269C-26.214,326.261 -26.165,326.254 -26.116,326.247C-24.288,325.986 -22.529,325.798 -20.827,325.618C-20.461,325.579 -20.104,325.541 -19.757,325.502M-26.297,326.274C-26.304,326.275 -26.312,326.276 -26.32,326.277C-26.312,326.276 -26.305,326.275 -26.297,326.274M-26.372,326.285L-26.375,326.285L-26.372,326.285" style="fill:rgb(131,186,210);fill-rule:nonzero;"/>
                    <path id="path596" d="M3.323,309.507C2.715,309.96 2.094,310.397 1.458,310.818C2.42,311.152 3.309,311.551 4.104,311.964C4.117,311.956 4.129,311.947 4.141,311.938C3.93,311.094 3.653,310.285 3.323,309.507M-4.665,317.515C-5.375,317.515 -5.977,317.571 -6.473,317.649C-6.539,317.981 -6.627,318.322 -6.738,318.674C-6.739,318.675 -6.739,318.676 -6.739,318.677C-6.742,318.684 -6.744,318.692 -6.747,318.699C-7.603,321.37 -8.852,322.864 -11.133,323.82C-10.639,324.64 -10.074,325.659 -9.521,326.826C-6.772,325.718 -4.896,324.005 -3.505,321.223C-2.939,320.092 -2.748,318.872 -2.81,317.631C-3.495,317.549 -4.113,317.515 -4.665,317.515M-19.757,325.502C-20.104,325.541 -20.461,325.579 -20.827,325.618C-22.529,325.798 -24.288,325.986 -26.116,326.247C-26.165,326.254 -26.214,326.261 -26.263,326.269C-26.274,326.27 -26.286,326.272 -26.297,326.274C-26.305,326.275 -26.312,326.276 -26.32,326.277C-26.338,326.28 -26.355,326.282 -26.372,326.285L-26.375,326.285C-31.253,327.022 -35.144,328.766 -38.015,331.463C-37.674,331.147 -37.319,330.844 -36.951,330.553C-36.383,330.647 -35.828,330.781 -35.287,330.947C-32.535,330.054 -29.066,329.302 -24.85,329.06C-22.055,328.9 -19.604,328.734 -17.447,328.504C-17.987,327.436 -18.734,326.409 -19.757,325.502" style="fill:rgb(186,74,31);fill-rule:nonzero;"/>
                    <path id="path598" d="M-36.951,330.553C-37.319,330.844 -37.674,331.147 -38.015,331.463C-38.321,331.75 -38.615,332.048 -38.898,332.356C-37.874,331.882 -36.671,331.397 -35.287,330.947C-35.828,330.781 -36.383,330.647 -36.951,330.553" style="fill:rgb(111,39,23);fill-rule:nonzero;"/>
                    <path id="path600" d="M-11.133,323.82C-13.103,324.645 -15.84,325.069 -19.757,325.502C-18.734,326.409 -17.987,327.436 -17.447,328.504C-14.192,328.158 -11.605,327.666 -9.521,326.826C-10.074,325.659 -10.639,324.64 -11.133,323.82" style="fill:rgb(111,39,23);fill-rule:nonzero;"/>
                    <path id="path602" d="M1.458,310.818C-0.973,312.43 -3.605,313.808 -6.447,314.857C-6.285,315.7 -6.278,316.629 -6.479,317.65C-6.477,317.649 -6.475,317.649 -6.473,317.649C-5.977,317.571 -5.375,317.515 -4.665,317.515C-4.113,317.515 -3.495,317.549 -2.81,317.631C-2.837,317.082 -2.914,316.53 -3.029,315.979C-0.478,314.876 1.905,313.525 4.104,311.964C3.309,311.551 2.42,311.152 1.458,310.818" style="fill:rgb(111,39,23);fill-rule:nonzero;"/>
                    <path id="path604" d="M1.956,321.14C1.956,321.14 -2.472,327.335 -8.088,330.406C-7.855,331.121 -7.646,331.862 -7.471,332.623C-6.544,332.187 -5.7,331.688 -4.994,331.116C-0.03,327.097 1.956,321.14 1.956,321.14M-16.171,333.712C-19.419,334.885 -21.706,335.577 -21.706,335.577C-21.706,335.577 -19.279,335.486 -16.166,335.009C-16.152,334.6 -16.151,334.165 -16.171,333.712" style="fill:rgb(230,103,51);fill-rule:nonzero;"/>
                    <path id="path606" d="M-8.088,330.406C-8.566,330.667 -9.052,330.906 -9.544,331.116C-11.908,332.125 -14.214,333.006 -16.171,333.712C-16.151,334.165 -16.152,334.6 -16.166,335.009C-13.403,334.586 -10.1,333.859 -7.471,332.623C-7.646,331.862 -7.855,331.121 -8.088,330.406" style="fill:rgb(148,64,29);fill-rule:nonzero;"/>
                    <path id="path608" d="M-57.687,303.784C-57.687,303.784 -43.213,320.848 -13.862,316.724C15.489,312.6 26.405,274.274 26.405,274.274L13.791,258.507L-57.687,258.507L-57.687,303.784" style="fill:rgb(239,93,34);fill-rule:nonzero;"/>
                    <path id="path610" d="M-53.065,307.89C-49.947,308.744 -44.991,309.426 -37.35,308.901C-18.818,307.628 5.241,277.911 5.241,277.911C5.241,277.911 -5.427,311.804 -39.378,314.853C-45.463,312.902 -50.02,310.16 -53.065,307.89" style="fill:rgb(133,46,27);fill-rule:nonzero;"/>
                    <path id="path612" d="M5.028,263.299L0.844,263.299C-0.306,266.514 -6.079,281.675 -15.317,289.617C-22.93,296.161 -33.971,303.783 -47.727,304.496C-47.023,304.532 -46.326,304.55 -45.635,304.55C-35.716,304.55 -27.134,300.893 -20.145,296.406C-20.124,296.535 -20.111,296.664 -20.084,296.794C-19.791,298.197 -19.21,299.464 -18.419,300.552C-12.885,296.569 -7.706,291.788 -3.611,287.646C-4.61,286.692 -5.802,285.954 -7.108,285.487C-0.225,277.272 4.055,266.016 5.028,263.299M-1.31,291.005C-4.147,295.339 -8.019,300.112 -13.129,304.255C-12.98,304.297 -12.829,304.335 -12.678,304.371L-12.511,304.412C-12.252,304.468 -11.99,304.511 -11.725,304.546L-11.498,304.579C-11.249,304.606 -10.997,304.619 -10.744,304.627C-10.653,304.63 -10.563,304.639 -10.471,304.639L-10.448,304.639C-10.203,304.639 -9.956,304.623 -9.708,304.605C-9.618,304.599 -9.528,304.599 -9.437,304.59C-9.093,304.555 -8.748,304.504 -8.402,304.431C-3.067,303.314 0.352,298.084 -0.765,292.749C-0.882,292.189 -1.054,291.657 -1.257,291.143L-1.291,291.052C-1.297,291.036 -1.303,291.021 -1.31,291.005" style="fill:rgb(199,77,31);fill-rule:nonzero;"/>
                    <path id="path614" d="M-3.611,287.646C-7.706,291.788 -12.885,296.569 -18.419,300.552C-17.803,301.399 -17.058,302.137 -16.221,302.745C-15.952,302.941 -15.673,303.123 -15.386,303.29L-15.369,303.3C-15.091,303.461 -14.805,303.609 -14.512,303.743L-14.459,303.768C-14.181,303.893 -13.897,304.004 -13.607,304.103L-13.502,304.141C-13.378,304.181 -13.254,304.219 -13.129,304.255C-8.019,300.112 -4.147,295.339 -1.31,291.005C-1.517,290.502 -1.766,290.025 -2.047,289.572L-2.047,289.571C-2.489,288.86 -3.016,288.214 -3.611,287.646" style="fill:rgb(111,39,23);fill-rule:nonzero;"/>
                    <path id="path616" d="M-24.269,296.794C-25.386,291.459 -21.966,286.229 -16.632,285.112C-11.297,283.995 -6.066,287.414 -4.949,292.749C-3.832,298.084 -7.251,303.314 -12.586,304.431C-17.921,305.548 -23.151,302.129 -24.269,296.794" style="fill:rgb(212,84,30);fill-rule:nonzero;"/>
                    <path id="path618" d="M-20.406,302.745C-18.23,304.326 -15.426,305.026 -12.586,304.431C-7.251,303.314 -3.832,298.084 -4.949,292.749C-5.192,291.587 -5.64,290.524 -6.231,289.571C-10.581,291.051 -17.165,294.578 -20.406,302.745" style="fill:rgb(133,46,27);fill-rule:nonzero;"/>
                    <path id="path620" d="M-19.986,295.897C-20.608,292.928 -18.704,290.016 -15.735,289.394C-12.765,288.772 -9.854,290.676 -9.232,293.645C-8.61,296.615 -10.513,299.527 -13.483,300.149C-16.453,300.77 -19.364,298.867 -19.986,295.897" style="fill:white;fill-rule:nonzero;"/>
                    <path id="path622" d="M-95.609,258.507L-100.461,263.447C-100.461,263.447 -84.996,294.896 -63.711,302.171C-42.425,309.447 -25.687,298.531 -15.317,289.617C-4.947,280.702 1.056,262.691 1.056,262.691L-2.764,258.507L-95.609,258.507" style="fill:rgb(244,106,47);fill-rule:nonzero;"/>
                    <path id="path624" d="M-71.124,289.571C-71.124,289.571 -53.689,303.308 -50.271,303.308C-46.852,303.308 -30.193,291.254 -30.193,291.254L-32.955,287.937C-32.955,287.937 -47.503,299.744 -50.271,299.744C-53.039,299.744 -66.73,287.937 -66.73,287.937L-71.124,289.571" style="fill:rgb(133,46,27);fill-rule:nonzero;"/>
                    <path id="path626" d="M-62.485,284.293C-62.485,284.293 -52.469,292.784 -49.6,292.784C-46.731,292.784 -37.199,285.385 -37.199,285.385L-39.796,280.318C-39.796,280.318 -47.375,288.538 -49.6,288.538C-51.825,288.538 -60.377,280.897 -60.377,280.897L-62.485,284.293" style="fill:rgb(133,46,27);fill-rule:nonzero;"/>
                    <path id="path628" d="M-100.461,263.447L-86.971,267.967C-86.971,267.967 -91.273,281.976 -78.72,288.707C-66.167,295.438 -60.618,288.525 -58.89,284.523C-57.161,280.52 -57.161,269.968 -57.161,269.968L-42.207,269.968C-42.207,269.968 -42.364,285.675 -35.936,290.162C-29.508,294.65 -19.841,295.256 -16.063,286.888C-12.285,278.519 -16.063,271.242 -16.063,271.242L1.056,262.691L-2.764,258.507L-95.609,258.507L-100.461,263.447" style="fill:white;fill-rule:nonzero;"/>
                    <path id="path630" d="M-60.787,277.911C-60.787,274.629 -63.447,271.968 -66.73,271.968C-70.012,271.968 -72.673,274.629 -72.673,277.911C-72.673,281.193 -70.012,283.854 -66.73,283.854C-63.447,283.854 -60.787,281.193 -60.787,277.911" style="fill:rgb(253,221,4);fill-rule:nonzero;"/>
                    <path id="path632" d="M-62.485,277.911C-62.485,275.567 -64.386,273.666 -66.73,273.666C-69.074,273.666 -70.974,275.567 -70.974,277.911C-70.974,280.255 -69.074,282.155 -66.73,282.155C-64.386,282.155 -62.485,280.255 -62.485,277.911" style="fill:rgb(57,25,19);fill-rule:nonzero;"/>
                    <path id="path634" d="M-67.622,280.554C-67.622,279.587 -68.406,278.803 -69.373,278.803C-70.34,278.803 -71.124,279.587 -71.124,280.554C-71.124,281.521 -70.34,282.305 -69.373,282.305C-68.406,282.305 -67.622,281.521 -67.622,280.554" style="fill:white;fill-rule:nonzero;"/>
                    <path id="path636" d="M-27.012,277.911C-27.012,274.629 -29.673,271.968 -32.955,271.968C-36.237,271.968 -38.898,274.629 -38.898,277.911C-38.898,281.193 -36.237,283.854 -32.955,283.854C-29.673,283.854 -27.012,281.193 -27.012,277.911" style="fill:rgb(253,221,4);fill-rule:nonzero;"/>
                    <path id="path638" d="M-28.71,277.911C-28.71,275.567 -30.611,273.666 -32.955,273.666C-35.299,273.666 -37.199,275.567 -37.199,277.911C-37.199,280.255 -35.299,282.155 -32.955,282.155C-30.611,282.155 -28.71,280.255 -28.71,277.911" style="fill:rgb(57,25,19);fill-rule:nonzero;"/>
                    <path id="path640" d="M-33.847,280.554C-33.847,279.587 -34.631,278.803 -35.599,278.803C-36.566,278.803 -37.35,279.587 -37.35,280.554C-37.35,281.521 -36.566,282.305 -35.599,282.305C-34.631,282.305 -33.847,281.521 -33.847,280.554" style="fill:white;fill-rule:nonzero;"/>
                    <path id="path642" d="M13.791,258.507L1.42,258.507L5.241,262.691C5.241,262.691 5.169,262.905 5.028,263.299L13.791,263.299L25.327,277.496C26.05,275.507 26.4,274.29 26.405,274.274L13.791,258.507" style="fill:rgb(199,77,31);fill-rule:nonzero;"/>
                    <path id="path644" d="M1.42,258.507L-2.764,258.507L1.056,262.691C1.056,262.691 0.985,262.905 0.844,263.299L5.028,263.299C5.169,262.905 5.241,262.691 5.241,262.691L1.42,258.507" style="fill:rgb(163,63,30);fill-rule:nonzero;"/>
                    <path id="path646" d="M1.056,262.691L-0.161,263.299L0.844,263.299C0.985,262.905 1.056,262.691 1.056,262.691" style="fill:rgb(222,88,29);fill-rule:nonzero;"/>
                    <path id="path648" d="M-2.764,258.507L-95.609,258.507L-100.315,263.299L-0.161,263.299L1.056,262.691L-2.764,258.507" style="fill:rgb(213,208,205);fill-rule:nonzero;"/>
                    <path id="path650" d="M-58.975,271.483C-58.975,271.483 -64.655,270.021 -66.73,264.628C-68.805,259.234 -65.985,255.323 -61.255,254.231C-56.524,253.14 -49.702,256.687 -49.702,256.687C-49.702,256.687 -44.1,251.229 -37.35,252.594C-30.6,253.958 -28.416,261.69 -31.691,266.33C-34.966,270.969 -42.971,271.483 -42.971,271.483C-42.971,271.483 -55.15,267.995 -58.975,271.483" style="fill:white;fill-rule:nonzero;"/>
                    <path id="path652" d="M-49.702,256.687C-49.702,256.687 -49.42,256.417 -48.929,256.023L-48.929,264.628C-48.929,264.998 -49.23,265.299 -49.6,265.299C-49.969,265.299 -50.271,264.998 -50.271,264.628L-50.271,256.411C-49.915,256.578 -49.702,256.687 -49.702,256.687" style="fill:rgb(166,185,181);fill-rule:nonzero;"/>
                    <path id="path654" d="M-42.306,265.564C-42.306,265.564 -37.912,270.74 -40.752,272.967C-43.593,275.195 -46.287,271.356 -49.853,271.7C-53.419,272.044 -57.154,274.795 -58.678,272.272C-60.201,269.75 -56.375,266.71 -56.375,266.71C-56.375,266.71 -55.467,269.369 -53.179,268.089C-50.89,266.809 -52.818,264.099 -52.818,264.099C-52.818,264.099 -51.133,262.995 -49.759,262.768C-48.385,262.54 -46.25,264.317 -46.25,264.317C-46.25,264.317 -47.359,267.391 -45.004,268.579C-42.648,269.768 -42.306,265.564 -42.306,265.564" style="fill:rgb(133,46,27);fill-rule:nonzero;"/>
                    <path id="path656" d="M-85.905,281.528C-85.905,281.528 -89.272,277.154 -88.999,270.696C-88.726,264.237 -79.439,258.507 -79.439,258.507L-83.095,264.195C-84.008,265.615 -83.698,267.495 -82.378,268.548L-76.719,273.061C-76.719,273.061 -84.36,270.605 -85.633,272.424C-86.907,274.244 -85.905,281.528 -85.905,281.528" style="fill:rgb(133,46,27);fill-rule:nonzero;"/>
                    <path id="path658" d="M-15.458,285.38C-15.458,285.38 -15.983,279.701 -17.378,276.882C-18.774,274.062 -23.595,275.335 -23.595,275.335C-23.595,275.335 -18.228,272.606 -18.228,270.878C-18.228,269.149 -21.867,263.692 -21.867,263.692C-21.867,263.692 -10.05,271.138 -15.458,285.38" style="fill:rgb(133,46,27);fill-rule:nonzero;"/>
                    <path id="path660" d="M-86.027,258.507C-86.027,258.507 -88.392,260.265 -89.909,262.752C-91.425,265.238 -91.91,266.754 -91.91,266.754C-91.91,266.754 -92.092,263.479 -91.182,261.296C-90.272,259.113 -89.545,258.507 -89.545,258.507L-86.027,258.507" style="fill:rgb(133,46,27);fill-rule:nonzero;"/>
                    <path id="path662" d="M-13.741,258.507C-13.741,258.507 -11.532,260.317 -9.617,263.692C-7.702,267.066 -7.009,271.483 -7.009,271.483C-7.009,271.483 -6.1,265.117 -6.706,262.388C-7.313,259.659 -8.283,258.507 -8.283,258.507L-13.741,258.507" style="fill:rgb(133,46,27);fill-rule:nonzero;"/>
                    <path id="path664" d="M-4.788,314.174C-7.597,315.372 -10.61,316.267 -13.862,316.724C-16.569,317.104 -19.147,317.302 -21.601,317.352C-16.766,316.202 -6.76,313.088 1.192,305.771C12.093,295.742 16.338,286.551 16.338,286.551C16.338,286.551 9.781,304.649 -4.788,314.174" style="fill:rgb(133,46,27);fill-rule:nonzero;"/>
                    <path id="path666" d="M1.956,301.951C1.956,301.951 9.061,296.365 13.306,285.38C17.551,274.395 17.43,271.483 17.43,271.483L-0.642,294.165L11.366,283.128C11.366,283.128 10.88,289.571 1.956,301.951" style="fill:rgb(133,46,27);fill-rule:nonzero;"/>
                    <g id="path668" transform="matrix(0.75,0,0,-0.75,0,500)">
                        <path d="M39.412,296.119L18.389,321.99L18.389,381.916C19.968,379.815 21.864,378.685 23.809,378.686C25.66,378.685 27.47,379.71 29.006,381.629L39.412,362.744L39.412,296.119Z" style="fill:rgb(246,133,79);fill-rule:nonzero;"/>
                    </g>
                    <path id="path670" d="M-3.31,240.435L3.724,240.435L3.724,246.405L6.912,246.405L0.207,254.031L-6.498,246.405L-3.31,246.405L-3.31,240.435" style="fill:rgb(133,46,27);fill-rule:nonzero;"/>
                    <path id="path672" d="M0.207,238.62L-6.498,238.62L-6.498,236.311L6.912,236.311L6.912,238.62L0.207,238.62" style="fill:rgb(133,46,27);fill-rule:nonzero;"/>
                    <path id="path674" d="M-4.287,310.02C-7.608,311.234 -12.22,312.479 -17.378,312.6C-18.043,312.616 -18.717,312.623 -19.393,312.623C-22.129,312.623 -24.928,312.503 -27.54,312.331C-28.905,312.806 -30.322,313.23 -31.79,313.592C-28.536,314.341 -24.515,314.966 -20.163,314.966C-19.012,314.966 -17.84,314.922 -16.652,314.826C-14.989,314.691 -13.454,314.462 -12.042,314.168C-9.553,313.092 -6.898,311.731 -4.287,310.02" style="fill:rgb(240,108,52);fill-rule:nonzero;"/>
                    <path id="path676" d="M-39.796,311.084C-39.796,311.084 -36.645,312.476 -31.79,313.592C-30.322,313.23 -28.905,312.806 -27.54,312.331C-34.29,311.884 -39.796,311.084 -39.796,311.084" style="fill:rgb(148,64,29);fill-rule:nonzero;"/>
                    <path id="path678" d="M1.056,307.628C1.056,307.628 -0.972,308.808 -4.287,310.02C-6.898,311.731 -9.553,313.092 -12.042,314.168C-2.926,312.269 1.056,307.628 1.056,307.628" style="fill:rgb(148,64,29);fill-rule:nonzero;"/>
                    <path id="path1131" d="M-46.403,368.708C-97.833,368.708 -140.153,326.387 -140.153,274.958L-140.153,274.958C-140.153,223.528 -97.833,181.208 -46.403,181.208C5.026,181.208 47.347,223.528 47.347,274.958L47.347,274.958C47.347,326.387 5.026,368.708 -46.403,368.708L-46.403,368.708ZM-46.403,349.958L-46.403,349.958C-5.26,349.958 28.597,316.101 28.597,274.958L28.597,274.958C28.597,233.814 -5.26,199.958 -46.403,199.958L-46.403,199.958C-87.547,199.958 -121.403,233.814 -121.403,274.958L-121.403,274.958C-121.403,316.101 -87.547,349.958 -46.403,349.958Z" style="fill:rgb(230,96,1);"/>
                    <path id="path586" d="M-31.354,340.339C-33.04,342.793 -32.298,346.184 -32.3,346.184C-31.555,349.106 -33.32,352.079 -36.242,352.824C-39.165,353.564 -42.138,351.803 -42.882,348.881C-43.082,348.1 -44.639,341.303 -40.91,335.047C-38.003,335.592 -33.747,336.826 -30.706,339.581C-30.946,339.82 -31.169,340.069 -31.354,340.339" style="fill:white;fill-rule:nonzero;"/>
                </g>
            </g>
        </g>
    </g>
</svg>
