<?xml version="1.0" encoding="UTF-8" standalone="no"?>
<!DOCTYPE svg PUBLIC "-//W3C//DTD SVG 1.1//EN" "http://www.w3.org/Graphics/SVG/1.1/DTD/svg11.dtd">
<svg width="100%" height="100%" viewBox="0 0 6597 6597" version="1.1" xmlns="http://www.w3.org/2000/svg" xmlns:xlink="http://www.w3.org/1999/xlink" xml:space="preserve" xmlns:serif="http://www.serif.com/" style="fill-rule:evenodd;clip-rule:evenodd;">
    <g transform="matrix(1,0,0,1,18.8788,18.8788)">
        <g transform="matrix(6.42843,0,0,6.42843,-11.8569,-11.8569)">
            <circle id="svg_2" cx="512" cy="512" r="510" style="fill:rgb(238,238,238);stroke:rgb(68,60,60);stroke-width:1.5px;"/>
            <circle id="svg_11" cx="512" cy="512" r="440" style="fill:rgb(68,60,60);stroke:rgb(68,60,60);stroke-width:1.5px;"/>
            <circle id="svg_12" cx="512" cy="512" r="387" style="fill:rgb(142,34,34);stroke:rgb(68,60,60);stroke-width:1.5px;"/>
            <circle id="svg_13" cx="512" cy="512" r="378" style="fill:rgb(238,238,238);stroke:rgb(142,34,34);stroke-width:1.5px;"/>
            <circle id="svg_14" cx="510.667" cy="513.333" r="265" style="fill:rgb(68,60,60);stroke:rgb(68,60,60);stroke-width:1.5px;"/>
            <path id="svg_3" d="M175.71,681.237C175.71,681.237 170.634,325.23 170,324.572C170.634,271.466 187.5,276.742 200.454,275.167C399.037,285.997 471.364,346.418 475.805,348.666C489.129,353.684 496.742,380.448 496.108,379.789C496.742,380.448 500.549,800.391 499.914,799.732C503.086,822.187 486.591,820.734 485.956,820.075C360.97,721.924 188.399,697.221 187.765,696.563C175.71,695.768 175.71,681.237 175.71,681.237L175.71,681.237Z" style="fill:rgb(238,238,238);fill-rule:nonzero;stroke:rgb(142,34,34);stroke-width:10px;"/>
            <path id="svg_4" d="M845.789,682.064C845.789,682.064 850.865,325.186 851.5,324.526C850.865,271.29 833.998,276.58 821.043,275C622.443,285.857 550.11,346.426 545.668,348.679C532.344,353.709 524.73,380.538 525.364,379.878C524.73,380.538 520.923,801.508 521.557,800.848C518.385,823.358 534.882,821.901 535.516,821.241C660.514,722.85 833.099,698.087 833.734,697.427C845.789,696.63 845.789,682.064 845.789,682.064Z" style="fill:rgb(238,238,238);fill-rule:nonzero;stroke:rgb(142,34,34);stroke-width:10px;"/>
            <path id="svg_5" d="M173.136,738.571C173.136,738.571 167.978,382.563 167.333,381.905C167.978,328.799 185.116,334.076 198.279,332.5C400.068,343.33 473.563,403.752 478.076,405.999C491.615,411.017 499.351,437.781 498.706,437.122C499.351,437.781 503.219,857.724 502.574,857.066C505.798,879.52 489.036,878.067 488.391,877.409C361.386,779.257 186.029,754.555 185.385,753.896C173.136,753.101 173.136,738.571 173.136,738.571Z" style="fill:rgb(142,34,34);fill-rule:nonzero;stroke:rgb(142,34,34);stroke-width:5px;"/>
            <path id="svg_6" d="M848.364,739.064C848.364,739.064 853.522,382.186 854.166,381.526C853.522,328.29 836.382,333.58 823.218,332C621.412,342.857 547.911,403.426 543.397,405.679C529.858,410.709 522.121,437.538 522.766,436.878C522.121,437.538 518.252,858.508 518.897,857.848C515.673,880.358 532.437,878.901 533.082,878.241C660.097,779.85 835.469,755.087 836.113,754.427C848.364,753.63 848.364,739.064 848.364,739.064L848.364,739.064Z" style="fill:rgb(142,34,34);fill-rule:nonzero;stroke:rgb(142,34,34);stroke-width:5px;"/>
        </g>
    </g>
</svg>
