<?xml version="1.0" encoding="UTF-8" standalone="no"?>
<!DOCTYPE svg PUBLIC "-//W3C//DTD SVG 1.1//EN" "http://www.w3.org/Graphics/SVG/1.1/DTD/svg11.dtd">
<svg width="100%" height="100%" viewBox="0 0 6559 5133" version="1.1" xmlns="http://www.w3.org/2000/svg" xmlns:xlink="http://www.w3.org/1999/xlink" xml:space="preserve" xmlns:serif="http://www.serif.com/" style="fill-rule:evenodd;clip-rule:evenodd;stroke-linejoin:round;stroke-miterlimit:2;">
    <g transform="matrix(1,0,0,1,9.09495e-13,-713.125)">
        <g transform="matrix(21.7345,0,0,21.7345,-3590.94,-2166.28)">
            <g id="l4jyfexBsfHtjiMInmbdJ0J">
                <g>
                    <g>
                        <g transform="matrix(1,0,0,1,175.608,132.484)">
                            <path id="pzG8g818Y" d="M14.4,121.1C12.2,120.1 8.7,117.6 6.7,115.5C0.2,108.8 0,107.5 0,61.7C0,33.5 0.4,19.5 1.2,16.9C2.8,11.4 8.5,5.1 14.4,2.4L19.5,0L140.1,0C271.3,0 265,-0.3 272.6,5.5C274.3,6.8 277,10.3 278.4,13.2L281,18.4L281,60.9C281,85.5 280.6,105 280,107C278.6,112.2 273.3,117.9 267.6,120.6L262.5,123L140.5,123C23.9,123 18.3,122.9 14.4,121.1ZM265.6,112.4C267.1,111.3 269.3,109.1 270.4,107.6C272.4,104.9 272.5,103.7 272.5,61.7L272.5,18.5L270.2,15.2C265,8 275.1,8.5 141.4,8.2L21.4,8L16.9,10.3C13.8,11.9 11.9,13.9 10.3,17C8,21.4 8,21.9 8,61.5C8,98.3 8.2,101.8 9.9,105.6C11.6,109.4 15.3,112.9 19,114.3C19.8,114.6 75,114.8 141.7,114.7C262.4,114.5 262.9,114.5 265.6,112.4Z" style="fill:rgb(17,130,219);fill-rule:nonzero;"/>
                            <path id="p11BLDQA4a" d="M61.4,95.3C58.6,94.9 58.2,94.4 57.1,89.7C53.5,75.2 43,65.2 29.6,63.4L25,62.7L25,55.9C25,49 25,49 27.8,49C32.7,49 43.2,52 48.4,54.8C59.7,60.9 68,73.1 70.4,87.1C71.1,91.2 71.5,94.8 71.3,95.3C70.9,96 67.2,96 61.4,95.3Z" style="fill:rgb(17,130,219);fill-rule:nonzero;"/>
                            <path id="psMVzY5Dy" d="M89.1,95L82.6,94.5L81.4,87.5C78,68.2 67.5,53.2 51.8,45.6C44.6,42.1 34.6,39 30.4,39C25.5,39 25,38.2 25,30.9L25,24L31.2,24.7C40.6,25.6 51.4,28.6 59.5,32.4C73,39 85.8,53.4 90.9,68.1C93.5,75.3 96.2,89.1 95.8,92.7L95.5,95.5L89.1,95Z" style="fill:rgb(17,130,219);fill-rule:nonzero;"/>
                            <path id="pEdBYQ5I3" d="M27.5,91.8C25.3,89.2 24.9,87.9 25.4,85.1C27.1,74.5 41.9,74.5 43.6,85.1C44.1,87.9 43.7,89.2 41.5,91.8C39.3,94.5 38.1,95 34.5,95C30.9,95 29.7,94.5 27.5,91.8Z" style="fill:rgb(17,130,219);fill-rule:nonzero;"/>
                            <path id="p50q2oKos" d="M157.2,94.3C153.9,93.9 153.9,93.8 154.2,89.2L154.5,84.5L170,84C178.5,83.7 186.3,83.1 187.3,82.6C189.3,81.6 189.6,76.8 187.8,75.2C187.1,74.7 181.1,72.8 174.5,71C167.9,69.2 161,66.9 159.1,65.8C154.9,63.2 153,58.7 153,51.5C153,40.3 157.6,36.8 173,36.2C181.7,35.9 199.5,37.2 200.6,38.2C200.8,38.5 200.7,40.7 200.4,43.2L199.8,47.7L185.1,47.2C171.6,46.8 170.3,46.9 168,48.8C165.9,50.5 165.7,51.2 166.5,53.6C167.5,56.2 168.5,56.7 179.3,59.7C199.5,65.2 202.5,67.7 202.5,78.9C202.5,86.6 200.9,89.9 195.7,92.7C193.1,94.2 189.7,94.5 176.5,94.6C167.7,94.7 159,94.6 157.2,94.3Z" style="fill:rgb(17,130,219);fill-rule:nonzero;"/>
                            <path id="pOvQYSye1" d="M210.7,94.3C207.3,93.9 206.9,93.6 207.4,91.7C207.7,90.5 208,88.3 208,86.8L208,84L223.5,84C237.7,84 239.2,83.8 241,82C245.7,77.3 243.1,75 227.8,70.9C209.7,65.9 206.5,63 206.5,51.4C206.5,44.4 208.3,41 213.3,38.3C216,36.8 219,36.5 231.5,36.5C239.8,36.5 248.2,36.9 250.3,37.3L254.1,38.1L253.5,47.5L239.5,47.2C223.2,46.8 220,47.5 220,51.9C220,53.4 220.6,55.2 221.3,55.8C221.9,56.3 227.6,58.2 233.9,59.9C253,65.2 256,67.8 256,78.5C256,85.5 254,90 249.7,92.5C246.9,94.3 244.5,94.5 230.5,94.6C221.7,94.7 212.8,94.5 210.7,94.3Z" style="fill:rgb(17,130,219);fill-rule:nonzero;"/>
                            <path id="p1ApzAb7lF" d="M114,94L114,37L119,37C124.2,37 126,38.5 126,42.9C126,45.6 126.1,45.6 131.8,42C137.9,38.3 144.2,36 148.6,36C151.8,36 152,36.2 152,39.4C152,41.2 151.7,44.1 151.4,45.7C150.8,48.6 150.5,48.8 145.2,49.3C142,49.6 136.9,50.8 133.8,52L128,54.1L128,94L114,94Z" style="fill:rgb(17,130,219);fill-rule:nonzero;"/>
                        </g>
                        <g transform="matrix(1,0,0,1,-131.781,252.014)">
                            <path id="pAzOWdZvA" d="M499.7,116C489.3,114.1 484.6,108.6 485.3,99.1C485.7,94.2 486.1,93.2 489.6,90.3C493,87.3 493.3,86.7 492.2,85C490.3,81.9 490.7,75.2 493,72L495.1,69.1L493,68C489.6,66.2 487.7,61.1 487.7,53.9C487.7,38 495.3,34.9 529.5,36.7L544.5,37.5L544.8,40.4C545.2,43.6 543.8,45 539.9,45C537.3,45 537.3,45.1 538.1,49.5C538.6,52 538.6,56 538.1,58.5C536.2,68.8 531.6,71.4 514.3,71.8C502.2,72.2 502,72.2 502,74.5C502,75.7 502.6,77.2 503.3,77.8C504,78.4 510.6,79.8 518,81C525.3,82.1 533,83.8 534.9,84.8C539.6,87 542,91.9 542,99C542,106.7 539.6,110.9 533.8,113.9C529.7,115.9 527.2,116.3 516.8,116.6C510,116.7 502.4,116.5 499.7,116ZM525.9,104C528.3,102.8 529.5,97.8 528.1,95.2C527.3,93.7 525.2,93 518.8,92.1C514.2,91.5 508.9,90.7 506.9,90.4C501.9,89.7 499,92.7 499,98.6C499,103.3 499.7,104 505,105.1C509.5,106.1 523.4,105.4 525.9,104ZM522.7,60.5C527.3,57.5 526.4,48.9 521.3,46.9C517.3,45.4 504.4,46.2 502.5,48.1C501.6,48.9 500.7,51.2 500.4,53.1C499.3,59.7 505.3,63.4 515.5,62.4C518.3,62.1 521.5,61.2 522.7,60.5Z" style="fill:rgb(17,130,219);fill-rule:nonzero;"/>
                            <path id="p19UxGEcJV" d="M440.9,95.1C435.7,94.1 431.5,90.7 428.9,85.3C427.1,81.4 426.6,78.3 426.2,68.6C425.9,61.4 426.2,54.7 426.9,51.5C428.5,44.5 433.6,38.4 439.3,36.9C445.2,35.3 456.6,36.3 461.8,38.8L466,40.8L466,13L480,13L480,94.1L474.3,93.8C468.6,93.5 468.5,93.5 468.2,90.3C468,88.5 467.6,87 467.4,87C467.1,87 465.4,88.1 463.6,89.5C457.8,93.9 447.8,96.4 440.9,95.1ZM461.2,80.3L466.1,77.7L465.8,63.6L465.5,49.6L458.6,48.2C450.2,46.5 445.5,47.5 442.6,51.3C440.8,53.8 440.5,55.5 440.5,65.4C440.5,77.5 441.7,81.1 446.3,83C449.5,84.4 455.7,83.3 461.2,80.3Z" style="fill:rgb(17,130,219);fill-rule:nonzero;"/>
                            <path id="pbIpbg9Oy" d="M565.7,95C557.9,94 552.3,90.1 549,83.5C547,79.5 546.5,76.6 546.2,68.9C545.5,52.4 548.9,43.2 557.3,38.8C560.9,36.8 563,36.5 573,36.5C583.4,36.5 585,36.8 589.5,39C596.5,42.6 599.3,48.1 598.7,56.7C598.2,63.5 596.5,67 592.3,69.7C590.1,71.2 586.9,71.6 575.2,71.8L560.8,72.2L561.4,75.3C561.8,77.1 563.2,79.6 564.6,81C567,83.4 567.4,83.5 581.5,83.4C595.8,83.3 596,83.3 596.6,85.5C597.9,90.5 596.8,92.4 592,93.6C585.6,95.2 572.5,95.9 565.7,95ZM582.8,61.1C585.2,59.6 585.4,52.8 583.2,50C581.6,48 580.2,47.6 574.9,47.3C565.2,46.7 562,49.2 560.7,58.3L560.1,62L570.8,62C576.7,62 582.1,61.6 582.8,61.1Z" style="fill:rgb(17,130,219);fill-rule:nonzero;"/>
                            <path id="pQeASNHPf" d="M299.3,94.3L297,93.9L297,14.3L311.3,13.7C342.6,12.4 351,16 351.8,31C352,34.9 351.9,39.6 351.6,41.5C350.7,46.4 346.6,50.8 342.3,51.6L338.8,52.3L344.1,54.4C348.5,56.1 349.9,57.3 351.9,61C354,64.8 354.4,66.8 354.4,74C354.4,86.7 350.9,91.8 340.9,93.9C336.2,94.9 304.1,95.2 299.3,94.3ZM337.7,80.8C338.8,79.6 339.5,76.9 339.8,72.7C340.6,60.7 336.9,58 319.6,58L311,58L311,83.2L323.5,82.8C333.7,82.6 336.2,82.2 337.7,80.8ZM330,47.1C336.1,45.9 338,43.2 338,36.1C338,33 337.3,29.7 336.6,28.7C334.6,26.1 329.6,25 319.8,25L311,25L311,48L318.3,48C322.2,47.9 327.5,47.5 330,47.1Z" style="fill:rgb(17,130,219);fill-rule:nonzero;"/>
                            <path id="pEIWUatVF" d="M362,94L362,37L367,37C372.2,37 374,38.5 374,42.9C374,45.6 374.1,45.6 379.8,42C386.1,38.2 392.3,36 397,36C400.1,36 400.7,36.3 400.5,37.8C400.3,38.7 399.8,41.6 399.5,44.1L398.9,48.7L393.1,49.3C389.9,49.7 384.7,50.9 381.6,52L376,54.1L376,94L362,94Z" style="fill:rgb(17,130,219);fill-rule:nonzero;"/>
                            <path id="pgGkbr5qp" d="M404,94L404,37L418,37L418,94L404,94Z" style="fill:rgb(17,130,219);fill-rule:nonzero;"/>
                            <path id="pqmgzd8On" d="M404.4,25.7C404.1,24.9 404,21.8 404.2,18.9L404.5,13.5L417.5,13.5L417.5,26.5L411.2,26.8C406.5,27 404.8,26.7 404.4,25.7Z" style="fill:rgb(17,130,219);fill-rule:nonzero;"/>
                        </g>
                    </g>
                </g>
            </g>
        </g>
    </g>
</svg>
