<?xml version="1.0" encoding="UTF-8" standalone="no"?>
<!DOCTYPE svg PUBLIC "-//W3C//DTD SVG 1.1//EN" "http://www.w3.org/Graphics/SVG/1.1/DTD/svg11.dtd">
<svg width="100%" height="100%" viewBox="0 0 6558 6558" version="1.1" xmlns="http://www.w3.org/2000/svg" xmlns:xlink="http://www.w3.org/1999/xlink" xml:space="preserve" xmlns:serif="http://www.serif.com/" style="fill-rule:evenodd;clip-rule:evenodd;stroke-miterlimit:10;">
    <g transform="matrix(55.8603,0,0,55.8603,0,0)">
        <circle cx="58.7" cy="58.7" r="58.7" style="fill:rgb(23,157,210);"/>
        <clipPath id="_clip1">
            <circle cx="58.7" cy="58.7" r="58.7"/>
        </clipPath>
        <g clip-path="url(#_clip1)">
            <g>
                <g>
                    <circle cx="58.7" cy="58.5" r="43.7" style="fill:none;stroke:white;stroke-width:6px;"/>
                    <g>
                        <path d="M94.7,47.8C99.4,49.4 104.5,46.9 106.1,42.2C107.7,37.5 105.2,32.4 100.5,30.8C95.8,29.2 90.7,31.7 89.1,36.4C87.5,41.1 90,46.2 94.7,47.8Z" style="fill:white;fill-rule:nonzero;"/>
                        <path d="M97.6,39.4L67.5,64.4" style="fill:none;fill-rule:nonzero;stroke:white;stroke-width:6px;"/>
                    </g>
                    <g>
                        <path d="M77.6,91C77.2,95.9 80.8,100.3 85.8,100.8C90.8,101.2 95.1,97.6 95.6,92.6C96,87.7 92.4,83.3 87.4,82.8C82.4,82.4 78,86 77.6,91Z" style="fill:white;fill-rule:nonzero;"/>
                        <path d="M86.5,91.8L67.5,64.4" style="fill:none;fill-rule:nonzero;stroke:white;stroke-width:6px;"/>
                    </g>
                    <path d="M60,69.3C62.7,73.5 68.3,74.7 72.4,72C76.6,69.3 77.8,63.7 75.1,59.6C72.4,55.4 66.8,54.2 62.7,56.9C58.5,59.5 57.3,65.1 60,69.3Z" style="fill:white;fill-rule:nonzero;"/>
                    <g>
                        <path d="M21.2,61.4C16.9,58.9 11.4,60.3 8.9,64.5C6.4,68.8 7.8,74.3 12,76.8C16.3,79.3 21.8,77.9 24.3,73.7C26.8,69.5 25.4,64 21.2,61.4Z" style="fill:white;fill-rule:nonzero;"/>
                        <path d="M16.6,69.1L67.5,64.4" style="fill:none;fill-rule:nonzero;stroke:white;stroke-width:6px;"/>
                    </g>
                </g>
            </g>
        </g>
    </g>
</svg>
