<?xml version="1.0" encoding="UTF-8" standalone="no"?>
<!DOCTYPE svg PUBLIC "-//W3C//DTD SVG 1.1//EN" "http://www.w3.org/Graphics/SVG/1.1/DTD/svg11.dtd">
<svg width="100%" height="100%" viewBox="0 0 13090 12562" version="1.1" xmlns="http://www.w3.org/2000/svg" xmlns:xlink="http://www.w3.org/1999/xlink" xml:space="preserve" xmlns:serif="http://www.serif.com/" style="fill-rule:evenodd;clip-rule:evenodd;">
    <g transform="matrix(1,0,0,1,3265.3,3001.41)">
        <g transform="matrix(10.5056,0,0,10.5056,-82.2937,-82.3085)">
            <path id="bN5StdyPU" d="M490.4,235.64C544.09,358.38 544.09,435.34 490.4,466.5C409.85,513.24 199.96,527.49 139.54,455.64C99.26,407.74 99.26,334.4 139.54,235.64C180.5,168.18 238.71,134.45 314.17,134.45C389.64,134.45 448.38,168.18 490.4,235.64Z" style="fill:rgb(104,224,148);fill-rule:nonzero;"/>
            <path id="bN5StdyPU1" serif:id="bN5StdyPU" d="M490.4,235.64C544.09,358.38 544.09,435.34 490.4,466.5C409.85,513.24 199.96,527.49 139.54,455.64C99.26,407.74 99.26,334.4 139.54,235.64C180.5,168.18 238.71,134.45 314.17,134.45C389.64,134.45 448.38,168.18 490.4,235.64Z" style="fill-opacity:0;fill-rule:nonzero;stroke:rgb(242,242,242);stroke-opacity:0.51;stroke-width:200px;"/>
        </g>
    </g>
</svg>
