<?xml version="1.0" encoding="UTF-8" standalone="no"?>
<!DOCTYPE svg PUBLIC "-//W3C//DTD SVG 1.1//EN" "http://www.w3.org/Graphics/SVG/1.1/DTD/svg11.dtd">
<svg width="100%" height="100%" viewBox="0 0 6559 6559" version="1.1" xmlns="http://www.w3.org/2000/svg" xmlns:xlink="http://www.w3.org/1999/xlink" xml:space="preserve" xmlns:serif="http://www.serif.com/" style="fill-rule:evenodd;clip-rule:evenodd;stroke-linejoin:round;stroke-miterlimit:2;">
    <circle cx="3279.17" cy="3279.17" r="3279.17" style="fill:rgb(82,102,253);fill-opacity:0;"/>
    <g transform="matrix(1.35108,0,0,1.35108,-371.447,74.9804)">
        <path d="M4477.3,4126.16C4147.63,3921.89 4036.67,3850.07 4043.6,3771.94C4043.6,3771.94 4043.68,3759.24 4046.95,3739.87C4054.92,3698.41 4080.27,3627.7 4161.05,3587.39C4163.74,3586.09 4165.97,3584.6 4168.04,3583.09C4424.89,3434.02 4612.58,3194.01 4678.77,2894.41C4612.05,3059.9 4118.14,3188.51 3518.21,3188.51C2918.49,3188.51 2424.45,3059.9 2357.8,2894.41C2372.63,2961.66 2393.76,3025.78 2420.25,3086.74C2442.54,3212.22 2472.54,3507.6 2330.7,3766.18C2205.7,3993.93 1588.71,4304.49 673.04,4126.18C673.04,4126.18 636.29,4100.57 625.209,4121.66C608.787,4152.86 676.016,4178.08 745.291,4196.36C1382.8,4365.18 2345.02,4296.51 2647.21,4047.53C2785.07,3934.04 2838.26,3781.11 2851.79,3616.52L2851.9,3616.78C2851.9,3616.78 2855.59,3573.68 2909.48,3606.08C2924.92,3615.38 2980.64,3651.67 2989.54,3692.68C2997.3,3751.06 2997.83,3822.75 2967.7,3872.97C2924.6,3944.74 2924.12,3955.08 2980.85,3995.63C3015.69,4020.5 3157.99,4125.07 3355.95,4244.01C3356.49,4244.35 3356.72,4244.62 3357.23,4244.91C3399.13,4270.13 3457.33,4331.91 3457.33,4331.91C3546.45,4435.04 3740.43,4642.57 3824.88,4603.53C3864.77,4585.09 3823.18,4501.95 3823.18,4501.95C3823.18,4501.95 3889.51,4588.07 3925.14,4558.73C3952.22,4536.33 3909.28,4450.61 3909.28,4450.61C3909.28,4450.61 3967.18,4500.81 4001.62,4482.2C4043.76,4459.48 3995.4,4327.63 3664.01,4126.21C3332.52,3924.66 3242.67,3893.75 3234.76,3803.78C3234.76,3803.78 3234.62,3799.23 3234.89,3791.5C3237.49,3771.65 3248.76,3729.66 3296.93,3734.16C3368.66,3745.77 3442.58,3751.96 3518.31,3751.96C3604.99,3751.96 3689.36,3743.99 3770.75,3728.81L3770.78,3728.95C3770.78,3728.95 3775.01,3728.1 3776.25,3727.88C3785.77,3726.69 3804.34,3727.33 3804.42,3750.37C3801.42,3779.62 3793.31,3809.01 3776.12,3834.76C3727.63,3907.38 3743.57,3917.32 3794.19,3964.01C3825.47,3992.79 3968.75,4118.85 4165.07,4240.82C4165.44,4241.11 4165.62,4241.38 4166.1,4241.61C4207.95,4266.78 4280.34,4335.97 4280.34,4335.97L4280.34,4335.95C4361.68,4418.51 4511.23,4556.87 4592.78,4548.56C4647.86,4542.9 4603.01,4447.98 4603.01,4447.98C4603.01,4447.98 4672.63,4515.15 4706.78,4495.41C4745.02,4473.33 4690.94,4403.12 4690.94,4403.12C4690.94,4403.12 4735.77,4426.85 4767.44,4418.96C4799.04,4410.96 4806.9,4330.31 4477.3,4126.16ZM4108.94,1818.13C4069.4,1818.13 4036.53,1830.04 4011.4,1853.55C3985.97,1877.36 3973.1,1904.84 3973.1,1935.21L3973.1,2473.04C3973.1,2545.24 3960.32,2598.41 3935.08,2631.2C3910.68,2662.9 3871.73,2678.32 3815.98,2678.32C3758.95,2678.32 3720.08,2663.01 3697.12,2631.57C3673.12,2598.76 3660.98,2545.45 3660.98,2473.07L3660.98,1933.08C3660.98,1896.31 3644.24,1866.23 3612.49,1846.11C3569.33,1818.93 3526.39,1809.07 3474.15,1826.45C3458.2,1831.79 3443.22,1838.7 3429.53,1847.07C3414.97,1855.92 3402.67,1867.05 3392.92,1880.05C3382.13,1894.5 3376.65,1910.23 3376.65,1926.79L3376.65,2473.01C3376.65,2545.32 3364.51,2598.65 3340.51,2631.49C3317.48,2662.98 3278.6,2678.29 3221.66,2678.29C3164.55,2678.29 3125.28,2662.9 3101.6,2631.36C3076.99,2598.54 3064.5,2545.27 3064.5,2473.04L3064.5,1935.21C3064.5,1904.81 3051.64,1877.34 3026.16,1853.55C3000.99,1830.06 2967.49,1818.13 2926.57,1818.13C2884.42,1818.13 2849.64,1829.93 2823.2,1853.13C2796.07,1876.94 2782.28,1904.57 2782.28,1935.21L2782.28,2464.67C2782.28,2531.26 2788.78,2594.27 2801.57,2651.85C2814.69,2710.71 2837.63,2762.39 2869.73,2805.47C2902.14,2848.97 2946.15,2883.3 3000.54,2907.64C3054.38,2931.61 3121.72,2943.78 3200.69,2943.78C3282.99,2943.78 3351.91,2928.5 3405.54,2898.44C3450.5,2873.2 3488.37,2840.01 3518.45,2799.57C3547.46,2840.01 3584.45,2873.2 3628.8,2898.39C3681.71,2928.5 3751.73,2943.78 3836.84,2943.78C3915.84,2943.78 3982.86,2931.58 4036.08,2907.56C4089.7,2883.24 4133.31,2848.91 4165.78,2805.47C4197.94,2762.26 4220.87,2710.58 4233.91,2651.85C4246.7,2594.27 4253.21,2531.26 4253.21,2464.67L4253.21,1935.18C4253.21,1904.68 4239.84,1877.12 4213.59,1853.29C4187.78,1829.96 4152.58,1818.13 4108.94,1818.13ZM2711.01,1449.19C2764.53,1416.33 3052.95,1263.08 3518.26,1455.15C3996.89,1652.69 4293.86,1481.14 4330.69,1457.78C4215,1267.54 4077.38,1102 3925.22,990.683C3935.35,987.92 3945.71,985.13 3956.66,981.861C4158.45,923.507 4209.68,752.671 4220.5,606.362C4232.67,440.416 4241.12,437.865 4277.18,288.553C4311.77,145.166 4273.22,116.468 4237.64,145.432C4218.45,161.004 4051.68,199.561 3952.75,276.701C3793.02,401.327 3694.57,638.303 3649.93,769.306C3649.08,771.326 3643.07,789.528 3641.05,795.852C3620.24,846.048 3578.82,845.889 3578.82,845.889L3578.82,845.915C3558.76,843.71 3538.56,842.567 3518.26,842.567C3500.14,842.567 3482.15,843.55 3464.13,845.277C3463.73,845.357 3463.52,845.277 3463.09,845.304C3410.14,853.09 3380.99,788.438 3374.93,773.026C3313.07,595.334 3146.59,244.973 2772.5,150.72C2772.5,150.72 2704.55,98.664 2725.28,186.699C2744.94,270.829 2785.68,355.861 2776.64,479.531C2772.5,536.609 2737.08,829.334 3006.12,981.648C3031.66,996.104 3054.41,1008.27 3074.81,1018.5C2939.37,1126.98 2816.29,1277.88 2711.01,1449.19Z" style="fill-rule:nonzero;"/>
        <path d="M2915.44,3704.37C2915.98,3705.14 2916.42,3705.96 2916.75,3706.82C2922.13,3748.76 2925.55,3799.36 2904.23,3834.89C2870.24,3891.49 2860.66,3926.8 2863.16,3953.03C2866.19,3984.88 2883.47,4017.01 2937.81,4055.85C2937.83,4055.85 2937.84,4055.86 2937.85,4055.87C2973.05,4081 3116.6,4186.46 3316.4,4306.58C3317.67,4307.44 3319,4308.3 3320.14,4308.96C3351.29,4327.72 3394.46,4373.06 3402.23,4381.35C3468.89,4458.38 3590.3,4587.9 3687.45,4645.29C3752.92,4683.98 3813.69,4690.25 3855.94,4670.72C3855.94,4670.72 3855.94,4670.72 3855.94,4670.72C3872.95,4662.85 3886.28,4651.89 3896.03,4638.43C3923.63,4641.79 3949.76,4634.33 3972.18,4615.88C3972.23,4615.84 3972.27,4615.8 3972.32,4615.76C3988.59,4602.3 4000.54,4582.53 4005.46,4558.31C4016.43,4556.29 4026.96,4552.64 4036.78,4547.33C4073.74,4527.39 4105.67,4483.24 4079.81,4409.01C4056.96,4343.43 3959.2,4219.02 3702.45,4062.96C3538.32,3963.16 3433.95,3905.7 3369.69,3861.97C3338.97,3841.05 3319.53,3829.02 3311.93,3811.3C3379.05,3820.9 3447.94,3825.97 3518.31,3825.97C3580.6,3825.97 3641.75,3822.06 3701.53,3814.5C3671.64,3865.84 3669.53,3899.85 3676.09,3926.68C3682.85,3954.36 3703.75,3981.28 3744.01,4018.42C3744.03,4018.44 3744.05,4018.46 3744.07,4018.48C3776.29,4048.12 3923.8,4178.06 4126.01,4303.69L4119.34,4299.02C4117.92,4297.9 4115.53,4295.8 4115.53,4295.8C4115.53,4295.8 4122.91,4301.98 4129.94,4306.13L4127.96,4305.05C4164.24,4326.86 4225.93,4386.32 4229.07,4389.36C4290.17,4451.26 4386.68,4540.78 4468.62,4586.53C4517.58,4613.86 4564.02,4625.89 4600.29,4622.19C4600.31,4622.19 4600.33,4622.19 4600.35,4622.18C4641.71,4617.93 4666.74,4599.08 4680.63,4572.22C4703.94,4574.49 4725.71,4569.95 4743.82,4559.49C4773.7,4542.23 4789.3,4517.43 4793.42,4488.37C4814.01,4481.31 4831.8,4467.38 4843.5,4446.6C4852.9,4429.88 4859.54,4407.04 4853.66,4376.7C4849.11,4353.16 4834.03,4317.29 4791.52,4271.46C4746.31,4222.73 4663.12,4154.19 4516.27,4063.23L4516.28,4063.24C4354.69,3963.12 4246.57,3895.66 4179.83,3843.45C4157.55,3826.02 4140.53,3810.92 4128.61,3796.72C4122.58,3789.53 4116.75,3784.95 4117.33,3778.49C4117.51,3776.47 4117.6,3774.44 4117.61,3772.41C4117.61,3772.41 4117.86,3764.78 4119.79,3753.05C4125.18,3725.79 4141.61,3679.95 4193.83,3653.76C4199.07,3651.19 4203.72,3648.39 4208.01,3645.47C4481.24,3485.93 4680.5,3229.68 4751.04,2910.37C4759.35,2872.78 4737.44,2835.09 4700.67,2823.7C4663.89,2812.31 4624.52,2831.02 4610.12,2866.73C4601.33,2888.53 4579.12,2907.24 4549.51,2926.61C4508.88,2953.2 4454.95,2977.41 4390.4,2999.34C4181.86,3070.19 3868.56,3114.5 3518.21,3114.5C3167.98,3114.5 2854.68,3070.19 2646.14,2999.34C2581.59,2977.41 2527.66,2953.2 2487.03,2926.61C2457.44,2907.24 2435.24,2888.55 2426.46,2866.76C2412.08,2831.04 2372.72,2812.32 2335.94,2823.69C2299.15,2835.07 2277.23,2872.74 2285.52,2910.34C2300.73,2979.31 2322.11,3045.2 2348.82,3107.98C2369.34,3228.78 2394.44,3496.07 2265.81,3730.57C2221.06,3812.11 2103.12,3901.78 1928.53,3974.29C1647.32,4091.07 1223.4,4156.19 696.615,4055.35C681.746,4048.16 660.452,4039.71 641.918,4039.34C607.587,4038.64 577.935,4052.52 559.696,4087.22C539.014,4126.54 544.118,4164.67 577.42,4199.36C601.833,4224.79 662.363,4251.02 726.363,4267.91C1117.61,4371.52 1628.39,4388.04 2041.2,4329.38C2326.76,4288.8 2565.98,4210.35 2694.27,4104.65C2825.63,3996.5 2889.86,3857.09 2915.44,3704.37ZM4333.22,4387.71C4416.11,4465.84 4526.74,4555.29 4592.78,4548.56C4647.86,4542.9 4603.01,4447.98 4603.01,4447.98C4603.01,4447.98 4672.63,4515.15 4706.78,4495.41C4745.02,4473.33 4690.94,4403.12 4690.94,4403.12C4690.94,4403.12 4735.77,4426.85 4767.44,4418.96C4799.04,4410.96 4806.9,4330.31 4477.3,4126.16C4147.63,3921.89 4036.67,3850.07 4043.6,3771.94C4043.6,3771.94 4043.68,3759.24 4046.95,3739.87C4054.92,3698.41 4080.27,3627.7 4161.05,3587.39C4163.74,3586.09 4165.97,3584.6 4168.04,3583.09C4424.89,3434.02 4612.58,3194.01 4678.77,2894.41C4612.05,3059.9 4118.14,3188.51 3518.21,3188.51C2918.49,3188.51 2424.45,3059.9 2357.8,2894.41C2372.63,2961.66 2393.76,3025.78 2420.25,3086.74C2442.54,3212.22 2472.54,3507.6 2330.7,3766.18C2205.7,3993.93 1588.71,4304.49 673.04,4126.18C673.04,4126.18 636.29,4100.57 625.209,4121.66C608.787,4152.86 676.016,4178.08 745.291,4196.36C1382.8,4365.18 2345.02,4296.51 2647.21,4047.53C2764.32,3951.12 2820.33,3826.25 2842.81,3689.96C2845.67,3690.33 2848.57,3690.51 2851.49,3690.53L2843.58,3685.14L2843.6,3684.99L2851.43,3690.29L2844.04,3682.24C2847.43,3660.58 2849.97,3638.66 2851.79,3616.52L2851.9,3616.78C2851.9,3616.78 2855.59,3573.68 2909.48,3606.08C2924.92,3615.38 2980.64,3651.67 2989.54,3692.68C2997.3,3751.06 2997.83,3822.75 2967.7,3872.97C2924.6,3944.74 2924.12,3955.08 2980.85,3995.63C3015.69,4020.5 3157.99,4125.07 3355.95,4244.01C3356.49,4244.35 3356.72,4244.62 3357.23,4244.91C3399.13,4270.13 3457.33,4331.91 3457.33,4331.91C3546.45,4435.04 3740.43,4642.57 3824.88,4603.53C3864.77,4585.09 3823.18,4501.95 3823.18,4501.95C3823.18,4501.95 3889.51,4588.07 3925.14,4558.73C3952.22,4536.33 3909.28,4450.61 3909.28,4450.61C3909.28,4450.61 3967.18,4500.81 4001.62,4482.2C4043.76,4459.48 3995.4,4327.63 3664.01,4126.21C3332.52,3924.66 3242.67,3893.75 3234.76,3803.78C3234.76,3803.78 3234.62,3799.23 3234.89,3791.5C3237.49,3771.65 3248.76,3729.66 3296.93,3734.16C3368.66,3745.77 3442.58,3751.96 3518.31,3751.96C3604.99,3751.96 3689.36,3743.99 3770.75,3728.81L3770.78,3728.95C3770.78,3728.95 3775.01,3728.1 3776.25,3727.88C3785.77,3726.69 3804.34,3727.33 3804.42,3750.37C3801.42,3779.62 3793.31,3809.01 3776.12,3834.76C3727.63,3907.38 3743.57,3917.32 3794.19,3964.01C3825.47,3992.79 3968.75,4118.85 4165.07,4240.82C4165.44,4241.11 4165.62,4241.38 4166.1,4241.61C4207.95,4266.78 4280.34,4335.97 4280.34,4335.97L4280.34,4335.95C4286.97,4342.68 4294.05,4349.78 4301.54,4357.12L4280.38,4409.88C4281.18,4408.37 4293.25,4385.47 4307.43,4362.91L4313.77,4369.13L4321.1,4376.14C4301.92,4393.42 4281.35,4409.21 4280.37,4409.96C4300.65,4409.95 4319.57,4401.67 4333.22,4387.71ZM4280.3,4409.95L4229.42,4388.65C4216.56,4377.62 4206.32,4360.97 4206.32,4335.95C4206.32,4318.71 4278.53,4407.76 4280.3,4409.95ZM3315.62,4306.06L3315.91,4306.25L3314.59,4305.35L3315.62,4306.06ZM3314.18,4305.06L3311.26,4302.98C3311.26,4302.98 3312.71,4304.06 3314.18,4305.06ZM3699.66,3749.45L3699.67,3749.47L3699.62,3749.31L3699.66,3749.45ZM3698.77,3746.08L3698.82,3746.26L3698.53,3744.95L3698.77,3746.08ZM3698.04,3742.66L3698.11,3743L3697.7,3740.59L3698.04,3742.66ZM4108.94,1744.12C4048.7,1744.12 3999.13,1763.67 3960.83,1799.5C3960.82,1799.51 3960.82,1799.52 3960.81,1799.52C3918.78,1838.87 3899.09,1885.01 3899.09,1935.21C3899.09,1935.21 3899.09,2473.04 3899.09,2473.04C3899.09,2524.2 3894.32,2562.82 3876.43,2586.05C3876.43,2586.06 3876.42,2586.06 3876.42,2586.07C3864.4,2601.69 3843.46,2604.3 3815.98,2604.3C3788.6,2604.3 3767.91,2603.01 3756.89,2587.92C3756.88,2587.91 3756.88,2587.9 3756.87,2587.89C3739.62,2564.29 3735,2525.11 3735,2473.07L3735,1933.08C3735,1869.95 3706.61,1818.12 3652.09,1783.59C3652.04,1783.55 3651.99,1783.52 3651.94,1783.49C3589.24,1744 3526.68,1730.97 3450.79,1756.22C3450.74,1756.23 3450.69,1756.25 3450.64,1756.27C3429.32,1763.41 3409.31,1772.69 3391.01,1783.87C3368.2,1797.74 3349,1815.26 3333.72,1835.62C3333.68,1835.67 3333.64,1835.72 3333.6,1835.78C3312.64,1863.86 3302.64,1894.63 3302.64,1926.79L3302.64,2473.01C3302.64,2524.99 3298.01,2564.19 3280.77,2587.81C3269.69,2602.92 3249.01,2604.27 3221.66,2604.27C3193.62,2604.27 3172.43,2602.41 3160.8,2586.94C3143.25,2563.51 3138.52,2524.59 3138.52,2473.04C3138.52,2473.04 3138.52,1935.21 3138.52,1935.21C3138.52,1884.94 3118.81,1838.78 3076.66,1799.44C3038.58,1763.9 2988.49,1744.12 2926.57,1744.12C2864.28,1744.12 2813.45,1763.21 2774.38,1797.49C2774.38,1797.49 2774.38,1797.49 2774.38,1797.5C2729.19,1837.15 2708.26,1884.18 2708.26,1935.21L2708.26,2464.67C2708.26,2536.97 2715.43,2605.37 2729.31,2667.89C2729.32,2667.91 2729.32,2667.94 2729.33,2667.96C2744.87,2737.65 2772.37,2798.69 2810.38,2849.69C2810.38,2849.69 2810.38,2849.69 2810.38,2849.7C2850.08,2902.97 2903.69,2945.39 2970.31,2975.2C2970.35,2975.22 2970.4,2975.24 2970.44,2975.26C3032.42,3002.85 3109.77,3017.79 3200.69,3017.79C3297.65,3017.79 3378.55,2998.42 3441.72,2963.01C3441.74,2963 3441.76,2962.99 3441.77,2962.98C3469.35,2947.5 3494.71,2929.52 3517.74,2909.17C3540.23,2929.43 3565.1,2947.33 3592.25,2962.75C3654.5,2998.18 3736.6,3017.79 3836.84,3017.79C3927.99,3017.79 4005.12,3002.74 4066.53,2975.02C4066.57,2975 4066.61,2974.99 4066.65,2974.97C4132.24,2945.22 4185.35,2902.92 4225.07,2849.78C4225.1,2849.74 4225.13,2849.69 4225.16,2849.65C4263.23,2798.49 4290.72,2737.44 4306.17,2667.9C4306.17,2667.9 4306.17,2667.89 4306.17,2667.89C4320.05,2605.37 4327.22,2536.97 4327.22,2464.67C4327.22,2464.67 4327.22,1935.18 4327.22,1935.18C4327.22,1884.59 4306.88,1838.02 4263.34,1798.49C4263.3,1798.45 4263.27,1798.42 4263.23,1798.39C4225,1763.82 4173.59,1744.12 4108.94,1744.12ZM4108.94,1818.13C4069.4,1818.13 4036.53,1830.04 4011.4,1853.55C3985.97,1877.36 3973.1,1904.84 3973.1,1935.21L3973.1,2473.04C3973.1,2545.24 3960.32,2598.41 3935.08,2631.2C3910.68,2662.9 3871.73,2678.32 3815.98,2678.32C3758.95,2678.32 3720.08,2663.01 3697.12,2631.57C3673.12,2598.76 3660.98,2545.45 3660.98,2473.07L3660.98,1933.08C3660.98,1896.31 3644.24,1866.23 3612.49,1846.11C3569.33,1818.93 3526.39,1809.07 3474.15,1826.45C3458.2,1831.79 3443.22,1838.7 3429.53,1847.07C3414.97,1855.92 3402.67,1867.05 3392.92,1880.05C3382.13,1894.5 3376.65,1910.23 3376.65,1926.79L3376.65,2473.01C3376.65,2545.32 3364.51,2598.65 3340.51,2631.49C3317.48,2662.98 3278.6,2678.29 3221.66,2678.29C3164.55,2678.29 3125.28,2662.9 3101.6,2631.36C3076.99,2598.54 3064.5,2545.27 3064.5,2473.04L3064.5,1935.21C3064.5,1904.81 3051.64,1877.34 3026.16,1853.55C3000.99,1830.06 2967.49,1818.13 2926.57,1818.13C2884.42,1818.13 2849.64,1829.93 2823.2,1853.13C2796.07,1876.94 2782.28,1904.57 2782.28,1935.21L2782.28,2464.67C2782.28,2531.26 2788.78,2594.27 2801.57,2651.85C2814.69,2710.71 2837.63,2762.39 2869.73,2805.47C2902.14,2848.97 2946.15,2883.3 3000.54,2907.64C3054.38,2931.61 3121.72,2943.78 3200.69,2943.78C3282.99,2943.78 3351.91,2928.5 3405.54,2898.44C3450.5,2873.2 3488.37,2840.01 3518.45,2799.57C3547.46,2840.01 3584.45,2873.2 3628.8,2898.39C3681.71,2928.5 3751.73,2943.78 3836.84,2943.78C3915.84,2943.78 3982.86,2931.58 4036.08,2907.56C4089.7,2883.24 4133.31,2848.91 4165.78,2805.47C4197.94,2762.26 4220.87,2710.58 4233.91,2651.85C4246.7,2594.27 4253.21,2531.26 4253.21,2464.67L4253.21,1935.18C4253.21,1904.68 4239.84,1877.12 4213.59,1853.29C4187.78,1829.96 4152.58,1818.13 4108.94,1818.13ZM2946.74,1032.39C2837.11,1136.66 2736.38,1266.55 2647.95,1410.44C2630.01,1439.62 2634.45,1477.3 2658.66,1501.53C2682.88,1525.75 2720.56,1530.19 2749.74,1512.26C2798.83,1482.12 3063.27,1347.42 3490.02,1523.56C3490.02,1523.56 3490.02,1523.56 3490.02,1523.56C4008.64,1737.61 4330.43,1545.59 4370.33,1520.28C4404.4,1498.68 4414.89,1453.78 4393.93,1419.32C4299.26,1263.65 4190.19,1124.1 4070.99,1014.94C4234.05,926.455 4283.37,759.775 4294.31,611.818C4294.31,611.804 4294.31,611.79 4294.31,611.776C4306.03,452.051 4314.41,449.642 4349.12,305.928C4349.12,305.923 4349.12,305.918 4349.13,305.913C4409.87,54.181 4265.19,36.422 4197.36,83.201C4184.62,87.25 3998.43,147.223 3907.24,218.333C3907.23,218.338 3907.22,218.342 3907.22,218.347C3735.83,352.074 3627.77,604.862 3579.87,745.432L3581.71,740.584C3580.81,742.717 3575.12,759.405 3571.93,769.097L3570.93,770.796C3553.45,769.31 3535.89,768.552 3518.26,768.552C3498.79,768.552 3479.45,769.542 3460.09,771.343C3456.18,765.675 3446.28,751.117 3444.09,746.567C3377.2,555.548 3196.69,187.022 2801.18,81.693C2788.6,74.463 2770.64,65.599 2754.27,62.843C2720.96,57.233 2691.46,67.262 2670.33,91.714C2656.94,107.216 2638.14,139.467 2653.22,203.596C2671.42,281.427 2711.18,359.727 2702.82,474.138C2702.82,474.148 2702.82,474.159 2702.82,474.169C2698.2,537.746 2663.93,855.096 2946.74,1032.39ZM3582.89,845.554C3580.32,845.894 3578.82,845.889 3578.82,845.889L3578.82,845.915C3558.76,843.71 3538.56,842.567 3518.26,842.567C3500.14,842.567 3482.15,843.55 3464.13,845.277C3463.73,845.357 3463.52,845.277 3463.09,845.304C3410.14,853.09 3380.99,788.438 3374.93,773.026C3313.07,595.334 3146.59,244.973 2772.5,150.72C2772.5,150.72 2704.55,98.664 2725.28,186.699C2744.94,270.829 2785.68,355.861 2776.64,479.531C2772.5,536.609 2737.08,829.334 3006.12,981.648C3031.66,996.104 3054.41,1008.27 3074.81,1018.5C2939.37,1126.98 2816.29,1277.88 2711.01,1449.19C2764.53,1416.33 3052.95,1263.08 3518.26,1455.15C3996.89,1652.69 4293.86,1481.14 4330.69,1457.78C4215,1267.54 4077.38,1102 3925.22,990.683C3935.35,987.92 3945.71,985.13 3956.66,981.861C4158.45,923.507 4209.68,752.671 4220.5,606.362C4232.67,440.416 4241.12,437.865 4277.18,288.553C4311.77,145.166 4273.22,116.468 4237.64,145.432C4218.45,161.004 4051.68,199.561 3952.75,276.701C3793.02,401.327 3694.57,638.303 3649.93,769.306C3649.08,771.326 3643.07,789.528 3641.05,795.852C3640.18,797.955 3639.27,799.97 3638.31,801.885C3626.36,785.722 3607.97,774.611 3586.91,772.351L3586.91,772.343L3585.22,772.17L3586.91,772.351L3582.89,845.554Z" style="fill:white;"/>
    </g>
</svg>
