<?xml version="1.0" encoding="UTF-8" standalone="no"?>
<!DOCTYPE svg PUBLIC "-//W3C//DTD SVG 1.1//EN" "http://www.w3.org/Graphics/SVG/1.1/DTD/svg11.dtd">
<svg width="100%" height="100%" viewBox="0 0 6559 6559" version="1.1" xmlns="http://www.w3.org/2000/svg" xmlns:xlink="http://www.w3.org/1999/xlink" xml:space="preserve" xmlns:serif="http://www.serif.com/" style="fill-rule:evenodd;clip-rule:evenodd;stroke-linejoin:round;stroke-miterlimit:2;">
    <circle cx="3279.17" cy="3279.17" r="3279.17" style="fill:rgb(136,23,26);"/>
    <path d="M4253.65,990.588C4371.75,994.929 4490.04,993.153 4608.14,995.916C4637.63,997.869 4666.95,1001.96 4695.85,1008.15C4669.41,1047.61 4639.61,1087.08 4606.66,1122.6C4564.43,1162.06 4516.68,1201.52 4455.71,1140.65C4441.11,1126.25 4406.38,1129.6 4381.02,1129.2C4262.63,1127.63 4145.92,1123.88 4028.61,1128.22C3926.79,1131.48 3825.37,1141.83 3725.03,1159.2C3705.3,1162.55 3678.07,1225.1 3686.75,1248.19C3707.18,1302.65 3736.87,1362.63 3780.97,1397.36C3943.76,1525.92 4117.11,1641.45 4280.78,1769.11C4439.82,1893.23 4587.82,2029.18 4678.09,2216.44C4796.48,2460.43 4799.05,2716.15 4748.34,2973.16C4663.69,3402.04 4446.63,3757.51 4095.21,4015.5C3953.63,4119.49 3778.21,4178.49 3616.01,4252.29C3473.35,4317.99 3326.55,4374.63 3183.49,4439.74C2925.69,4556.95 2780.76,4836.75 2823.38,5127.7C2862.45,5394.67 3096.67,5617.45 3366.01,5663.42C3687.84,5718.67 4019.93,5509.51 4098.66,5182.26C4187.16,4814.26 3987.37,4485.91 3613.25,4386.37L3545.87,4369C3645.91,4324.31 3733.32,4292.44 3812.25,4248.64C3951.49,4172.01 4088.17,4090.88 4222.28,4005.24C4261.74,3979.99 4283.06,3979.99 4316.7,4009.19C4574,4231.67 4727.52,4508.41 4770.53,4847.8C4841.77,5409.47 4575.88,5925.36 4074.49,6189.77C3298.72,6598.91 2349.32,6133.24 2178.05,5272.23C2031.24,4535.54 2551.18,3867.32 3176.98,3738.27C3446.12,3682.82 3692.18,3570.74 3883.58,3363.36C4006.91,3229.58 4066.89,3114.74 4087.22,3063.14C4125.18,2966.09 4144.59,2862.78 4144.44,2758.58C4140.32,2668.42 4119.12,2579.87 4081.99,2497.62C4016.67,2349.63 3766.27,2112.85 3704.41,2061.84L3115.12,1600.5C3095.39,1583.44 3070.92,1584.72 3020.21,1588.07C2961.01,1592.02 2806.12,1600.7 2739.62,1583.14C2793.39,1542.49 2939.9,1483.3 3002.74,1435.64C2811.74,1306.6 2593.8,1353.26 2393.62,1314.69C2439.99,1228.46 2669.87,1095.96 2798.12,1081.26C2790.44,1008.51 2778.58,936.276 2762.61,864.895C2754.71,835.593 2721.96,807.179 2693.54,790.506C2624.48,751.042 2551.08,716.511 2471.56,676.06C2542.76,630.038 2625.27,604.501 2710.02,602.262C2790.33,599.303 2870.64,606.998 2948.78,625.546C3090.65,658.104 3203.91,636.793 3316.78,540.304C3227.99,504.49 3139.19,471.834 3052.86,433.159C2968.3,394.734 2885.87,351.788 2805.92,304.507C3029.48,335.584 3245.74,419.347 3474.34,388.762C3476.31,378.37 3478.28,367.978 3480.26,357.586L2947.49,234.853C3264.19,205.945 3558.69,201.111 3837.9,337.064C3916.43,375.344 3998.72,406.126 4073.89,450.523C4110.6,471.834 4135.36,513.863 4165.45,546.52C4189.33,572.467 4208.57,607.195 4237.97,622.882C4349.45,682.078 4472.28,684.545 4597.39,681.585L4600.15,639.655C4726.04,679.119 4867.71,824.149 4866.53,930.208C4662.6,930.208 4458.77,929.419 4254.84,931.195C4233.13,931.392 4211.43,947.276 4189.72,955.86C4209.45,967.896 4230.57,989.404 4251.68,990.391L4253.65,990.588ZM1711.38,4926.14C1592.99,4956.42 1476.08,5001.31 1353.94,5041.57C1413.73,4638.54 1886.7,4267.28 2284.89,4309.51C2169.26,4468.81 2101.72,4657.99 2090.34,4854.51C1957.74,4878.98 1833.82,4895.35 1711.48,4926.14L1711.38,4926.14ZM2268.02,2115.61C2899.84,1729.06 3706.98,1965.35 4009.37,2546.55C4066.6,2656.76 4073.99,2826.26 4037.69,2941.89C3912.39,3340.87 3616.41,3564.63 3210.33,3659.64C3330.1,3557.03 3425.4,3440.91 3455.69,3280.29C3487.68,3126.43 3452.91,2966 3360.09,2839.18C3212.62,2636.66 2946.95,2555.7 2711.6,2641.56C2461.49,2736.47 2324.55,2964.68 2349.22,3245.36C2372.11,3505.83 2569.92,3674.83 2939.8,3738.96L2800.29,3812.95C2630.8,3905.7 2483.4,4033.95 2367.87,4189.05C2330.38,4239.76 2304.53,4243.8 2247.3,4208.78C1503.41,3754.94 1455.76,2612.46 2267.04,2115.61L2268.02,2115.61ZM3990.53,688.689C3982.14,693.918 3976.72,702.797 3976.03,712.663C3975.3,722.478 3979.21,732.086 3986.58,738.611C3992.8,749.504 4003.1,757.493 4015.19,760.809C4027.23,764.065 4040.25,762.289 4051.11,755.876L4113.75,722.924L4064.42,680.105C4036.8,657.216 4013.71,671.62 3991.42,688.689L3990.53,688.689Z" style="fill:rgb(235,235,235);"/>
</svg>
